# Blender v2.78 (sub 0) OBJ File: 'car1.blend'
# www.blender.org
mtllib carbody.mtl
o body_Cube
v 0.127954 -0.045229 -0.233235
v 0.127954 -0.045229 0.273794
v -0.127949 -0.045229 0.273794
v -0.127949 -0.045229 -0.233235
v 0.127954 0.047721 -0.233234
v 0.084778 0.025236 0.263868
v -0.097276 0.025236 0.263868
v -0.127949 0.047721 -0.233235
v 0.127954 -0.045229 0.238165
v -0.127949 -0.045229 0.238165
v 0.084778 0.040405 0.238165
v -0.084501 0.040405 0.238165
v -0.127949 -0.039906 -0.126153
v -0.084501 0.056138 -0.126153
v 0.127954 -0.039906 -0.126153
v 0.084778 0.056138 -0.126152
v 0.127954 -0.025939 0.148573
v 0.084778 0.044601 0.148573
v -0.127949 -0.025939 0.148573
v -0.084501 0.044601 0.148573
v -0.127949 -0.000347 -0.194688
v -0.084501 0.039291 -0.194688
v 0.127954 -0.045229 -0.194688
v 0.084778 0.039291 -0.194688
v 0.000003 -0.045229 -0.233235
v 0.000003 -0.045229 0.308561
v 0.000003 0.047721 -0.233235
v 0.000003 0.025236 0.280249
v 0.000003 0.040405 0.238165
v 0.000003 -0.045229 0.238165
v 0.000003 -0.053974 -0.126153
v 0.000003 0.056138 -0.126153
v 0.000003 -0.025939 0.148573
v 0.000003 0.044601 0.148573
v 0.000003 0.039291 -0.194688
v 0.000003 -0.045229 -0.194688
v -0.127949 -0.025939 0.075561
v -0.084501 0.088045 0.016699
v 0.127954 -0.025939 0.075562
v 0.084778 0.088045 0.016699
v 0.000003 0.088045 0.075562
v 0.000003 -0.025939 0.075562
v -0.127949 -0.025939 -0.084773
v -0.084501 0.091445 -0.063612
v 0.000003 -0.025939 -0.084773
v 0.127954 -0.025939 -0.084772
v 0.084778 0.091445 -0.063612
v 0.000003 0.091445 -0.047247
v -0.127949 -0.045229 -0.206059
v -0.127949 0.051812 -0.206059
v 0.127954 -0.045229 -0.206059
v 0.127954 0.051812 -0.206059
v 0.000003 -0.045229 -0.206059
v 0.000003 0.051812 -0.206059
v 0.127954 -0.028376 0.166782
v 0.084778 0.043137 0.166782
v -0.127949 -0.028376 0.166782
v -0.084501 0.043748 0.166782
v 0.000003 -0.050081 0.166782
v 0.000003 0.043748 0.166782
v 0.127954 -0.037359 0.218860
v 0.084778 0.041309 0.218860
v 0.000003 0.041309 0.218860
v -0.127949 -0.037359 0.218859
v -0.084501 0.041309 0.218859
v 0.000003 -0.059064 0.218859
v 0.127954 -0.041548 -0.170085
v 0.084778 0.045339 -0.170084
v -0.127949 -0.041548 -0.170085
v -0.084501 0.045339 -0.170085
v 0.000003 0.045339 -0.170084
v 0.000003 -0.055616 -0.170085
v -0.127949 -0.045229 -0.105159
v -0.084501 0.074050 -0.105159
v 0.000003 -0.045229 -0.105159
v 0.127954 -0.045229 -0.105159
v 0.084778 0.074050 -0.105159
v 0.000003 0.074050 -0.105159
v -0.127949 -0.045414 0.212350
v -0.127949 -0.049744 0.205840
v -0.127949 -0.051743 0.199331
v -0.127949 -0.051743 0.192821
v -0.127949 -0.050712 0.186311
v -0.127949 -0.046392 0.179802
v -0.127949 -0.039820 0.173292
v -0.084501 0.041614 0.212350
v -0.084501 0.041919 0.205840
v -0.084501 0.042224 0.199331
v -0.084501 0.042529 0.192821
v -0.084501 0.042834 0.186311
v -0.084501 0.043139 0.179802
v -0.084501 0.043443 0.173292
v 0.000003 -0.067119 0.212350
v 0.000003 -0.071449 0.205840
v 0.000003 -0.073448 0.199331
v 0.000003 -0.073448 0.192821
v 0.000003 -0.072417 0.186311
v 0.000003 -0.068097 0.179802
v 0.000003 -0.061525 0.173292
v 0.127954 -0.039820 0.173292
v 0.127954 -0.046392 0.179802
v 0.127954 -0.050712 0.186311
v 0.127954 -0.051743 0.192821
v 0.127954 -0.051743 0.199331
v 0.127954 -0.049744 0.205840
v 0.127954 -0.045414 0.212350
v 0.084778 0.043443 0.173292
v 0.084778 0.043138 0.179802
v 0.084778 0.042833 0.186311
v 0.084778 0.042528 0.192821
v 0.084778 0.042223 0.199331
v 0.084778 0.041919 0.205840
v 0.084778 0.041614 0.212350
v 0.000003 0.043443 0.173292
v 0.000003 0.043138 0.179802
v 0.000003 0.042833 0.186311
v 0.000003 0.042528 0.192821
v 0.000003 0.042223 0.199331
v 0.000003 0.041919 0.205840
v 0.000003 0.041614 0.212350
v 0.127954 -0.049307 -0.163809
v 0.127954 -0.051726 -0.157533
v 0.127954 -0.053533 -0.151257
v 0.127954 -0.053533 -0.144980
v 0.127954 -0.051131 -0.138704
v 0.127954 -0.046900 -0.132429
v 0.084778 0.046881 -0.163808
v 0.084778 0.048424 -0.157532
v 0.084778 0.049967 -0.151256
v 0.084778 0.051509 -0.144980
v 0.084778 0.053052 -0.138704
v 0.084778 0.054595 -0.132428
v 0.000003 0.046881 -0.163808
v 0.000003 0.048424 -0.157532
v 0.000003 0.049967 -0.151256
v 0.000003 0.051509 -0.144980
v 0.000003 0.053052 -0.138704
v 0.000003 0.054595 -0.132429
v -0.127949 -0.046900 -0.132429
v -0.127949 -0.051131 -0.138705
v -0.127949 -0.053533 -0.144981
v -0.127949 -0.053533 -0.151257
v -0.127949 -0.051726 -0.157533
v -0.127949 -0.049307 -0.163809
v -0.084501 0.054595 -0.132429
v -0.084501 0.053052 -0.138705
v -0.084501 0.051510 -0.144981
v -0.084501 0.049967 -0.151257
v -0.084501 0.048424 -0.157533
v -0.084501 0.046881 -0.163809
v 0.000003 -0.060968 -0.132429
v 0.000003 -0.065199 -0.138705
v 0.000003 -0.067601 -0.144981
v 0.000003 -0.067601 -0.151257
v 0.000003 -0.065794 -0.157533
v 0.000003 -0.063375 -0.163809
v 0.087723 0.125775 -0.094464
vt 0.3282 0.7500
vt 0.3109 0.5000
vt 0.3282 0.5000
vt 0.1821 0.2500
vt 0.2115 0.0000
vt 0.2112 0.2500
vt 0.5454 0.2670
vt 0.5585 0.1294
vt 0.5626 0.2670
vt 0.3498 0.0000
vt 0.3497 0.2500
vt 0.5513 0.5892
vt 0.5626 0.4076
vt 0.5626 0.5892
vt 0.1821 0.2500
vt 0.0000 0.0000
vt 0.1821 0.0000
vt 0.3539 0.4515
vt 0.3670 0.5892
vt 0.3498 0.5892
vt 0.5374 0.0980
vt 0.5374 0.3222
vt 0.1718 0.5000
vt 0.1800 0.7500
vt 0.1718 0.7500
vt 0.9174 0.2500
vt 0.9731 0.0000
vt 0.9731 0.2500
vt 0.5158 0.3222
vt 0.5185 0.0938
vt 0.5185 0.3222
vt 0.6345 0.2500
vt 0.6377 0.0000
vt 0.6377 0.2500
vt 0.3057 0.7500
vt 0.3083 1.0000
vt 0.3057 1.0000
vt 0.5095 0.5892
vt 0.5182 0.3912
vt 0.5182 0.6329
vt 0.3966 0.4154
vt 0.4042 0.5892
vt 0.3966 0.6444
vt 0.6698 0.2500
vt 0.7001 0.0000
vt 0.7001 0.2500
vt 0.7751 0.2500
vt 0.8595 0.0000
vt 0.8595 0.2500
vt 0.4779 0.2670
vt 0.5082 0.0915
vt 0.5082 0.2670
vt 0.3611 0.2670
vt 0.3658 0.1019
vt 0.3658 0.2670
vt 0.9731 0.0000
vt 0.9975 0.2500
vt 0.9731 0.2500
vt 0.2900 0.7500
vt 0.2853 1.0000
vt 0.2853 0.7500
vt 0.5364 0.4123
vt 0.5466 0.5892
vt 0.5364 0.6329
vt 0.2900 0.5000
vt 0.2853 0.5000
vt 0.9975 0.5000
vt 0.9731 0.5000
vt 0.8595 0.5000
vt 0.7760 0.5000
vt 0.6698 0.5000
vt 0.7001 0.5000
vt 0.3916 0.0720
vt 0.3942 0.3108
vt 0.3916 0.3108
vt 0.3083 0.5000
vt 0.3083 0.7500
vt 0.9174 0.5000
vt 0.9731 0.5000
vt 0.1800 1.0000
vt 0.1718 1.0000
vt 0.0000 0.5000
vt 0.1821 0.5000
vt 0.3498 0.5000
vt 0.2115 0.5000
vt 0.1821 0.5000
vt 0.3109 1.0000
vt 0.3282 1.0000
vt 0.7667 0.2500
vt 0.7667 0.5000
vt 0.9107 0.2500
vt 0.8834 0.0000
vt 0.9174 0.0000
vt 0.4114 0.2670
vt 0.4535 0.0066
vt 0.8834 0.5000
vt 0.8595 0.2500
vt 0.7667 0.0000
vt 0.4042 0.4137
vt 0.4345 0.5892
vt 0.7751 0.0000
vt 0.7751 0.2500
vt 0.5987 0.2500
vt 0.5632 0.5000
vt 0.5626 0.2500
vt 0.4029 0.0340
vt 0.4029 0.2670
vt 0.5632 0.0000
vt 0.5987 0.0000
vt 0.7751 0.5000
vt 0.4589 0.3288
vt 0.5010 0.5892
vt 0.2646 0.7500
vt 0.2740 1.0000
vt 0.2646 1.0000
vt 0.2740 0.7500
vt 0.2740 0.5000
vt 0.2740 1.0000
vt 0.2646 0.5000
vt 0.2740 0.7500
vt 0.3498 0.0854
vt 0.3498 0.2670
vt 0.5466 0.4241
vt 0.1419 0.7500
vt 0.1496 1.0000
vt 0.1419 1.0000
vt 0.0547 0.5000
vt 0.0000 0.7500
vt 0.0000 0.5000
vt 0.1690 0.5000
vt 0.1690 0.7500
vt 0.0547 0.7500
vt 0.0000 1.0000
vt 0.1419 0.5000
vt 0.1496 0.7500
vt 0.5158 0.0932
vt 0.3750 0.4201
vt 0.3750 0.6444
vt 0.5338 0.4093
vt 0.5338 0.6329
vt 0.3309 0.7500
vt 0.3282 1.0000
vt 0.3282 0.7500
vt 0.3939 0.4160
vt 0.3939 0.6444
vt 0.1690 1.0000
vt 0.3498 0.5000
vt 0.3471 0.7500
vt 0.3471 0.5000
vt 0.1419 0.5000
vt 0.0989 0.7500
vt 0.0989 0.5000
vt 0.6698 0.2500
vt 0.6572 0.0000
vt 0.6698 0.0000
vt 0.6377 0.5000
vt 0.3760 0.0901
vt 0.3760 0.3108
vt 0.6698 0.5000
vt 0.6572 0.2500
vt 0.1419 0.7500
vt 0.0989 1.0000
vt 0.0547 1.0000
vt 0.0989 0.7500
vt 0.0989 1.0000
vt 0.6345 0.0000
vt 0.3942 0.0690
vt 0.6345 0.5000
vt 0.0547 0.7500
vt 0.0989 0.5000
vt 0.5095 0.3562
vt 0.3083 0.7500
vt 0.1821 0.0000
vt 0.5454 0.0997
vt 0.5513 0.3996
vt 0.0000 0.2500
vt 0.3670 0.4219
vt 0.1800 0.5000
vt 0.9174 0.0000
vt 0.5212 0.0944
vt 0.5212 0.3222
vt 0.5293 0.0962
vt 0.5320 0.3222
vt 0.5293 0.3222
vt 0.5239 0.3222
vt 0.5266 0.0956
vt 0.5266 0.3222
vt 0.6698 0.0000
vt 0.7760 0.0000
vt 0.3611 0.0774
vt 0.9975 0.0000
vt 0.2900 1.0000
vt 0.5239 0.0950
vt 0.4202 0.0000
vt 0.9174 0.5000
vt 0.5987 0.5000
vt 0.4922 0.3222
vt 0.2740 0.5000
vt 0.3336 0.5000
vt 0.3363 0.7500
vt 0.3336 0.7500
vt 0.0547 1.0000
vt 0.1496 0.5000
vt 0.3282 0.5000
vt 0.3417 0.5000
vt 0.3390 0.7500
vt 0.3390 0.5000
vt 0.3363 0.5000
vt 0.3309 0.5000
vt 0.3444 0.5000
vt 0.3417 0.7500
vt 0.5320 0.0968
vt 0.5347 0.3222
vt 0.6572 0.5000
vt 0.1419 1.0000
vt 0.0547 0.5000
vt 0.5347 0.0974
vt 0.3444 0.7500
vt 0.1524 0.7500
vt 0.1552 0.7500
vt 0.1524 1.0000
vt 0.1579 0.7500
vt 0.1552 1.0000
vt 0.1607 0.7500
vt 0.1579 1.0000
vt 0.1635 0.7500
vt 0.1607 1.0000
vt 0.1662 0.7500
vt 0.1635 1.0000
vt 0.1662 1.0000
vt 0.3777 0.4195
vt 0.3804 0.4189
vt 0.3777 0.6444
vt 0.3831 0.4184
vt 0.3804 0.6444
vt 0.3858 0.6444
vt 0.3831 0.6444
vt 0.3858 0.4178
vt 0.3885 0.6444
vt 0.3885 0.4172
vt 0.3912 0.6444
vt 0.3912 0.4166
vt 0.3498 1.0000
vt 0.3498 0.7500
vt 0.3471 1.0000
vt 0.3444 1.0000
vt 0.3417 1.0000
vt 0.3363 1.0000
vt 0.3336 1.0000
vt 0.3309 1.0000
vt 0.1524 0.5000
vt 0.1552 0.5000
vt 0.1579 0.5000
vt 0.1607 0.5000
vt 0.1662 0.5000
vt 0.1635 0.5000
vt 0.6539 0.5000
vt 0.6507 0.2500
vt 0.6539 0.2500
vt 0.6507 0.5000
vt 0.6474 0.2500
vt 0.6474 0.5000
vt 0.6442 0.2500
vt 0.6442 0.5000
vt 0.6410 0.2500
vt 0.6410 0.5000
vt 0.5208 0.3942
vt 0.5208 0.6329
vt 0.5234 0.3972
vt 0.5234 0.6329
vt 0.5260 0.4002
vt 0.5260 0.6329
vt 0.5286 0.4032
vt 0.5286 0.6329
vt 0.5312 0.6329
vt 0.5312 0.4062
vt 0.2900 0.5000
vt 0.2926 0.7500
vt 0.2900 0.7500
vt 0.2926 0.5000
vt 0.2952 0.7500
vt 0.2952 0.5000
vt 0.2978 0.7500
vt 0.2978 0.5000
vt 0.3005 0.7500
vt 0.3031 0.5000
vt 0.3031 0.7500
vt 0.3057 0.5000
vt 0.3786 0.0871
vt 0.3812 0.0841
vt 0.3786 0.3108
vt 0.3838 0.0810
vt 0.3812 0.3108
vt 0.3864 0.3108
vt 0.3838 0.3108
vt 0.3864 0.0780
vt 0.3890 0.3108
vt 0.3890 0.0750
vt 0.2900 1.0000
vt 0.2926 1.0000
vt 0.2952 1.0000
vt 0.2978 1.0000
vt 0.3005 1.0000
vt 0.3031 1.0000
vt 0.6539 0.0000
vt 0.6507 0.0000
vt 0.6474 0.0000
vt 0.6442 0.0000
vt 0.6410 0.0000
vt 0.3390 1.0000
vt 0.3005 0.5000
vn 0.0000 -1.0000 0.0000
vn -0.0570 0.9392 0.3385
vn 0.8527 0.5225 0.0000
vn -0.2445 0.3615 0.8997
vn -1.0000 0.0000 0.0000
vn 0.0000 0.0000 -1.0000
vn -0.9169 0.3991 0.0000
vn 0.8603 0.4721 0.1925
vn -0.0000 0.9989 0.0468
vn -0.1366 -0.8052 0.5770
vn 0.6901 0.3578 0.6291
vn 0.0000 0.9711 -0.2388
vn 0.0690 -0.6274 -0.7756
vn -0.9062 0.4099 0.1039
vn -0.8545 0.5148 0.0689
vn -0.0000 0.8594 0.5114
vn 0.8529 0.5221 0.0000
vn 0.8905 0.4549 0.0000
vn 0.0000 0.6723 0.7403
vn -0.7159 0.3580 0.5995
vn 0.2123 0.9281 0.3058
vn 0.8434 0.3588 -0.3999
vn -0.0690 -0.6274 -0.7756
vn 0.1552 -0.9148 -0.3729
vn 0.2445 0.3615 0.8997
vn 0.0000 0.8612 0.5083
vn 0.0082 0.9991 0.0423
vn 0.9352 0.3542 0.0000
vn -0.0193 0.9994 0.0277
vn -0.8515 0.5244 0.0000
vn 0.0000 -0.7264 0.6873
vn 0.0556 0.9562 -0.2872
vn 0.8950 0.3240 -0.3066
vn 0.0000 0.9224 -0.3862
vn -0.9344 0.3562 0.0000
vn 0.0000 0.9889 -0.1489
vn 1.0000 0.0000 0.0000
vn -0.2186 0.2397 -0.9459
vn 0.0000 0.9968 0.0801
vn 0.0000 -0.9912 -0.1326
vn 0.0000 -0.6022 -0.7984
vn 0.8540 0.5156 0.0690
vn -0.8588 0.4743 0.1934
vn -0.8122 0.3669 0.4535
vn -0.0836 -0.4927 -0.8662
vn -0.6878 0.3589 0.6310
vn 0.1060 -0.6250 0.7734
vn 0.0000 -0.9890 0.1480
vn 0.0000 0.9711 -0.2387
vn 0.8935 0.4440 -0.0664
vn -0.3075 -0.8766 -0.3701
vn 0.1060 -0.9639 -0.2444
vn 0.0000 0.7607 -0.6491
vn 0.9072 0.4078 0.1034
vn -0.1010 -0.9184 0.3826
vn -0.8939 0.3256 -0.3081
vn 0.8630 0.4351 0.2568
vn -0.1625 0.2066 0.9648
vn -0.8783 0.4456 -0.1735
vn 0.8927 0.4501 0.0211
vn 0.0000 -0.9260 -0.3775
vn 0.8249 0.3978 0.4016
vn 0.9013 0.4141 -0.1271
vn 0.9072 0.4155 0.0658
vn -0.9019 0.3285 -0.2803
vn -0.8512 0.5243 0.0246
vn -0.2130 0.9280 0.3057
vn 0.9013 0.4114 0.1355
vn 0.2547 0.0000 0.9670
vn -0.0858 -0.2447 0.9658
vn -0.6631 0.7269 -0.1787
vn 0.9087 0.4175 0.0000
vn 0.8748 0.4038 0.2679
vn -0.0000 -0.8128 0.5825
vn 0.1839 0.2467 0.9515
vn 0.0654 0.9387 0.3384
vn 0.0192 0.9994 0.0277
vn 0.9393 0.3429 0.0145
vn -0.0082 0.9991 0.0423
vn -0.9003 0.4135 0.1362
vn 0.9182 0.3653 -0.1530
vn -0.0554 0.9563 -0.2872
vn -0.9386 0.3448 0.0146
vn -0.2532 -0.0000 0.9674
vn 0.0072 0.9989 0.0468
vn 0.1016 -0.5991 -0.7942
vn 0.1400 -0.8250 -0.5475
vn -0.1658 -0.9774 -0.1308
vn 0.8522 0.5216 0.0419
vn -0.8916 0.4524 0.0212
vn 0.0836 -0.4927 -0.8662
vn 0.1672 -0.9859 0.0000
vn 0.1652 -0.9741 -0.1543
vn 0.1185 -0.6988 -0.7055
vn 0.1601 -0.9436 0.2897
vn 0.1008 -0.9166 -0.3870
vn 0.8704 0.4100 -0.2727
vn 0.8850 0.4521 -0.1111
vn -0.0563 -0.5119 -0.8572
vn -0.0000 -0.9231 0.3845
vn 0.9030 0.3269 -0.2789
vn 0.0000 -0.9693 -0.2458
vn -0.9173 0.3673 -0.1538
vn 0.7849 0.3894 -0.4819
vn 0.1399 -0.8244 0.5484
vn -0.8751 0.4833 0.0226
vn -0.8945 0.4466 0.0209
vn -0.9034 0.4282 0.0201
vn -0.9077 0.4197 0.0000
vn -0.9062 0.4176 0.0661
vn -0.8735 0.4057 0.2692
vn -0.8232 0.3995 0.4033
vn -0.1060 -0.6250 0.7734
vn -0.1399 -0.8244 0.5484
vn -0.1601 -0.9436 0.2897
vn -0.1672 -0.9859 0.0000
vn -0.1652 -0.9741 -0.1543
vn -0.1400 -0.8250 -0.5475
vn -0.1185 -0.6988 -0.7055
vn -0.8419 0.3604 -0.4017
vn -0.8934 0.3726 -0.2511
vn -0.9143 0.3782 -0.1448
vn -0.9221 0.3871 0.0000
vn -0.9164 0.3847 0.1108
vn -0.9068 0.3934 0.1516
vn -0.0732 -0.6661 0.7423
vn -0.0908 -0.8258 0.5566
vn -0.1021 -0.9290 0.3557
vn -0.1093 -0.9940 0.0000
vn -0.1051 -0.9556 -0.2752
vn -0.1021 -0.9282 -0.3578
vn 0.8902 0.4424 -0.1087
vn 0.9077 0.4075 -0.1002
vn 0.9140 0.3940 -0.0969
vn 0.9229 0.3850 0.0000
vn 0.9153 0.3762 -0.1440
vn 0.8945 0.3707 -0.2499
vn 0.0732 -0.6661 0.7423
vn 0.0908 -0.8258 0.5566
vn 0.1021 -0.9290 0.3556
vn 0.1093 -0.9940 0.0000
vn 0.1051 -0.9556 -0.2751
vn 0.1021 -0.9282 -0.3578
vn 0.8558 0.5167 -0.0243
vn 0.9075 0.4080 -0.1003
vn -0.8891 0.4446 -0.1093
vn -0.8563 0.5159 0.0242
vn 0.8875 0.4602 0.0216
vn 0.9045 0.4260 0.0199
vn 0.9078 0.4190 0.0196
vn 0.9090 0.4163 0.0195
vn 0.9005 0.4343 0.0203
vn 0.8956 0.4443 0.0208
vn 0.8764 0.4810 0.0225
vn 0.0000 0.9989 -0.0470
vn -0.7831 0.3909 -0.4837
vn -0.8690 0.4119 -0.2740
vn -0.9002 0.4162 -0.1278
vn -0.9080 0.4185 0.0196
vn -0.9068 0.4212 0.0197
vn -0.8995 0.4365 0.0204
vn -0.8863 0.4625 0.0216
vn -0.9065 0.4101 -0.1008
vn -0.9150 0.3917 -0.0963
vn -0.9189 0.3832 -0.0942
vn -0.9200 0.3805 -0.0935
vn -0.9130 0.3961 -0.0974
vn -0.9067 0.4096 -0.1007
vn -0.1021 -0.9290 0.3556
vn -0.1051 -0.9556 -0.2751
vn 0.8139 0.3654 0.4517
vn 0.9078 0.3914 0.1509
vn 0.9173 0.3827 0.1102
vn 0.9209 0.3785 -0.0930
vn 0.9197 0.3812 -0.0937
vn 0.9160 0.3897 -0.0958
vn 0.1021 -0.9290 0.3557
vn 0.1051 -0.9556 -0.2752
usemtl Material
s off
f 30/1/1 3/2/1 10/3/1
f 29/4/2 7/5/2 28/6/2
f 9/7/3 6/8/3 2/9/3
f 28/6/4 3/10/4 26/11/4
f 49/12/5 8/13/5 4/14/5
f 27/15/6 4/16/6 8/17/6
f 7/18/7 10/19/7 3/20/7
f 62/21/8 9/7/8 61/22/8
f 65/23/9 29/24/9 63/25/9
f 30/26/10 64/27/10 66/28/10
f 55/29/11 107/30/11 100/31/11
f 32/32/12 132/33/12 138/34/12
f 156/35/13 67/36/13 121/37/13
f 73/38/14 14/39/14 13/40/14
f 58/41/15 19/42/15 57/43/15
f 33/44/1 37/45/1 42/46/1
f 41/47/16 20/48/16 34/49/16
f 39/50/17 18/51/17 17/52/17
f 51/53/18 24/54/18 23/55/18
f 50/56/19 35/57/19 54/58/19
f 36/59/1 49/60/1 53/61/1
f 70/62/20 21/63/20 69/64/20
f 23/65/1 53/61/1 51/66/1
f 54/58/19 24/67/19 52/68/19
f 41/47/21 18/69/21 40/70/21
f 17/71/1 42/46/1 39/72/1
f 132/73/22 15/74/22 126/75/22
f 156/35/23 69/76/23 72/77/23
f 9/78/24 66/28/24 61/79/24
f 63/25/9 11/80/9 62/81/9
f 1/82/6 27/15/6 5/83/6
f 2/84/25 28/6/25 26/11/25
f 29/4/26 6/85/26 11/86/26
f 2/87/1 30/1/1 9/88/1
f 39/72/1 45/89/1 46/90/1
f 48/91/27 40/92/27 47/93/27
f 46/94/28 40/95/28 39/50/28
f 48/91/29 38/96/29 41/97/29
f 42/46/1 43/98/1 45/89/1
f 20/99/30 37/100/30 19/42/30
f 45/89/31 73/101/31 75/102/31
f 78/103/32 44/104/32 48/105/32
f 77/106/33 46/94/33 76/107/33
f 78/103/34 47/108/34 77/109/34
f 46/90/31 75/102/31 76/110/31
f 38/111/35 43/112/35 37/100/35
f 27/113/36 52/114/36 5/115/36
f 51/66/1 25/116/1 1/117/1
f 53/61/1 4/118/1 25/116/1
f 8/119/36 54/120/36 27/113/36
f 5/121/37 51/53/37 1/122/37
f 22/123/38 49/12/38 21/63/38
f 34/124/39 56/125/39 18/126/39
f 55/127/40 33/128/40 17/129/40
f 86/130/9 63/25/9 120/131/9
f 59/132/41 19/133/41 33/128/41
f 20/134/9 60/135/9 34/124/9
f 17/52/42 56/136/42 55/29/42
f 10/19/43 65/137/43 64/138/43
f 150/139/44 69/64/44 144/140/44
f 99/141/45 57/142/45 59/143/45
f 92/144/46 57/43/46 85/145/46
f 63/25/9 113/146/9 120/131/9
f 61/147/47 93/148/47 106/149/47
f 67/150/48 36/151/48 23/152/48
f 35/153/49 68/154/49 24/155/49
f 145/156/12 32/32/12 138/34/12
f 23/55/50 68/157/50 67/158/50
f 22/159/49 71/160/49 35/153/49
f 72/161/51 21/162/51 36/151/51
f 76/163/52 31/164/52 15/165/52
f 32/32/53 77/109/53 16/166/53
f 16/167/54 76/107/54 15/74/54
f 14/168/53 78/103/53 32/32/53
f 75/169/55 13/170/55 31/164/55
f 43/112/56 74/171/56 73/38/56
f 30/1/1 26/172/1 3/2/1
f 29/4/26 12/173/26 7/5/26
f 9/7/57 11/174/57 6/8/57
f 28/6/58 7/5/58 3/10/58
f 49/12/5 50/175/5 8/13/5
f 27/15/6 25/176/6 4/16/6
f 7/18/59 12/177/59 10/19/59
f 62/21/60 11/174/60 9/7/60
f 65/23/9 12/178/9 29/24/9
f 30/26/61 10/179/61 64/27/61
f 100/31/62 108/180/62 101/181/62
f 111/182/63 105/183/63 104/184/63
f 102/185/64 110/186/64 103/187/64
f 73/38/65 74/171/65 14/39/65
f 58/41/66 20/99/66 19/42/66
f 33/44/1 19/188/1 37/45/1
f 41/47/67 38/189/67 20/48/67
f 39/50/68 40/95/68 18/51/68
f 51/53/69 52/190/69 24/54/69
f 50/56/19 22/191/19 35/57/19
f 36/59/70 21/192/70 49/60/70
f 70/62/71 22/123/71 21/63/71
f 23/65/1 36/59/1 53/61/1
f 54/58/19 35/57/19 24/67/19
f 41/47/16 34/49/16 18/69/16
f 17/71/1 33/44/1 42/46/1
f 103/187/72 111/182/72 104/184/72
f 101/181/73 109/193/73 102/185/73
f 9/78/74 30/26/74 66/28/74
f 63/25/9 29/24/9 11/80/9
f 1/82/6 25/176/6 27/15/6
f 2/84/75 6/85/75 28/6/75
f 29/4/76 28/6/76 6/85/76
f 2/87/1 26/172/1 30/1/1
f 39/72/1 42/46/1 45/89/1
f 48/91/77 41/97/77 40/92/77
f 46/94/78 47/194/78 40/95/78
f 48/91/79 44/195/79 38/96/79
f 42/46/1 37/45/1 43/98/1
f 20/99/80 38/111/80 37/100/80
f 45/89/31 43/98/31 73/101/31
f 78/103/34 74/196/34 44/104/34
f 77/106/81 47/194/81 46/94/81
f 78/103/82 48/105/82 47/108/82
f 46/90/31 45/89/31 75/102/31
f 38/111/83 44/197/83 43/112/83
f 27/113/36 54/120/36 52/114/36
f 51/66/1 53/61/1 25/116/1
f 53/61/1 49/60/1 4/118/1
f 8/119/36 50/198/36 54/120/36
f 5/121/37 52/190/37 51/53/37
f 22/123/84 50/175/84 49/12/84
f 34/124/85 60/135/85 56/125/85
f 55/127/86 59/132/86 33/128/86
f 101/199/87 97/200/87 98/201/87
f 59/132/88 57/202/88 19/133/88
f 20/134/9 58/203/9 60/135/9
f 17/52/89 18/51/89 56/136/89
f 10/19/90 12/177/90 65/137/90
f 55/204/91 99/141/91 59/143/91
f 104/205/92 96/206/92 103/207/92
f 102/208/93 96/206/93 97/200/93
f 100/209/94 98/201/94 99/141/94
f 105/210/95 95/211/95 104/205/95
f 67/150/96 72/161/96 36/151/96
f 35/153/49 71/160/49 68/154/49
f 112/212/97 106/213/97 105/183/97
f 23/55/98 24/54/98 68/157/98
f 22/159/49 70/214/49 71/160/49
f 72/161/99 69/215/99 21/162/99
f 76/163/100 75/169/100 31/164/100
f 32/32/53 78/103/53 77/109/53
f 16/167/101 77/106/101 76/107/101
f 14/168/53 74/196/53 78/103/53
f 75/169/102 73/216/102 13/170/102
f 43/112/103 44/197/103 74/171/103
f 113/217/104 61/22/104 106/213/104
f 106/149/105 94/218/105 105/210/105
f 114/219/85 56/125/85 60/135/85
f 115/220/9 107/221/9 114/219/9
f 116/222/9 108/223/9 115/220/9
f 117/224/9 109/225/9 116/222/9
f 118/226/9 110/227/9 117/224/9
f 119/228/9 111/229/9 118/226/9
f 120/131/9 112/230/9 119/228/9
f 86/231/106 64/138/106 65/137/106
f 87/232/107 79/233/107 86/231/107
f 88/234/108 80/235/108 87/232/108
f 88/234/109 82/236/109 81/237/109
f 89/238/110 83/239/110 82/236/110
f 90/240/111 84/241/111 83/239/111
f 91/242/112 85/145/112 84/241/112
f 64/243/113 93/148/113 66/244/113
f 79/245/114 94/218/114 93/148/114
f 80/246/115 95/211/115 94/218/115
f 81/247/116 96/206/116 95/211/116
f 96/206/117 83/248/117 97/200/117
f 97/200/118 84/249/118 98/201/118
f 98/201/119 85/250/119 99/141/119
f 92/251/9 60/135/9 58/203/9
f 91/252/9 114/219/9 92/251/9
f 90/253/9 115/220/9 91/252/9
f 89/254/9 116/222/9 90/253/9
f 89/254/9 118/226/9 117/224/9
f 87/255/9 118/226/9 88/256/9
f 86/130/9 119/228/9 87/255/9
f 150/257/49 71/160/49 70/214/49
f 150/257/49 134/258/49 133/259/49
f 149/260/49 135/261/49 134/258/49
f 148/262/49 136/263/49 135/261/49
f 147/264/49 137/265/49 136/263/49
f 146/266/49 138/34/49 137/265/49
f 13/40/120 145/267/120 139/268/120
f 139/268/121 146/269/121 140/270/121
f 140/270/122 147/271/122 141/272/122
f 141/272/123 148/273/123 142/274/123
f 148/273/124 143/275/124 142/274/124
f 149/276/125 144/140/125 143/275/125
f 13/277/126 151/278/126 31/279/126
f 139/280/127 152/281/127 151/278/127
f 140/282/128 153/283/128 152/281/128
f 141/284/129 154/285/129 153/283/129
f 154/285/130 143/286/130 155/287/130
f 155/287/131 144/288/131 156/35/131
f 127/289/132 67/158/132 68/157/132
f 128/290/133 121/291/133 127/289/133
f 129/292/134 122/293/134 128/290/134
f 129/292/135 124/294/135 123/295/135
f 130/296/136 125/297/136 124/294/136
f 131/298/137 126/75/137 125/297/137
f 15/299/138 151/278/138 126/300/138
f 126/300/139 152/281/139 125/301/139
f 125/301/140 153/283/140 124/302/140
f 153/283/141 123/303/141 124/302/141
f 154/285/142 122/304/142 123/303/142
f 155/287/143 121/37/143 122/304/143
f 133/259/49 68/154/49 71/160/49
f 134/258/49 127/305/49 133/259/49
f 135/261/49 128/306/49 134/258/49
f 136/263/49 129/307/49 135/261/49
f 137/265/49 130/308/49 136/263/49
f 138/34/49 131/309/49 137/265/49
f 55/29/144 56/136/144 107/30/144
f 32/32/12 16/166/12 132/33/12
f 156/35/13 72/77/13 67/36/13
f 132/73/145 16/167/145 15/74/145
f 156/35/23 144/288/23 69/76/23
f 86/130/9 65/23/9 63/25/9
f 150/139/146 70/62/146 69/64/146
f 99/141/45 85/250/45 57/142/45
f 92/144/147 58/41/147 57/43/147
f 63/25/9 62/81/9 113/146/9
f 61/147/47 66/244/47 93/148/47
f 145/156/49 14/168/49 32/32/49
f 100/31/148 107/30/148 108/180/148
f 111/182/149 112/212/149 105/183/149
f 102/185/150 109/193/150 110/186/150
f 103/187/151 110/186/151 111/182/151
f 101/181/152 108/180/152 109/193/152
f 101/199/87 102/208/87 97/200/87
f 55/204/91 100/209/91 99/141/91
f 104/205/92 95/211/92 96/206/92
f 102/208/93 103/207/93 96/206/93
f 100/209/94 101/199/94 98/201/94
f 105/210/95 94/218/95 95/211/95
f 112/212/153 113/217/153 106/213/153
f 113/217/154 62/21/154 61/22/154
f 106/149/105 93/148/105 94/218/105
f 114/219/155 107/221/155 56/125/155
f 115/220/9 108/223/9 107/221/9
f 116/222/9 109/225/9 108/223/9
f 117/224/9 110/227/9 109/225/9
f 118/226/9 111/229/9 110/227/9
f 119/228/9 112/230/9 111/229/9
f 120/131/9 113/146/9 112/230/9
f 86/231/156 79/233/156 64/138/156
f 87/232/157 80/235/157 79/233/157
f 88/234/158 81/237/158 80/235/158
f 88/234/159 89/238/159 82/236/159
f 89/238/160 90/240/160 83/239/160
f 90/240/161 91/242/161 84/241/161
f 91/242/162 92/144/162 85/145/162
f 64/243/113 79/245/113 93/148/113
f 79/245/114 80/246/114 94/218/114
f 80/246/115 81/247/115 95/211/115
f 81/247/116 82/310/116 96/206/116
f 96/206/117 82/310/117 83/248/117
f 97/200/118 83/248/118 84/249/118
f 98/201/119 84/249/119 85/250/119
f 92/251/9 114/219/9 60/135/9
f 91/252/9 115/220/9 114/219/9
f 90/253/9 116/222/9 115/220/9
f 89/254/9 117/224/9 116/222/9
f 89/254/9 88/256/9 118/226/9
f 87/255/9 119/228/9 118/226/9
f 86/130/9 120/131/9 119/228/9
f 150/257/49 133/259/49 71/160/49
f 150/257/12 149/260/12 134/258/12
f 149/260/49 148/262/49 135/261/49
f 148/262/49 147/264/49 136/263/49
f 147/264/49 146/266/49 137/265/49
f 146/266/49 145/156/49 138/34/49
f 13/40/163 14/39/163 145/267/163
f 139/268/164 145/267/164 146/269/164
f 140/270/165 146/269/165 147/271/165
f 141/272/166 147/271/166 148/273/166
f 148/273/167 149/276/167 143/275/167
f 149/276/168 150/139/168 144/140/168
f 13/277/126 139/280/126 151/278/126
f 139/280/127 140/282/127 152/281/127
f 140/282/169 141/284/169 153/283/169
f 141/284/129 142/311/129 154/285/129
f 154/285/170 142/311/170 143/286/170
f 155/287/131 143/286/131 144/288/131
f 127/289/171 121/291/171 67/158/171
f 128/290/172 122/293/172 121/291/172
f 129/292/173 123/295/173 122/293/173
f 129/292/174 130/296/174 124/294/174
f 130/296/175 131/298/175 125/297/175
f 131/298/176 132/73/176 126/75/176
f 15/299/138 31/279/138 151/278/138
f 126/300/139 151/278/139 152/281/139
f 125/301/177 152/281/177 153/283/177
f 153/283/141 154/285/141 123/303/141
f 154/285/178 155/287/178 122/304/178
f 155/287/143 156/35/143 121/37/143
f 133/259/49 127/305/49 68/154/49
f 134/258/49 128/306/49 127/305/49
f 135/261/49 129/307/49 128/306/49
f 136/263/49 130/308/49 129/307/49
f 137/265/49 131/309/49 130/308/49
f 138/34/49 132/33/49 131/309/49
