# Blender v2.78 (sub 0) OBJ File: 'car1.blend'
# www.blender.org
mtllib carbody.mtl
o Cube_Cube.001
v -0.124533 0.005972 0.287302
v -0.124533 0.073454 0.263446
v -0.124533 0.004161 -0.235932
v -0.124533 0.119087 -0.235563
v 0.102295 0.005972 0.287302
v 0.102295 0.073454 0.263446
v 0.102295 0.004161 -0.235932
v 0.102295 0.119087 -0.235563
v -0.124533 0.033706 0.312874
v -0.124533 0.044910 -0.235932
v 0.102295 0.044910 -0.235932
v 0.102295 0.033706 0.312874
v -0.124533 0.004161 -0.197804
v -0.124533 0.129305 -0.193786
v 0.102295 0.004161 -0.197804
v 0.102295 0.129305 -0.193786
v 0.102295 0.044910 -0.197804
v -0.124533 0.044910 -0.197804
v -0.124533 0.004161 -0.142268
v 0.078204 0.107973 -0.135137
v 0.102295 0.044910 -0.142268
v -0.100442 0.107973 -0.135137
v 0.102295 0.004161 -0.142268
v -0.124533 0.044910 -0.142268
v -0.124533 0.004161 0.174799
v 0.102295 0.087429 0.174799
v 0.102295 0.044910 0.174799
v -0.124533 0.087429 0.174799
v 0.102295 0.004161 0.174799
v -0.124533 0.044910 0.174799
v -0.079933 0.141101 -0.053562
v 0.102295 0.004161 -0.075187
v -0.124533 0.044910 -0.075187
v -0.124533 0.004161 -0.075187
v 0.057694 0.141101 -0.053562
v 0.102295 0.044910 -0.075187
v -0.124533 0.004161 0.085278
v 0.057694 0.134575 0.063652
v 0.102295 0.044910 0.085278
v -0.079933 0.134575 0.063652
v 0.102295 0.004161 0.085278
v -0.124533 0.044910 0.085278
v -0.091750 0.117528 -0.108727
v 0.102295 0.004161 -0.108727
v -0.124533 0.044910 -0.108727
v -0.124533 0.004161 -0.108727
v 0.069512 0.117528 -0.108727
v 0.102295 0.044910 -0.108727
v -0.124533 0.108768 -0.184187
v 0.102295 0.004161 -0.172669
v -0.124533 0.044910 -0.172669
v -0.124533 0.004161 -0.172669
v 0.102295 0.108768 -0.184187
v 0.102295 0.044910 -0.172669
vt 0.9155 0.0508
vt 0.8219 0.0003
vt 0.9155 0.0000
vt 0.2881 0.8959
vt 0.3823 0.5935
vt 0.3823 0.8959
vt 0.7036 0.1841
vt 0.6676 0.0660
vt 0.7178 0.0000
vt 0.1122 0.6976
vt 0.0338 1.0000
vt 0.0338 0.6976
vt 0.0000 0.1500
vt 0.2881 0.0000
vt 0.2881 0.1500
vt 0.2881 0.1170
vt 0.5762 0.0000
vt 0.5762 0.1170
vt 0.0000 1.0000
vt 0.0000 0.6976
vt 0.7858 0.0340
vt 0.7881 0.1840
vt 0.4672 0.5935
vt 0.4672 0.8959
vt 1.0000 0.0001
vt 1.0000 0.0510
vt 0.9155 0.0843
vt 1.0000 0.0845
vt 0.7036 0.7316
vt 0.7881 0.6807
vt 0.7881 0.7315
vt 0.5209 0.8959
vt 0.4672 0.5935
vt 0.5209 0.5935
vt 0.0000 0.6976
vt 0.2881 0.6468
vt 0.2881 0.6976
vt 0.6099 0.7313
vt 0.7036 0.6808
vt 0.8349 0.0689
vt 0.9155 0.1696
vt 0.8327 0.1347
vt 0.9155 0.1249
vt 1.0000 0.1250
vt 1.0000 0.1697
vt 0.7036 0.6473
vt 0.7881 0.6066
vt 0.7881 0.6472
vt 0.2881 0.5935
vt 0.5456 0.5283
vt 0.5762 0.5935
vt 0.0000 0.6132
vt 0.2881 0.5727
vt 0.2881 0.6132
vt 0.6208 0.5969
vt 0.7036 0.6068
vt 0.9977 0.6976
vt 0.9155 0.5475
vt 1.0000 0.5477
vt 0.8795 0.6657
vt 0.9297 0.7316
vt 0.7036 0.3034
vt 0.7881 0.3033
vt 0.3447 0.2617
vt 0.5196 0.2617
vt 0.0000 0.2693
vt 0.2881 0.2693
vt 0.6499 0.1842
vt 0.6075 0.5616
vt 0.7036 0.5173
vt 0.7036 0.5621
vt 0.0000 0.5280
vt 0.2881 0.4833
vt 0.2881 0.5280
vt 0.3297 0.4924
vt 0.5196 0.4173
vt 0.5346 0.4924
vt 0.7881 0.5172
vt 0.7881 0.5619
vt 0.9155 0.4282
vt 1.0000 0.2144
vt 1.0000 0.4283
vt 0.7963 0.4000
vt 0.9155 0.2143
vt 0.8618 0.5475
vt 0.5844 0.3316
vt 0.0000 0.4833
vt 0.3447 0.4173
vt 0.3187 0.5283
vt 0.0000 0.5727
vt 0.8194 0.1700
vt 0.6230 0.6628
vt 0.0000 0.6468
vt 0.5490 0.8959
vt 0.5209 0.5935
vt 0.5490 0.5935
vt 0.8089 0.0560
vt 0.2881 0.5935
vt 0.1122 1.0000
vt 0.0000 0.0000
vt 0.2881 0.0000
vt 0.4672 0.8959
vt 0.5970 0.6756
vt 0.5762 0.4879
vt 0.7881 0.2438
vt 0.5209 0.8959
vn -1.0000 0.0000 0.0000
vn 0.0000 0.0050 -1.0000
vn 1.0000 0.0000 0.0000
vn 0.0000 0.7793 0.6267
vn 0.0000 -0.9999 0.0161
vn 0.0000 0.9878 0.1557
vn 0.0000 -0.6779 0.7352
vn 0.0000 0.0000 -1.0000
vn 0.0000 0.9714 -0.2376
vn 0.0000 -1.0000 0.0000
vn -0.9342 0.3569 0.0000
vn 0.0000 0.9999 0.0162
vn 0.9342 0.3569 0.0000
vn 0.0000 0.9206 0.3905
vn 0.9114 0.4115 0.0000
vn 0.0000 0.9196 -0.3929
vn -0.8954 0.4454 0.0000
vn 0.8954 0.4454 0.0000
vn 0.0000 0.9985 0.0556
vn 0.0000 0.9403 -0.3402
vn -0.9114 0.4115 0.0000
vn 0.0000 0.4234 0.9059
vn -0.9012 0.4068 0.1494
vn 0.8942 0.0795 0.4405
vn 0.8965 0.4001 -0.1900
vn 0.9085 0.4176 0.0162
vn -0.9090 0.4162 0.0232
vn -0.8965 0.4001 -0.1900
vn 0.9090 0.4162 0.0232
vn 0.9012 0.4068 0.1494
vn -0.9085 0.4176 0.0162
vn -0.8942 0.0795 0.4405
usemtl None
s off
f 18/1/1 4/2/1 10/3/1
f 4/4/2 11/5/2 10/6/2
f 27/7/3 6/8/3 12/9/3
f 6/10/4 9/11/4 12/12/4
f 29/13/5 1/14/5 25/15/5
f 28/16/6 6/17/6 26/18/6
f 12/12/7 1/19/7 5/20/7
f 27/7/3 5/21/3 29/22/3
f 10/6/8 7/23/8 3/24/8
f 18/1/1 3/25/1 13/26/1
f 51/27/1 13/26/1 52/28/1
f 11/29/3 15/30/3 7/31/3
f 4/32/9 16/33/9 8/34/9
f 7/35/10 13/36/10 3/37/10
f 8/38/3 17/39/3 11/29/3
f 49/40/1 18/1/1 51/27/1
f 45/41/11 22/42/11 24/43/11
f 45/41/1 19/44/1 46/45/1
f 54/46/3 23/47/3 50/48/3
f 49/49/12 20/50/12 53/51/12
f 50/52/10 19/53/10 52/54/10
f 54/46/13 20/55/13 21/56/13
f 1/57/1 30/58/1 25/59/1
f 2/60/1 30/58/1 9/61/1
f 39/62/3 29/22/3 41/63/3
f 40/64/14 26/18/14 38/65/14
f 41/66/10 25/15/10 37/67/10
f 39/62/3 26/68/3 27/7/3
f 47/69/15 36/70/15 48/71/15
f 44/72/10 34/73/10 46/74/10
f 43/75/16 35/76/16 47/77/16
f 48/71/3 32/78/3 44/79/3
f 42/80/1 34/81/1 37/82/1
f 40/83/17 33/84/17 42/80/17
f 28/85/1 42/80/1 30/58/1
f 30/58/1 37/82/1 25/59/1
f 36/70/18 38/86/18 39/62/18
f 32/87/10 37/67/10 34/73/10
f 31/88/19 38/65/19 35/76/19
f 36/70/3 41/63/3 32/78/3
f 21/56/3 44/79/3 23/47/3
f 22/89/20 47/77/20 20/50/20
f 23/90/10 46/74/10 19/53/10
f 20/55/13 48/71/13 21/56/13
f 33/84/1 46/45/1 34/81/1
f 33/84/21 43/91/21 45/41/21
f 17/39/3 53/92/3 54/46/3
f 15/93/10 52/54/10 13/36/10
f 14/94/22 53/95/22 16/96/22
f 17/39/3 50/48/3 15/30/3
f 22/42/11 51/27/11 24/43/11
f 24/43/1 52/28/1 19/44/1
f 18/1/1 14/97/1 4/2/1
f 4/4/2 8/98/2 11/5/2
f 27/7/3 26/68/3 6/8/3
f 6/10/4 2/99/4 9/11/4
f 29/13/5 5/100/5 1/14/5
f 28/16/6 2/101/6 6/17/6
f 12/12/7 9/11/7 1/19/7
f 27/7/3 12/9/3 5/21/3
f 10/6/8 11/5/8 7/23/8
f 18/1/1 10/3/1 3/25/1
f 51/27/1 18/1/1 13/26/1
f 11/29/3 17/39/3 15/30/3
f 4/32/9 14/102/9 16/33/9
f 7/35/10 15/93/10 13/36/10
f 8/38/3 16/103/3 17/39/3
f 49/40/1 14/97/1 18/1/1
f 45/41/23 43/91/23 22/42/23
f 45/41/1 24/43/1 19/44/1
f 54/46/3 21/56/3 23/47/3
f 49/49/12 22/89/12 20/50/12
f 50/52/10 23/90/10 19/53/10
f 54/46/24 53/92/24 20/55/24
f 1/57/1 9/61/1 30/58/1
f 2/60/1 28/85/1 30/58/1
f 39/62/3 27/7/3 29/22/3
f 40/64/14 28/16/14 26/18/14
f 41/66/10 29/13/10 25/15/10
f 39/62/25 38/86/25 26/68/25
f 47/69/26 35/104/26 36/70/26
f 44/72/10 32/87/10 34/73/10
f 43/75/16 31/88/16 35/76/16
f 48/71/3 36/70/3 32/78/3
f 42/80/1 33/84/1 34/81/1
f 40/83/27 31/105/27 33/84/27
f 28/85/28 40/83/28 42/80/28
f 30/58/1 42/80/1 37/82/1
f 36/70/29 35/104/29 38/86/29
f 32/87/10 41/66/10 37/67/10
f 31/88/19 40/64/19 38/65/19
f 36/70/3 39/62/3 41/63/3
f 21/56/3 48/71/3 44/79/3
f 22/89/20 43/75/20 47/77/20
f 23/90/10 44/72/10 46/74/10
f 20/55/30 47/69/30 48/71/30
f 33/84/1 45/41/1 46/45/1
f 33/84/31 31/105/31 43/91/31
f 17/39/3 16/103/3 53/92/3
f 15/93/10 50/52/10 52/54/10
f 14/94/22 49/106/22 53/95/22
f 17/39/3 54/46/3 50/48/3
f 22/42/32 49/40/32 51/27/32
f 24/43/1 51/27/1 52/28/1
