# Blender v2.78 (sub 0) OBJ File: 'enemycar.blend'
# www.blender.org
mtllib enemycar.mtl
o Cube
v 0.176235 -0.059468 -0.281525
v 0.176235 -0.057589 0.299952
v -0.176235 -0.057589 0.299952
v -0.176235 -0.059468 -0.281525
v 0.188125 0.227670 -0.279911
v 0.176235 0.013854 0.355615
v -0.176236 0.013854 0.355615
v -0.188125 0.227670 -0.279911
v 0.176236 -0.032220 -0.282028
v 0.176235 -0.032220 0.299952
v -0.176236 -0.032220 0.299952
v -0.176235 -0.032220 -0.282029
v 0.176235 -0.068011 -0.270263
v 0.176235 -0.048014 -0.254873
v 0.176235 -0.049654 -0.241686
v 0.176235 -0.081090 -0.232972
v 0.176235 -0.099537 -0.217402
v 0.176235 -0.106549 -0.206269
v 0.176235 -0.108555 -0.192292
v 0.176235 -0.108555 -0.179473
v 0.176235 -0.105810 -0.165581
v 0.176235 -0.103353 -0.154906
v 0.176235 -0.097026 -0.139775
v 0.176235 -0.084809 -0.129434
v 0.176235 -0.057589 -0.115375
v 0.176235 -0.057589 0.128195
v 0.176235 -0.083978 0.139847
v 0.176235 -0.095916 0.150284
v 0.176235 -0.106762 0.167265
v 0.176235 -0.110145 0.181373
v 0.176235 -0.111047 0.194497
v 0.176235 -0.110531 0.204701
v 0.176235 -0.106846 0.219370
v 0.176235 -0.102253 0.229723
v 0.176235 -0.094045 0.244150
v 0.176235 -0.080500 0.255809
v 0.176235 -0.057589 0.269209
v -0.176235 -0.057589 0.269209
v -0.176235 -0.080500 0.255809
v -0.176235 -0.094045 0.244150
v -0.176235 -0.102253 0.229723
v -0.176235 -0.106846 0.219370
v -0.176235 -0.110531 0.204700
v -0.176235 -0.111047 0.194497
v -0.176235 -0.110146 0.181373
v -0.176235 -0.106762 0.167265
v -0.176235 -0.095917 0.150284
v -0.176235 -0.083978 0.139847
v -0.176235 -0.057589 0.128195
v -0.176235 -0.057589 -0.115375
v -0.176235 -0.084809 -0.129434
v -0.176235 -0.097027 -0.139775
v -0.176235 -0.103353 -0.154906
v -0.176235 -0.105810 -0.165581
v -0.176235 -0.108555 -0.179473
v -0.176235 -0.108555 -0.192292
v -0.176235 -0.106549 -0.206269
v -0.176235 -0.099536 -0.217403
v -0.176235 -0.081090 -0.232972
v -0.176235 -0.049654 -0.241686
v -0.176235 -0.048014 -0.254873
v -0.176235 -0.068011 -0.270263
v 0.188125 0.202502 -0.207229
v 0.112714 0.173128 -0.192292
v 0.112714 0.173128 0.269209
v -0.112714 0.173128 0.269209
v -0.112714 0.173128 -0.192292
v -0.188125 0.202502 -0.207229
v -0.176236 -0.032220 0.269209
v -0.176236 -0.032220 0.256389
v -0.176236 -0.032220 0.243570
v -0.176236 -0.032220 0.230751
v -0.176236 -0.032220 0.217931
v -0.176236 -0.032220 0.205112
v -0.176236 -0.032220 0.192292
v -0.176236 -0.032220 0.179473
v -0.176236 -0.032220 0.166653
v -0.176236 -0.032220 0.153834
v -0.176236 -0.032220 0.141014
v -0.176236 -0.032220 0.128195
v -0.176236 -0.032220 -0.115375
v -0.176236 -0.032220 -0.128195
v -0.176236 -0.032220 -0.141014
v -0.176236 -0.032220 -0.153834
v -0.176236 -0.032220 -0.166653
v -0.176236 -0.032220 -0.179473
v -0.176236 -0.032220 -0.192292
v -0.176235 -0.032220 -0.205112
v -0.176235 -0.032220 -0.217931
v -0.176235 -0.032220 -0.230751
v -0.176235 -0.032220 -0.243570
v -0.176235 -0.032220 -0.256390
v -0.176235 -0.032220 -0.269209
v 0.176236 -0.032220 -0.269209
v 0.176236 -0.032220 -0.256389
v 0.176236 -0.032220 -0.243570
v 0.176236 -0.032220 -0.230750
v 0.176236 -0.032220 -0.217931
v 0.176236 -0.032220 -0.205112
v 0.176236 -0.032220 -0.192292
v 0.176236 -0.032220 -0.179473
v 0.176236 -0.032220 -0.166653
v 0.176236 -0.032220 -0.153834
v 0.176236 -0.032220 -0.141014
v 0.176236 -0.032220 -0.128195
v 0.176236 -0.032220 -0.115375
v 0.176236 -0.032220 0.128195
v 0.176236 -0.032220 0.141014
v 0.176236 -0.032220 0.153834
v 0.176236 -0.032220 0.166653
v 0.176235 -0.032220 0.179473
v 0.176235 -0.032220 0.192292
v 0.176235 -0.032220 0.205112
v 0.176235 -0.032220 0.217931
v 0.176235 -0.032220 0.230751
v 0.176235 -0.032220 0.243570
v 0.176235 -0.032220 0.256390
v 0.176235 -0.032220 0.269209
vt 0.6996 0.5828
vt 0.7120 0.8122
vt 0.6996 0.8122
vt 0.7981 0.9686
vt 0.9846 0.6562
vt 0.9436 0.9686
vt 0.2918 0.1571
vt 0.2571 0.2490
vt 0.2794 0.1571
vt 0.7571 0.5627
vt 0.9846 0.5627
vt 0.7494 0.5116
vt 0.5218 0.5652
vt 0.5218 0.5116
vt 0.7571 0.0000
vt 0.5142 0.0000
vt 0.2519 0.5177
vt 0.2568 0.5720
vt 0.2522 0.5890
vt 0.7571 0.5124
vt 0.9846 0.5124
vt 0.2793 0.1066
vt 0.2917 0.1066
vt 0.5139 0.1024
vt 0.5090 0.1567
vt 0.5093 0.0854
vt 0.5032 0.1252
vt 0.4986 0.1567
vt 0.4978 0.1220
vt 0.4935 0.1567
vt 0.4942 0.0594
vt 0.4883 0.1567
vt 0.4879 0.0226
vt 0.4831 0.1567
vt 0.4833 0.0087
vt 0.4780 0.1568
vt 0.4777 0.0047
vt 0.4725 0.0047
vt 0.4728 0.1568
vt 0.4669 0.0102
vt 0.4676 0.1568
vt 0.4626 0.0151
vt 0.4624 0.1568
vt 0.4565 0.0277
vt 0.4573 0.1568
vt 0.4524 0.0520
vt 0.4521 0.1568
vt 0.4468 0.1063
vt 0.4469 0.1568
vt 0.3486 0.1065
vt 0.3435 0.1570
vt 0.3438 0.0539
vt 0.3383 0.1570
vt 0.3395 0.0301
vt 0.3332 0.1570
vt 0.3326 0.0085
vt 0.3280 0.1570
vt 0.3269 0.0018
vt 0.3228 0.1570
vt 0.3216 0.0000
vt 0.3175 0.0010
vt 0.3176 0.1571
vt 0.3116 0.0084
vt 0.3125 0.1571
vt 0.3075 0.0175
vt 0.3073 0.1571
vt 0.3017 0.0339
vt 0.3021 0.1571
vt 0.2970 0.0609
vt 0.2969 0.1571
vt 0.0223 0.5173
vt 0.0346 0.5679
vt 0.0222 0.5678
vt 0.0399 0.5173
vt 0.0399 0.6135
vt 0.0450 0.5173
vt 0.0446 0.6405
vt 0.0502 0.5174
vt 0.0504 0.6569
vt 0.0554 0.5174
vt 0.0545 0.6660
vt 0.0606 0.5174
vt 0.0604 0.6734
vt 0.0657 0.5174
vt 0.0646 0.6744
vt 0.0699 0.6726
vt 0.0709 0.5174
vt 0.0756 0.6659
vt 0.0761 0.5174
vt 0.0824 0.6443
vt 0.0812 0.5174
vt 0.0867 0.6205
vt 0.0864 0.5174
vt 0.0915 0.5680
vt 0.1898 0.5176
vt 0.0916 0.5174
vt 0.1898 0.5682
vt 0.1950 0.5176
vt 0.1953 0.6224
vt 0.2002 0.5176
vt 0.1995 0.6467
vt 0.2054 0.5176
vt 0.2055 0.6594
vt 0.2105 0.5176
vt 0.2098 0.6643
vt 0.2157 0.5177
vt 0.2154 0.6697
vt 0.2206 0.6698
vt 0.2209 0.5177
vt 0.2263 0.6658
vt 0.2261 0.5177
vt 0.2308 0.6518
vt 0.2312 0.5177
vt 0.2371 0.6151
vt 0.2364 0.5177
vt 0.2407 0.5524
vt 0.2416 0.5177
vt 0.2461 0.5492
vt 0.0000 0.4255
vt 0.0347 0.5173
vt 0.0358 0.1080
vt 1.0000 0.0470
vt 1.0000 0.0000
vt 0.7571 0.0470
vt 0.9513 0.1047
vt 0.8058 0.1047
vt 0.5142 0.5828
vt 0.6597 0.7705
vt 0.5142 0.7705
vt 0.7494 0.5652
vt 0.5218 0.5828
vt 0.6996 0.5828
vt 0.6597 0.8122
vt 0.6597 0.5828
vt 0.7382 0.5828
vt 0.7326 0.8122
vt 0.7326 0.5828
vt 0.1133 0.9039
vt 0.0514 0.6744
vt 0.1133 0.6744
vt 0.0514 0.9039
vt 0.0144 0.6744
vt 0.0144 0.9039
vt 0.0000 0.6744
vt 0.7231 0.8122
vt 0.7171 0.5828
vt 0.7231 0.5828
vt 0.7120 0.8122
vt 0.7171 0.8122
vt 0.3318 0.6744
vt 0.3258 0.9039
vt 0.3258 0.6744
vt 0.3370 0.9039
vt 0.3318 0.9039
vt 0.3370 0.6744
vt 0.3500 0.9039
vt 0.3500 0.6744
vt 0.3745 0.9039
vt 0.3745 0.6744
vt 0.4285 0.9039
vt 0.5142 0.7705
vt 0.6119 1.0000
vt 0.5142 1.0000
vt 0.2199 0.6744
vt 0.2722 0.9039
vt 0.2199 0.9039
vt 0.2961 0.6744
vt 0.2722 0.6744
vt 0.3183 0.6744
vt 0.2961 0.9039
vt 0.3258 0.6744
vt 0.3183 0.9039
vt 0.7286 0.5828
vt 0.7231 0.8122
vt 0.7231 0.5828
vt 0.7326 0.5828
vt 0.7286 0.8122
vt 0.1133 0.6744
vt 0.1211 0.9039
vt 0.1133 0.9039
vt 0.1211 0.6744
vt 0.1305 0.9039
vt 0.1305 0.6744
vt 0.1472 0.9039
vt 0.1472 0.6744
vt 0.1743 0.9039
vt 0.1743 0.6744
vt 0.2199 0.9039
vt 0.7120 0.5828
vt 0.7571 0.6562
vt 0.2929 0.5665
vt 0.2571 0.5177
vt 0.5142 0.1567
vt 0.5038 0.1567
vt 0.3487 0.1570
vt 0.2467 0.5177
vt 0.9923 0.5124
vt 0.2220 0.1083
vt 0.2571 0.0000
vt 0.2277 0.0501
vt 0.5142 0.6744
vt 0.4848 0.6243
vt 0.7648 0.5124
vt 0.7648 0.5119
vt 0.4790 0.5661
vt 0.6597 0.5828
vt 0.7494 0.5828
vt 0.6996 0.8122
vt 0.7382 0.8122
vt 0.0000 0.9039
vt 0.7120 0.5828
vt 0.4285 0.6744
vt 0.6119 0.7705
vt 0.3258 0.9039
vt 0.7326 0.8122
vt 0.2199 0.6744
vn 0.0000 -1.0000 0.0000
vn -0.0000 0.4768 0.8790
vn 1.0000 0.0000 0.0000
vn -0.0000 -0.7703 0.6376
vn 0.0000 -0.0185 -0.9998
vn 0.0000 0.0081 -1.0000
vn -1.0000 -0.0000 -0.0000
vn -0.0000 -0.0000 1.0000
vn -0.9553 0.2955 0.0000
vn 0.0000 0.9449 0.3272
vn -0.0000 0.4533 0.8914
vn 0.0000 1.0000 0.0000
vn -0.0000 -0.7967 -0.6044
vn 0.0000 -0.6099 0.7925
vn -0.0000 -0.9924 -0.1234
vn -0.0000 -0.2671 -0.9637
vn -0.0000 -0.6450 -0.7642
vn -0.0000 -0.8461 -0.5330
vn -0.0000 -0.9899 -0.1421
vn -0.0000 -0.9810 0.1939
vn 0.0000 -0.9745 0.2243
vn 0.0000 -0.9226 0.3857
vn -0.0000 -0.6460 0.7633
vn -0.0000 -0.4589 0.8885
vn 0.0000 -0.4039 -0.9148
vn 0.0000 -0.6582 -0.7529
vn 0.0000 -0.8428 -0.5383
vn 0.0000 -0.9724 -0.2332
vn 0.0000 -0.9977 -0.0685
vn 0.0000 -0.9987 0.0505
vn -0.0000 -0.9699 0.2437
vn 0.0000 -0.9141 0.4055
vn 0.0000 -0.8692 0.4945
vn -0.0000 -0.6524 0.7579
vn -0.0000 -0.5049 0.8632
vn 0.9437 0.2919 -0.1557
vn -0.9437 0.2919 -0.1557
vn -0.1947 -0.0010 0.9809
vn -0.9988 -0.0456 -0.0158
vn -0.9987 -0.0506 -0.0000
vn 0.9988 -0.0456 -0.0158
vn 0.9987 -0.0506 0.0000
vn 0.1947 -0.0010 0.9809
vn 0.9553 0.2955 0.0000
usemtl Material
s off
f 37/1/1 3/2/1 38/3/1
f 66/4/2 6/5/2 65/6/2
f 118/7/3 6/8/3 10/9/3
f 6/5/4 11/10/4 10/11/4
f 9/12/5 4/13/5 12/14/5
f 5/15/6 12/14/6 8/16/6
f 93/17/7 4/18/7 62/19/7
f 10/11/8 3/20/8 2/21/8
f 118/7/3 2/22/3 37/23/3
f 1/24/3 94/25/3 13/26/3
f 94/25/3 14/27/3 13/26/3
f 14/27/3 96/28/3 15/29/3
f 15/29/3 97/30/3 16/31/3
f 16/31/3 98/32/3 17/33/3
f 17/33/3 99/34/3 18/35/3
f 18/35/3 100/36/3 19/37/3
f 100/36/3 20/38/3 19/37/3
f 101/39/3 21/40/3 20/38/3
f 102/41/3 22/42/3 21/40/3
f 103/43/3 23/44/3 22/42/3
f 104/45/3 24/46/3 23/44/3
f 105/47/3 25/48/3 24/46/3
f 106/49/3 26/50/3 25/48/3
f 26/50/3 108/51/3 27/52/3
f 27/52/3 109/53/3 28/54/3
f 28/54/3 110/55/3 29/56/3
f 29/56/3 111/57/3 30/58/3
f 30/58/3 112/59/3 31/60/3
f 112/59/3 32/61/3 31/60/3
f 113/62/3 33/63/3 32/61/3
f 114/64/3 34/65/3 33/63/3
f 115/66/3 35/67/3 34/65/3
f 116/68/3 36/69/3 35/67/3
f 117/70/3 37/23/3 36/69/3
f 11/71/7 38/72/7 3/73/7
f 38/72/7 70/74/7 39/75/7
f 39/75/7 71/76/7 40/77/7
f 40/77/7 72/78/7 41/79/7
f 41/79/7 73/80/7 42/81/7
f 42/81/7 74/82/7 43/83/7
f 43/83/7 75/84/7 44/85/7
f 75/84/7 45/86/7 44/85/7
f 76/87/7 46/88/7 45/86/7
f 77/89/7 47/90/7 46/88/7
f 78/91/7 48/92/7 47/90/7
f 79/93/7 49/94/7 48/92/7
f 81/95/7 49/94/7 80/96/7
f 50/97/7 82/98/7 51/99/7
f 51/99/7 83/100/7 52/101/7
f 52/101/7 84/102/7 53/103/7
f 53/103/7 85/104/7 54/105/7
f 54/105/7 86/106/7 55/107/7
f 86/106/7 56/108/7 55/107/7
f 87/109/7 57/110/7 56/108/7
f 88/111/7 58/112/7 57/110/7
f 89/113/7 59/114/7 58/112/7
f 90/115/7 60/116/7 59/114/7
f 91/117/7 61/118/7 60/116/7
f 61/118/7 93/17/7 62/19/7
f 7/119/7 69/120/7 11/71/7
f 80/96/9 79/93/9 78/91/9 77/89/9 76/87/9 75/84/9 74/82/9 73/80/9 72/78/9 71/76/9 70/74/9 69/120/9 66/121/9
f 68/122/10 5/15/10 8/123/10
f 63/124/11 67/125/11 64/126/11
f 66/127/12 64/128/12 67/129/12
f 1/130/13 62/131/13 4/13/13
f 14/132/14 62/133/14 13/134/14
f 15/135/15 61/136/15 14/137/15
f 15/138/16 59/139/16 60/140/16
f 16/141/17 58/142/17 59/139/17
f 17/143/18 57/144/18 58/142/18
f 18/145/19 56/146/19 57/147/19
f 20/148/1 56/146/1 19/149/1
f 21/150/20 55/151/20 20/152/20
f 21/150/21 53/153/21 54/154/21
f 22/155/22 52/156/22 53/153/22
f 23/157/23 51/158/23 52/156/23
f 24/159/24 50/160/24 51/158/24
f 25/161/1 49/162/1 50/163/1
f 26/164/25 48/165/25 49/166/25
f 28/167/26 48/165/26 27/168/26
f 29/169/27 47/170/27 28/167/27
f 30/171/28 46/172/28 29/169/28
f 31/173/29 45/174/29 30/175/29
f 32/176/30 44/177/30 31/173/30
f 32/178/31 42/179/31 43/180/31
f 33/181/32 41/182/32 42/179/32
f 34/183/33 40/184/33 41/182/33
f 35/185/34 39/186/34 40/184/34
f 36/187/35 38/188/35 39/186/35
f 37/1/1 2/189/1 3/2/1
f 66/4/2 7/190/2 6/5/2
f 118/7/36 65/191/36 6/8/36
f 6/5/4 7/190/4 11/10/4
f 9/12/5 1/130/5 4/13/5
f 5/15/6 9/12/6 12/14/6
f 93/17/7 12/192/7 4/18/7
f 10/11/8 11/10/8 3/20/8
f 118/7/3 10/9/3 2/22/3
f 1/24/3 9/193/3 94/25/3
f 94/25/3 95/194/3 14/27/3
f 14/27/3 95/194/3 96/28/3
f 15/29/3 96/28/3 97/30/3
f 16/31/3 97/30/3 98/32/3
f 17/33/3 98/32/3 99/34/3
f 18/35/3 99/34/3 100/36/3
f 100/36/3 101/39/3 20/38/3
f 101/39/3 102/41/3 21/40/3
f 102/41/3 103/43/3 22/42/3
f 103/43/3 104/45/3 23/44/3
f 104/45/3 105/47/3 24/46/3
f 105/47/3 106/49/3 25/48/3
f 106/49/3 107/195/3 26/50/3
f 26/50/3 107/195/3 108/51/3
f 27/52/3 108/51/3 109/53/3
f 28/54/3 109/53/3 110/55/3
f 29/56/3 110/55/3 111/57/3
f 30/58/3 111/57/3 112/59/3
f 112/59/3 113/62/3 32/61/3
f 113/62/3 114/64/3 33/63/3
f 114/64/3 115/66/3 34/65/3
f 115/66/3 116/68/3 35/67/3
f 116/68/3 117/70/3 36/69/3
f 117/70/3 118/7/3 37/23/3
f 11/71/7 69/120/7 38/72/7
f 38/72/7 69/120/7 70/74/7
f 39/75/7 70/74/7 71/76/7
f 40/77/7 71/76/7 72/78/7
f 41/79/7 72/78/7 73/80/7
f 42/81/7 73/80/7 74/82/7
f 43/83/7 74/82/7 75/84/7
f 75/84/7 76/87/7 45/86/7
f 76/87/7 77/89/7 46/88/7
f 77/89/7 78/91/7 47/90/7
f 78/91/7 79/93/7 48/92/7
f 79/93/7 80/96/7 49/94/7
f 81/95/7 50/97/7 49/94/7
f 50/97/7 81/95/7 82/98/7
f 51/99/7 82/98/7 83/100/7
f 52/101/7 83/100/7 84/102/7
f 53/103/7 84/102/7 85/104/7
f 54/105/7 85/104/7 86/106/7
f 86/106/7 87/109/7 56/108/7
f 87/109/7 88/111/7 57/110/7
f 88/111/7 89/113/7 58/112/7
f 89/113/7 90/115/7 59/114/7
f 90/115/7 91/117/7 60/116/7
f 91/117/7 92/196/7 61/118/7
f 61/118/7 92/196/7 93/17/7
f 7/119/37 66/121/37 69/120/37
f 67/125/9 88/197/9 87/109/9 86/106/9 85/104/9 84/102/9 83/100/9 82/98/9 81/95/9
f 67/198/9 81/95/9 80/96/9
f 67/198/9 80/96/9 66/121/9
f 67/125/38 68/122/38 88/197/38
f 8/199/39 12/192/39 68/200/39
f 90/115/40 89/113/40 88/111/40 68/200/40 12/192/40 93/17/40 92/196/40 91/117/40
f 9/193/41 5/201/41 63/202/41
f 98/32/42 97/30/42 96/28/42 95/194/42 94/25/42 9/193/42 63/202/42 99/34/42
f 99/203/43 63/124/43 64/126/43
f 105/47/44 104/45/44 103/43/44 102/41/44 101/39/44 100/204/44 99/203/44 64/205/44 106/49/44
f 107/195/44 64/205/44 65/191/44
f 106/49/44 64/205/44 107/195/44
f 117/70/44 116/68/44 115/66/44 114/64/44 113/62/44 112/59/44 111/57/44 110/55/44 109/53/44 108/51/44 107/195/44 65/191/44 118/7/44
f 68/122/10 63/124/10 5/15/10
f 63/124/11 68/122/11 67/125/11
f 66/127/12 65/206/12 64/128/12
f 1/130/13 13/207/13 62/131/13
f 14/132/14 61/208/14 62/133/14
f 15/135/15 60/209/15 61/136/15
f 15/138/16 16/141/16 59/139/16
f 16/141/17 17/143/17 58/142/17
f 17/143/18 18/210/18 57/144/18
f 18/145/19 19/149/19 56/146/19
f 20/148/1 55/211/1 56/146/1
f 21/150/20 54/154/20 55/151/20
f 21/150/21 22/155/21 53/153/21
f 22/155/22 23/157/22 52/156/22
f 23/157/23 24/159/23 51/158/23
f 24/159/24 25/212/24 50/160/24
f 25/161/1 26/213/1 49/162/1
f 26/164/25 27/168/25 48/165/25
f 28/167/26 47/170/26 48/165/26
f 29/169/27 46/172/27 47/170/27
f 30/171/28 45/214/28 46/172/28
f 31/173/29 44/177/29 45/174/29
f 32/176/30 43/215/30 44/177/30
f 32/178/31 33/181/31 42/179/31
f 33/181/32 34/183/32 41/182/32
f 34/183/33 35/185/33 40/184/33
f 35/185/34 36/187/34 39/186/34
f 36/187/35 37/216/35 38/188/35
