# Blender v2.78 (sub 0) OBJ File: 'enemycar.blend'
# www.blender.org
mtllib enemycar.mtl
o Cube.002
v -0.112714 0.084846 0.269209
v 0.111396 0.013854 0.355615
v 0.112714 0.084846 0.269209
v 0.176235 -0.032220 0.299952
v -0.176236 -0.032220 0.299952
v 0.176236 -0.032220 -0.234183
v -0.176235 -0.032220 -0.234184
v 0.188125 0.139174 -0.237029
v -0.188125 0.139174 -0.237029
v 0.176236 -0.032220 -0.230750
v 0.176236 -0.032220 -0.217931
v 0.176236 -0.032220 -0.205112
v -0.176235 -0.032220 -0.205112
v -0.176235 -0.032220 -0.217931
v -0.176235 -0.032220 -0.230751
v -0.111397 0.013854 0.355615
v -0.188125 0.132706 -0.202266
v 0.188125 0.132706 -0.202266
v -0.112714 0.084846 -0.192292
v 0.112714 0.084846 -0.192292
vt 0.4105 0.0976
vt 0.6735 0.0002
vt 0.6730 0.0978
vt 0.0755 0.0000
vt 0.4105 0.0594
vt 0.0000 0.0594
vt 0.6102 0.9906
vt 0.4105 0.6017
vt 0.6102 0.5890
vt 0.9591 0.4015
vt 1.0000 0.0001
vt 1.0000 0.4016
vt 0.8646 0.5984
vt 0.8080 0.9195
vt 0.8080 0.6789
vt 0.6735 0.5890
vt 0.4110 0.5888
vt 0.4141 0.0000
vt 0.3350 0.0000
vt 0.4105 0.9780
vt 0.8646 1.0000
vt 0.6735 0.9873
vt 0.0744 0.8137
vt 0.1135 0.6363
vt 0.1155 0.8137
vt 0.0333 0.6363
vt 0.0725 0.8137
vt 0.0313 0.8137
vt 0.6735 0.6111
vt 0.9591 0.0000
vt 0.4105 0.6295
vt 0.0000 0.6295
vt 0.0147 0.6395
vt 0.0000 0.6420
vt 0.1321 0.6395
vt 0.1468 0.6420
vt 0.8163 0.5062
vt 0.9591 0.0000
vt 0.9591 0.5391
vt 0.8163 0.5062
vt 0.6735 0.5391
vt 0.6735 0.0000
vt 0.8985 0.5984
vt 0.8163 0.0136
vt 1.0000 0.5376
vt 1.0000 0.5686
vt 1.0000 0.0000
vt 0.8163 0.0136
vt 0.7341 0.5984
vn 0.0000 0.7727 0.6348
vn 0.0000 -0.7703 0.6376
vn 0.0000 -0.0166 -0.9999
vn 0.0000 0.9831 0.1829
vn 0.0000 0.2040 0.9790
vn 0.0000 1.0000 0.0000
vn -0.1484 -0.0278 0.9885
vn -0.9975 -0.0694 -0.0129
vn 0.9975 -0.0694 -0.0129
vn 0.1484 -0.0278 0.9885
vn 0.0000 -1.0000 -0.0000
vn -0.9519 -0.2253 0.2076
vn 0.9974 -0.0719 -0.0000
vn -0.9974 -0.0719 -0.0000
vn -0.8558 0.4996 0.1343
vn -0.1633 0.9866 0.0000
vn 0.8558 0.4996 0.1343
vn 0.8429 0.5056 0.1838
vn 0.8789 0.4769 0.0000
vn -0.7389 0.5150 0.4344
vn -0.8789 0.4769 0.0000
vn 0.7389 0.5150 0.4344
usemtl None
s 1
f 1/1/1 2/2/1 3/3/1
f 2/4/2 5/5/2 4/6/2
f 8/7/3 7/8/3 9/9/3
f 17/10/4 8/11/4 9/12/4
f 18/13/5 19/14/5 20/15/5
f 1/1/6 20/16/6 19/17/6
f 1/1/1 16/18/1 2/2/1
f 2/4/2 16/19/2 5/5/2
f 8/7/3 6/20/3 7/8/3
f 19/14/7 17/21/7 13/22/7
f 9/23/8 7/24/8 17/25/8
f 6/26/9 8/27/9 18/28/9
f 12/29/10 18/13/10 20/15/10
f 17/10/4 18/30/4 8/11/4
f 18/13/5 17/21/5 19/14/5
f 1/1/6 3/3/6 20/16/6
f 7/31/11 4/6/11 5/5/12
f 7/31/11 6/32/11 4/6/11
f 6/26/13 18/28/13 11/33/13
f 18/28/13 12/34/13 11/33/13
f 14/35/14 13/36/14 17/25/14
f 14/35/14 17/25/14 7/24/14
f 1/37/15 13/38/16 5/39/12
f 3/40/17 4/41/18 12/42/19
f 5/39/12 16/43/20 1/37/15
f 1/37/15 19/44/21 13/38/16
f 13/45/16 7/46/11 5/47/12
f 12/42/19 20/48/19 3/40/17
f 3/40/17 2/49/22 4/41/18
l 14 15
l 10 11
