# Blender v2.78 (sub 0) OBJ File: 'car1.blend'
# www.blender.org
mtllib newcar.mtl
o Cube
v 0.127954 -0.045229 -0.233235
v 0.127954 -0.045229 0.279675
v -0.127949 -0.045229 0.279675
v -0.127949 -0.045229 -0.233235
v 0.127954 0.047721 -0.233234
v 0.084778 0.025236 0.269748
v -0.097276 0.025236 0.269748
v -0.127949 0.047721 -0.233235
v 0.127954 -0.045229 0.238165
v -0.127949 -0.045229 0.238165
v 0.084778 0.040405 0.238165
v -0.084501 0.040405 0.238165
v -0.127949 -0.067601 -0.126153
v -0.084501 0.056138 -0.126153
v 0.127954 -0.067601 -0.126153
v 0.084778 0.056138 -0.126152
v 0.127954 -0.045229 0.148573
v 0.084778 0.044601 0.148573
v -0.127949 -0.045229 0.148573
v -0.084501 0.044601 0.148573
v -0.127949 -0.045229 -0.194688
v -0.084501 0.039291 -0.194688
v 0.127954 -0.045229 -0.194688
v 0.084778 0.039291 -0.194688
v 0.000003 -0.045229 -0.233235
v 0.000003 -0.045229 0.286130
v 0.000003 0.047721 -0.233235
v 0.000003 0.025236 0.286130
v 0.000003 0.040405 0.238165
v 0.000003 -0.045229 0.238165
v 0.000003 -0.067601 -0.126153
v 0.000003 0.056138 -0.126153
v 0.000003 -0.045229 0.148573
v 0.000003 0.044601 0.148573
v 0.000003 0.039291 -0.194688
v 0.000003 -0.045229 -0.194688
v -0.127949 -0.045229 0.075561
v -0.084501 0.088045 0.016699
v 0.127954 -0.045229 0.075562
v 0.084778 0.088045 0.016699
v 0.000003 0.088045 0.075562
v 0.000003 -0.045229 0.075562
v -0.127949 -0.045229 -0.084773
v -0.084501 0.091445 -0.063612
v 0.000003 -0.045229 -0.084773
v 0.127954 -0.045229 -0.084772
v 0.084778 0.091445 -0.063612
v 0.000003 0.091445 -0.047247
v -0.127949 -0.045229 -0.206059
v -0.127949 0.051812 -0.206059
v 0.127954 -0.045229 -0.206059
v 0.127954 0.051812 -0.206059
v 0.000003 -0.045229 -0.206059
v 0.000003 0.051812 -0.206059
v 0.127954 -0.073448 0.166782
v 0.084778 0.043748 0.166782
v -0.127949 -0.073448 0.166782
v -0.084501 0.043748 0.166782
v 0.000003 -0.073448 0.166782
v 0.000003 0.043748 0.166782
v 0.127954 -0.073448 0.218860
v 0.084778 0.041309 0.218860
v 0.000003 0.041309 0.218860
v -0.127949 -0.073448 0.218859
v -0.084501 0.041309 0.218859
v 0.000003 -0.073448 0.218859
v 0.127954 -0.067601 -0.170085
v 0.084778 0.045339 -0.170084
v -0.127949 -0.067601 -0.170085
v -0.084501 0.045339 -0.170085
v 0.000003 0.045339 -0.170084
v 0.000003 -0.067601 -0.170085
v -0.127949 -0.045229 -0.105159
v -0.084501 0.074050 -0.105159
v 0.000003 -0.045229 -0.105159
v 0.127954 -0.045229 -0.105159
v 0.084778 0.074050 -0.105159
v 0.000003 0.074050 -0.105159
vt 0.3282 0.7500
vt 0.3109 0.5000
vt 0.3282 0.5000
vt 0.1821 0.2500
vt 0.2115 0.0000
vt 0.2112 0.2500
vt 0.5454 0.2670
vt 0.5585 0.1294
vt 0.5626 0.2670
vt 0.3498 0.0000
vt 0.3497 0.2500
vt 0.5513 0.5892
vt 0.5626 0.4076
vt 0.5626 0.5892
vt 0.1821 0.2500
vt 0.0000 0.0000
vt 0.1821 0.0000
vt 0.3539 0.4515
vt 0.3670 0.5892
vt 0.3498 0.5892
vt 0.5374 0.0980
vt 0.5374 0.3222
vt 0.1718 0.5000
vt 0.1800 0.7500
vt 0.1718 0.7500
vt 0.9174 0.2500
vt 0.9731 0.0000
vt 0.9731 0.2500
vt 0.2900 0.7500
vt 0.3083 0.5000
vt 0.3083 0.7500
vt 0.6572 0.5000
vt 0.6345 0.2500
vt 0.6572 0.2500
vt 0.3760 0.0901
vt 0.3942 0.3108
vt 0.3760 0.3108
vt 0.5095 0.5892
vt 0.5182 0.3912
vt 0.5182 0.6329
vt 0.3966 0.4154
vt 0.4042 0.5892
vt 0.3966 0.6444
vt 0.6698 0.2500
vt 0.7001 0.0000
vt 0.7001 0.2500
vt 0.7751 0.2500
vt 0.8595 0.0000
vt 0.8595 0.2500
vt 0.4779 0.2670
vt 0.5082 0.0915
vt 0.5082 0.2670
vt 0.3611 0.2670
vt 0.3658 0.1019
vt 0.3658 0.2670
vt 0.9731 0.0000
vt 0.9975 0.2500
vt 0.9731 0.2500
vt 0.2900 0.7500
vt 0.2853 1.0000
vt 0.2853 0.7500
vt 0.5364 0.4123
vt 0.5466 0.5892
vt 0.5364 0.6329
vt 0.2900 0.5000
vt 0.2853 0.5000
vt 0.9975 0.5000
vt 0.9731 0.5000
vt 0.8595 0.5000
vt 0.7760 0.5000
vt 0.6698 0.5000
vt 0.7001 0.5000
vt 0.6345 0.0000
vt 0.6572 0.0000
vt 0.2900 1.0000
vt 0.3083 1.0000
vt 0.9174 0.5000
vt 0.9731 0.5000
vt 0.1800 1.0000
vt 0.1718 1.0000
vt 0.0000 0.5000
vt 0.1821 0.5000
vt 0.3498 0.5000
vt 0.2115 0.5000
vt 0.1821 0.5000
vt 0.3109 1.0000
vt 0.3282 1.0000
vt 0.7667 0.2500
vt 0.7667 0.5000
vt 0.9107 0.2500
vt 0.8834 0.0000
vt 0.9174 0.0000
vt 0.4114 0.2670
vt 0.4535 0.0066
vt 0.8834 0.5000
vt 0.8595 0.2500
vt 0.7667 0.0000
vt 0.4042 0.4137
vt 0.4345 0.5892
vt 0.7751 0.0000
vt 0.7751 0.2500
vt 0.5987 0.2500
vt 0.5632 0.5000
vt 0.5626 0.2500
vt 0.4029 0.0340
vt 0.4029 0.2670
vt 0.5632 0.0000
vt 0.5987 0.0000
vt 0.7751 0.5000
vt 0.4589 0.3288
vt 0.5010 0.5892
vt 0.2646 0.7500
vt 0.2740 1.0000
vt 0.2646 1.0000
vt 0.2740 0.7500
vt 0.2740 0.5000
vt 0.2740 1.0000
vt 0.2646 0.5000
vt 0.2740 0.7500
vt 0.3498 0.0854
vt 0.3498 0.2670
vt 0.5466 0.4241
vt 0.1419 0.7500
vt 0.1496 1.0000
vt 0.1419 1.0000
vt 0.0547 0.5000
vt 0.0000 0.7500
vt 0.0000 0.5000
vt 0.3750 0.4201
vt 0.3750 0.6444
vt 0.0547 0.7500
vt 0.0000 1.0000
vt 0.1419 0.5000
vt 0.1496 0.7500
vt 0.5158 0.0932
vt 0.5158 0.3222
vt 0.3282 0.5000
vt 0.3498 0.7500
vt 0.3282 0.7500
vt 0.3282 1.0000
vt 0.1496 0.5000
vt 0.1419 0.5000
vt 0.0989 0.7500
vt 0.0989 0.5000
vt 0.6698 0.2500
vt 0.6698 0.0000
vt 0.6698 0.5000
vt 0.1419 0.7500
vt 0.0989 1.0000
vt 0.0547 1.0000
vt 0.0989 0.7500
vt 0.0989 1.0000
vt 0.3942 0.0690
vt 0.6345 0.5000
vt 0.0547 0.7500
vt 0.0989 0.5000
vt 0.5095 0.3562
vt 0.3083 0.7500
vt 0.1821 0.0000
vt 0.5454 0.0997
vt 0.5513 0.3996
vt 0.0000 0.2500
vt 0.3670 0.4219
vt 0.1800 0.5000
vt 0.9174 0.0000
vt 0.2900 0.5000
vt 0.6698 0.0000
vt 0.7760 0.0000
vt 0.3611 0.0774
vt 0.9975 0.0000
vt 0.2900 1.0000
vt 0.4202 0.0000
vt 0.9174 0.5000
vt 0.5987 0.5000
vt 0.4922 0.3222
vt 0.2740 0.5000
vt 0.0547 1.0000
vt 0.3498 0.5000
vt 0.3498 1.0000
vt 0.1419 1.0000
vt 0.0547 0.5000
vn 0.0000 -1.0000 0.0000
vn -0.0507 0.9522 0.3012
vn 0.8527 0.5225 0.0000
vn -0.0504 0.0000 0.9987
vn -1.0000 0.0000 0.0000
vn 0.0000 0.0000 -1.0000
vn -0.9169 0.3991 0.0000
vn 0.8322 0.3131 -0.4577
vn -0.0000 0.9989 0.0468
vn 0.0000 -0.5646 0.8253
vn 0.0000 0.9711 -0.2387
vn 0.9341 0.3571 0.0000
vn -0.8897 0.3124 -0.3329
vn -0.8255 0.3060 0.4743
vn -0.0000 0.8594 0.5114
vn 0.9013 0.4332 0.0000
vn 0.8905 0.4549 0.0000
vn 0.0000 0.6723 0.7403
vn -0.8872 0.3413 0.3104
vn 0.2123 0.9281 0.3058
vn 0.0504 0.0000 0.9987
vn 0.0000 0.9014 0.4330
vn 0.0082 0.9991 0.0423
vn 0.9513 0.3082 0.0000
vn -0.0193 0.9994 0.0277
vn -0.9002 0.4354 0.0000
vn 0.0556 0.9562 -0.2872
vn 0.9403 0.3404 0.0000
vn 0.0000 0.9224 -0.3862
vn -0.9508 0.3099 0.0000
vn 0.0000 0.9889 -0.1489
vn 1.0000 0.0000 0.0000
vn -0.8894 0.4572 0.0000
vn 0.0000 -0.5422 -0.8402
vn -0.9352 0.3541 0.0000
vn 0.8271 0.3047 0.4722
vn -0.8306 0.3145 -0.4596
vn 0.9359 0.3521 0.0000
vn 0.0000 -0.7399 -0.6728
vn -0.9333 0.3590 0.0000
vn 0.8884 0.3396 0.3088
vn 0.0000 -0.6843 0.7292
vn 0.0000 0.7607 -0.6491
vn 0.8909 0.3109 -0.3313
vn -0.9396 0.3423 0.0000
vn 0.8728 0.4400 0.2114
vn -0.1625 0.2066 0.9648
vn -0.8828 0.4479 -0.1419
vn 0.8927 0.4501 0.0211
vn 0.9411 0.3284 -0.0807
vn -0.9019 0.3285 -0.2803
vn -0.9000 0.4353 0.0204
vn -0.2130 0.9280 0.3057
vn 0.9287 0.3521 0.1160
vn 0.2547 0.0000 0.9670
vn -0.8838 0.4543 -0.1117
vn 0.1839 0.2467 0.9515
vn 0.0582 0.9518 0.3010
vn 0.0192 0.9994 0.0277
vn 0.9540 0.2994 0.0127
vn -0.0082 0.9991 0.0423
vn -0.9279 0.3540 0.1166
vn 0.9390 0.3172 -0.1328
vn -0.0554 0.9563 -0.2872
vn -0.9535 0.3011 0.0127
vn -0.2532 -0.0000 0.9674
vn -0.9375 0.3476 0.0163
vn 0.9011 0.4331 0.0203
vn -0.8916 0.4524 0.0212
vn 0.9382 0.3457 0.0162
vn -0.9404 0.3302 -0.0812
vn 0.8850 0.4521 -0.1111
vn 0.9030 0.3269 -0.2789
vn -0.9383 0.3190 -0.1335
usemtl Material
s off
f 30/1/1 3/2/1 10/3/1
f 29/4/2 7/5/2 28/6/2
f 9/7/3 6/8/3 2/9/3
f 28/6/4 3/10/4 26/11/4
f 49/12/5 8/13/5 4/14/5
f 27/15/6 4/16/6 8/17/6
f 7/18/7 10/19/7 3/20/7
f 62/21/8 9/7/8 61/22/8
f 65/23/9 29/24/9 63/25/9
f 30/26/10 64/27/10 66/28/10
f 31/29/1 69/30/1 72/31/1
f 70/32/11 32/33/11 71/34/11
f 68/35/12 15/36/12 67/37/12
f 73/38/13 14/39/13 13/40/13
f 58/41/14 19/42/14 57/43/14
f 33/44/1 37/45/1 42/46/1
f 41/47/15 20/48/15 34/49/15
f 39/50/16 18/51/16 17/52/16
f 51/53/17 24/54/17 23/55/17
f 50/56/18 35/57/18 54/58/18
f 36/59/1 49/60/1 53/61/1
f 70/62/19 21/63/19 69/64/19
f 23/65/1 53/61/1 51/66/1
f 54/58/18 24/67/18 52/68/18
f 41/47/20 18/69/20 40/70/20
f 17/71/1 42/46/1 39/72/1
f 71/34/11 16/73/11 68/74/11
f 15/75/1 72/31/1 67/76/1
f 9/77/10 66/28/10 61/78/10
f 63/25/9 11/79/9 62/80/9
f 1/81/6 27/15/6 5/82/6
f 2/83/21 28/6/21 26/11/21
f 29/4/22 6/84/22 11/85/22
f 2/86/1 30/1/1 9/87/1
f 39/72/1 45/88/1 46/89/1
f 48/90/23 40/91/23 47/92/23
f 46/93/24 40/94/24 39/50/24
f 48/90/25 38/95/25 41/96/25
f 42/46/1 43/97/1 45/88/1
f 20/98/26 37/99/26 19/42/26
f 45/88/1 73/100/1 75/101/1
f 78/102/27 44/103/27 48/104/27
f 77/105/28 46/93/28 76/106/28
f 78/102/29 47/107/29 77/108/29
f 46/89/1 75/101/1 76/109/1
f 38/110/30 43/111/30 37/99/30
f 27/112/31 52/113/31 5/114/31
f 51/66/1 25/115/1 1/116/1
f 53/61/1 4/117/1 25/115/1
f 8/118/31 54/119/31 27/112/31
f 5/120/32 51/53/32 1/121/32
f 22/122/33 49/12/33 21/63/33
f 34/123/9 56/124/9 18/125/9
f 55/126/34 33/127/34 17/128/34
f 65/129/35 57/43/35 64/130/35
f 59/131/34 19/132/34 33/127/34
f 20/133/9 60/134/9 34/123/9
f 17/52/36 56/135/36 55/136/36
f 10/19/37 65/129/37 64/130/37
f 60/134/9 62/80/9 56/124/9
f 55/137/1 66/138/1 59/139/1
f 66/138/1 57/140/1 59/139/1
f 58/141/9 63/25/9 60/134/9
f 55/136/38 62/21/38 61/22/38
f 67/142/39 36/143/39 23/144/39
f 35/145/11 68/74/11 24/146/11
f 13/40/40 70/62/40 69/64/40
f 23/55/41 68/35/41 67/37/41
f 22/147/11 71/34/11 35/145/11
f 72/148/39 21/149/39 36/143/39
f 76/150/42 31/151/42 15/152/42
f 32/33/43 77/108/43 16/73/43
f 16/153/44 76/106/44 15/36/44
f 14/154/43 78/102/43 32/33/43
f 75/155/42 13/156/42 31/151/42
f 43/111/45 74/157/45 73/38/45
f 30/1/1 26/158/1 3/2/1
f 29/4/22 12/159/22 7/5/22
f 9/7/46 11/160/46 6/8/46
f 28/6/47 7/5/47 3/10/47
f 49/12/5 50/161/5 8/13/5
f 27/15/6 25/162/6 4/16/6
f 7/18/48 12/163/48 10/19/48
f 62/21/49 11/160/49 9/7/49
f 65/23/9 12/164/9 29/24/9
f 30/26/10 10/165/10 64/27/10
f 31/29/1 13/166/1 69/30/1
f 70/32/11 14/154/11 32/33/11
f 68/35/50 16/153/50 15/36/50
f 73/38/51 74/157/51 14/39/51
f 58/41/52 20/98/52 19/42/52
f 33/44/1 19/167/1 37/45/1
f 41/47/53 38/168/53 20/48/53
f 39/50/54 40/94/54 18/51/54
f 51/53/55 52/169/55 24/54/55
f 50/56/18 22/170/18 35/57/18
f 36/59/1 21/171/1 49/60/1
f 70/62/56 22/122/56 21/63/56
f 23/65/1 36/59/1 53/61/1
f 54/58/18 35/57/18 24/67/18
f 41/47/15 34/49/15 18/69/15
f 17/71/1 33/44/1 42/46/1
f 71/34/11 32/33/11 16/73/11
f 15/75/1 31/29/1 72/31/1
f 9/77/10 30/26/10 66/28/10
f 63/25/9 29/24/9 11/79/9
f 1/81/6 25/162/6 27/15/6
f 2/83/57 6/84/57 28/6/57
f 29/4/58 28/6/58 6/84/58
f 2/86/1 26/158/1 30/1/1
f 39/72/1 42/46/1 45/88/1
f 48/90/59 41/96/59 40/91/59
f 46/93/60 47/172/60 40/94/60
f 48/90/61 44/173/61 38/95/61
f 42/46/1 37/45/1 43/97/1
f 20/98/62 38/110/62 37/99/62
f 45/88/1 43/97/1 73/100/1
f 78/102/29 74/174/29 44/103/29
f 77/105/63 47/172/63 46/93/63
f 78/102/64 48/104/64 47/107/64
f 46/89/1 45/88/1 75/101/1
f 38/110/65 44/175/65 43/111/65
f 27/112/31 54/119/31 52/113/31
f 51/66/1 53/61/1 25/115/1
f 53/61/1 49/60/1 4/117/1
f 8/118/31 50/176/31 54/119/31
f 5/120/32 52/169/32 51/53/32
f 22/122/66 50/161/66 49/12/66
f 34/123/9 60/134/9 56/124/9
f 55/126/34 59/131/34 33/127/34
f 65/129/67 58/41/67 57/43/67
f 59/131/34 57/177/34 19/132/34
f 20/133/9 58/141/9 60/134/9
f 17/52/68 18/51/68 56/135/68
f 10/19/69 12/163/69 65/129/69
f 60/134/9 63/25/9 62/80/9
f 55/137/1 61/178/1 66/138/1
f 66/138/1 64/179/1 57/140/1
f 58/141/9 65/23/9 63/25/9
f 55/136/70 56/135/70 62/21/70
f 67/142/39 72/148/39 36/143/39
f 35/145/11 71/34/11 68/74/11
f 13/40/71 14/39/71 70/62/71
f 23/55/72 24/54/72 68/35/72
f 22/147/11 70/32/11 71/34/11
f 72/148/39 69/180/39 21/149/39
f 76/150/42 75/155/42 31/151/42
f 32/33/43 78/102/43 77/108/43
f 16/153/73 77/105/73 76/106/73
f 14/154/43 74/174/43 78/102/43
f 75/155/42 73/181/42 13/156/42
f 43/111/74 44/175/74 74/157/74
