# Blender v2.78 (sub 0) OBJ File: 'car1.blend'
# www.blender.org
mtllib newcar.mtl
o Cube
v 0.127954 -0.045229 -0.233235
v 0.127954 -0.045229 0.273794
v -0.127949 -0.045229 0.273794
v -0.127949 -0.045229 -0.233235
v 0.127954 0.047721 -0.233234
v 0.084778 0.025236 0.263868
v -0.097276 0.025236 0.263868
v -0.127949 0.047721 -0.233235
v 0.127954 -0.045229 0.238165
v -0.127949 -0.045229 0.238165
v 0.084778 0.040405 0.238165
v -0.084501 0.040405 0.238165
v -0.127949 -0.084788 -0.126153
v -0.084501 0.056138 -0.126153
v 0.127954 -0.084788 -0.126153
v 0.084778 0.056138 -0.126152
v 0.127954 -0.025939 0.148573
v 0.084778 0.044601 0.148573
v -0.127949 -0.025939 0.148573
v -0.084501 0.044601 0.148573
v -0.127949 -0.045229 -0.194688
v -0.084501 0.039291 -0.194688
v 0.127954 -0.045229 -0.194688
v 0.084778 0.039291 -0.194688
v 0.000003 -0.045229 -0.233235
v 0.000003 -0.045229 0.308561
v 0.000003 0.047721 -0.233235
v 0.000003 0.025236 0.280249
v 0.000003 0.040405 0.238165
v 0.000003 -0.045229 0.238165
v 0.000003 -0.053974 -0.126153
v 0.000003 0.056138 -0.126153
v 0.000003 -0.025939 0.148573
v 0.000003 0.044601 0.148573
v 0.000003 0.039291 -0.194688
v 0.000003 -0.045229 -0.194688
v -0.127949 -0.025939 0.075561
v -0.084501 0.088045 0.016699
v 0.127954 -0.025939 0.075562
v 0.084778 0.088045 0.016699
v 0.000003 0.088045 0.075562
v 0.000003 -0.025939 0.075562
v -0.127949 -0.025939 -0.084773
v -0.084501 0.091445 -0.063612
v 0.000003 -0.025939 -0.084773
v 0.127954 -0.025939 -0.084772
v 0.084778 0.091445 -0.063612
v 0.000003 0.091445 -0.047247
v -0.127949 -0.045229 -0.206059
v -0.127949 0.051812 -0.206059
v 0.127954 -0.045229 -0.206059
v 0.127954 0.051812 -0.206059
v 0.000003 -0.045229 -0.206059
v 0.000003 0.051812 -0.206059
v 0.127954 -0.069713 0.166782
v 0.084778 0.043748 0.166782
v -0.127949 -0.069713 0.166782
v -0.084501 0.043748 0.166782
v 0.000003 -0.050081 0.166782
v 0.000003 0.043748 0.166782
v 0.127954 -0.078696 0.218860
v 0.084778 0.041309 0.218860
v 0.000003 0.041309 0.218860
v -0.127949 -0.078696 0.218859
v -0.084501 0.041309 0.218859
v 0.000003 -0.059064 0.218859
v 0.127954 -0.086431 -0.170085
v 0.084778 0.045339 -0.170084
v -0.127949 -0.086431 -0.170085
v -0.084501 0.045339 -0.170085
v 0.000003 0.045339 -0.170084
v 0.000003 -0.055616 -0.170085
v -0.127949 -0.045229 -0.105159
v -0.084501 0.074050 -0.105159
v 0.000003 -0.045229 -0.105159
v 0.127954 -0.045229 -0.105159
v 0.084778 0.074050 -0.105159
v 0.000003 0.074050 -0.105159
v -0.127949 -0.086751 0.212350
v -0.127949 -0.091081 0.205840
v -0.127949 -0.093080 0.199331
v -0.127949 -0.093080 0.192821
v -0.127949 -0.092049 0.186311
v -0.127949 -0.087729 0.179802
v -0.127949 -0.081156 0.173292
v -0.084501 0.041614 0.212350
v -0.084501 0.041919 0.205840
v -0.084501 0.042224 0.199331
v -0.084501 0.042529 0.192821
v -0.084501 0.042834 0.186311
v -0.084501 0.043139 0.179802
v -0.084501 0.043443 0.173292
v 0.000003 -0.067119 0.212350
v 0.000003 -0.071449 0.205840
v 0.000003 -0.073448 0.199331
v 0.000003 -0.073448 0.192821
v 0.000003 -0.072417 0.186311
v 0.000003 -0.068097 0.179802
v 0.000003 -0.061525 0.173292
v 0.127954 -0.081156 0.173292
v 0.127954 -0.087729 0.179802
v 0.127954 -0.092049 0.186311
v 0.127954 -0.093080 0.192821
v 0.127954 -0.093080 0.199331
v 0.127954 -0.091081 0.205840
v 0.127954 -0.086751 0.212350
v 0.084778 0.043443 0.173292
v 0.084778 0.043138 0.179802
v 0.084778 0.042833 0.186311
v 0.084778 0.042528 0.192821
v 0.084778 0.042223 0.199331
v 0.084778 0.041919 0.205840
v 0.084778 0.041614 0.212350
v 0.000003 0.043443 0.173292
v 0.000003 0.043138 0.179802
v 0.000003 0.042833 0.186311
v 0.000003 0.042528 0.192821
v 0.000003 0.042223 0.199331
v 0.000003 0.041919 0.205840
v 0.000003 0.041614 0.212350
v 0.127954 -0.094189 -0.163809
v 0.127954 -0.096608 -0.157533
v 0.127954 -0.098416 -0.151257
v 0.127954 -0.098416 -0.144980
v 0.127954 -0.096013 -0.138704
v 0.127954 -0.091783 -0.132429
v 0.084778 0.046881 -0.163808
v 0.084778 0.048424 -0.157532
v 0.084778 0.049967 -0.151256
v 0.084778 0.051509 -0.144980
v 0.084778 0.053052 -0.138704
v 0.084778 0.054595 -0.132428
v 0.000003 0.046881 -0.163808
v 0.000003 0.048424 -0.157532
v 0.000003 0.049967 -0.151256
v 0.000003 0.051509 -0.144980
v 0.000003 0.053052 -0.138704
v 0.000003 0.054595 -0.132429
v -0.127949 -0.091783 -0.132429
v -0.127949 -0.096013 -0.138705
v -0.127949 -0.098416 -0.144981
v -0.127949 -0.098416 -0.151257
v -0.127949 -0.096608 -0.157533
v -0.127949 -0.094189 -0.163809
v -0.084501 0.054595 -0.132429
v -0.084501 0.053052 -0.138705
v -0.084501 0.051510 -0.144981
v -0.084501 0.049967 -0.151257
v -0.084501 0.048424 -0.157533
v -0.084501 0.046881 -0.163809
v 0.000003 -0.060968 -0.132429
v 0.000003 -0.065199 -0.138705
v 0.000003 -0.067601 -0.144981
v 0.000003 -0.067601 -0.151257
v 0.000003 -0.065794 -0.157533
v 0.000003 -0.063375 -0.163809
vt 0.3282 0.7500
vt 0.3109 0.5000
vt 0.3282 0.5000
vt 0.1821 0.2500
vt 0.2115 0.0000
vt 0.2112 0.2500
vt 0.5454 0.2670
vt 0.5585 0.1294
vt 0.5626 0.2670
vt 0.3498 0.0000
vt 0.3497 0.2500
vt 0.5513 0.5892
vt 0.5626 0.4076
vt 0.5626 0.5892
vt 0.1821 0.2500
vt 0.0000 0.0000
vt 0.1821 0.0000
vt 0.3539 0.4515
vt 0.3670 0.5892
vt 0.3498 0.5892
vt 0.5374 0.0980
vt 0.5374 0.3222
vt 0.1718 0.5000
vt 0.1800 0.7500
vt 0.1718 0.7500
vt 0.9174 0.2500
vt 0.9731 0.0000
vt 0.9731 0.2500
vt 0.5158 0.3222
vt 0.5185 0.0938
vt 0.5185 0.3222
vt 0.6345 0.2500
vt 0.6377 0.0000
vt 0.6377 0.2500
vt 0.3057 0.7500
vt 0.3083 1.0000
vt 0.3057 1.0000
vt 0.5095 0.5892
vt 0.5182 0.3912
vt 0.5182 0.6329
vt 0.3966 0.4154
vt 0.4042 0.5892
vt 0.3966 0.6444
vt 0.6698 0.2500
vt 0.7001 0.0000
vt 0.7001 0.2500
vt 0.7751 0.2500
vt 0.8595 0.0000
vt 0.8595 0.2500
vt 0.4779 0.2670
vt 0.5082 0.0915
vt 0.5082 0.2670
vt 0.3611 0.2670
vt 0.3658 0.1019
vt 0.3658 0.2670
vt 0.9731 0.0000
vt 0.9975 0.2500
vt 0.9731 0.2500
vt 0.2900 0.7500
vt 0.2853 1.0000
vt 0.2853 0.7500
vt 0.5364 0.4123
vt 0.5466 0.5892
vt 0.5364 0.6329
vt 0.2900 0.5000
vt 0.2853 0.5000
vt 0.9975 0.5000
vt 0.9731 0.5000
vt 0.8595 0.5000
vt 0.7760 0.5000
vt 0.6698 0.5000
vt 0.7001 0.5000
vt 0.3916 0.0720
vt 0.3942 0.3108
vt 0.3916 0.3108
vt 0.3083 0.5000
vt 0.3083 0.7500
vt 0.9174 0.5000
vt 0.9731 0.5000
vt 0.1800 1.0000
vt 0.1718 1.0000
vt 0.0000 0.5000
vt 0.1821 0.5000
vt 0.3498 0.5000
vt 0.2115 0.5000
vt 0.1821 0.5000
vt 0.3109 1.0000
vt 0.3282 1.0000
vt 0.7667 0.2500
vt 0.7667 0.5000
vt 0.9107 0.2500
vt 0.8834 0.0000
vt 0.9174 0.0000
vt 0.4114 0.2670
vt 0.4535 0.0066
vt 0.8834 0.5000
vt 0.8595 0.2500
vt 0.7667 0.0000
vt 0.4042 0.4137
vt 0.4345 0.5892
vt 0.7751 0.0000
vt 0.7751 0.2500
vt 0.5987 0.2500
vt 0.5632 0.5000
vt 0.5626 0.2500
vt 0.4029 0.0340
vt 0.4029 0.2670
vt 0.5632 0.0000
vt 0.5987 0.0000
vt 0.7751 0.5000
vt 0.4589 0.3288
vt 0.5010 0.5892
vt 0.2646 0.7500
vt 0.2740 1.0000
vt 0.2646 1.0000
vt 0.2740 0.7500
vt 0.2740 0.5000
vt 0.2740 1.0000
vt 0.2646 0.5000
vt 0.2740 0.7500
vt 0.3498 0.0854
vt 0.3498 0.2670
vt 0.5466 0.4241
vt 0.1419 0.7500
vt 0.1496 1.0000
vt 0.1419 1.0000
vt 0.0547 0.5000
vt 0.0000 0.7500
vt 0.0000 0.5000
vt 0.1690 0.5000
vt 0.1690 0.7500
vt 0.0547 0.7500
vt 0.0000 1.0000
vt 0.1419 0.5000
vt 0.1496 0.7500
vt 0.5158 0.0932
vt 0.3750 0.4201
vt 0.3750 0.6444
vt 0.5338 0.4093
vt 0.5338 0.6329
vt 0.3309 0.7500
vt 0.3282 1.0000
vt 0.3282 0.7500
vt 0.3939 0.4160
vt 0.3939 0.6444
vt 0.1690 1.0000
vt 0.3498 0.5000
vt 0.3471 0.7500
vt 0.3471 0.5000
vt 0.1419 0.5000
vt 0.0989 0.7500
vt 0.0989 0.5000
vt 0.6698 0.2500
vt 0.6572 0.0000
vt 0.6698 0.0000
vt 0.6377 0.5000
vt 0.3760 0.0901
vt 0.3760 0.3108
vt 0.6698 0.5000
vt 0.6572 0.2500
vt 0.1419 0.7500
vt 0.0989 1.0000
vt 0.0547 1.0000
vt 0.0989 0.7500
vt 0.0989 1.0000
vt 0.6345 0.0000
vt 0.3942 0.0690
vt 0.6345 0.5000
vt 0.0547 0.7500
vt 0.0989 0.5000
vt 0.5095 0.3562
vt 0.3083 0.7500
vt 0.1821 0.0000
vt 0.5454 0.0997
vt 0.5513 0.3996
vt 0.0000 0.2500
vt 0.3670 0.4219
vt 0.1800 0.5000
vt 0.9174 0.0000
vt 0.5212 0.0944
vt 0.5212 0.3222
vt 0.5293 0.0962
vt 0.5320 0.3222
vt 0.5293 0.3222
vt 0.5239 0.3222
vt 0.5266 0.0956
vt 0.5266 0.3222
vt 0.6698 0.0000
vt 0.7760 0.0000
vt 0.3611 0.0774
vt 0.9975 0.0000
vt 0.2900 1.0000
vt 0.5239 0.0950
vt 0.4202 0.0000
vt 0.9174 0.5000
vt 0.5987 0.5000
vt 0.4922 0.3222
vt 0.2740 0.5000
vt 0.3336 0.5000
vt 0.3363 0.7500
vt 0.3336 0.7500
vt 0.0547 1.0000
vt 0.1496 0.5000
vt 0.3282 0.5000
vt 0.3417 0.5000
vt 0.3390 0.7500
vt 0.3390 0.5000
vt 0.3363 0.5000
vt 0.3309 0.5000
vt 0.3444 0.5000
vt 0.3417 0.7500
vt 0.5320 0.0968
vt 0.5347 0.3222
vt 0.6572 0.5000
vt 0.1419 1.0000
vt 0.0547 0.5000
vt 0.5347 0.0974
vt 0.3444 0.7500
vt 0.1524 0.7500
vt 0.1552 0.7500
vt 0.1524 1.0000
vt 0.1579 0.7500
vt 0.1552 1.0000
vt 0.1607 0.7500
vt 0.1579 1.0000
vt 0.1635 0.7500
vt 0.1607 1.0000
vt 0.1662 0.7500
vt 0.1635 1.0000
vt 0.1662 1.0000
vt 0.3777 0.4195
vt 0.3804 0.4189
vt 0.3777 0.6444
vt 0.3831 0.4184
vt 0.3804 0.6444
vt 0.3858 0.6444
vt 0.3831 0.6444
vt 0.3858 0.4178
vt 0.3885 0.6444
vt 0.3885 0.4172
vt 0.3912 0.6444
vt 0.3912 0.4166
vt 0.3498 1.0000
vt 0.3498 0.7500
vt 0.3471 1.0000
vt 0.3444 1.0000
vt 0.3417 1.0000
vt 0.3363 1.0000
vt 0.3336 1.0000
vt 0.3309 1.0000
vt 0.1524 0.5000
vt 0.1552 0.5000
vt 0.1579 0.5000
vt 0.1607 0.5000
vt 0.1662 0.5000
vt 0.1635 0.5000
vt 0.6539 0.5000
vt 0.6507 0.2500
vt 0.6539 0.2500
vt 0.6507 0.5000
vt 0.6474 0.2500
vt 0.6474 0.5000
vt 0.6442 0.2500
vt 0.6442 0.5000
vt 0.6410 0.2500
vt 0.6410 0.5000
vt 0.5208 0.3942
vt 0.5208 0.6329
vt 0.5234 0.3972
vt 0.5234 0.6329
vt 0.5260 0.4002
vt 0.5260 0.6329
vt 0.5286 0.4032
vt 0.5286 0.6329
vt 0.5312 0.6329
vt 0.5312 0.4062
vt 0.2900 0.5000
vt 0.2926 0.7500
vt 0.2900 0.7500
vt 0.2926 0.5000
vt 0.2952 0.7500
vt 0.2952 0.5000
vt 0.2978 0.7500
vt 0.2978 0.5000
vt 0.3005 0.7500
vt 0.3031 0.5000
vt 0.3031 0.7500
vt 0.3057 0.5000
vt 0.3786 0.0871
vt 0.3812 0.0841
vt 0.3786 0.3108
vt 0.3838 0.0810
vt 0.3812 0.3108
vt 0.3864 0.3108
vt 0.3838 0.3108
vt 0.3864 0.0780
vt 0.3890 0.3108
vt 0.3890 0.0750
vt 0.2900 1.0000
vt 0.2926 1.0000
vt 0.2952 1.0000
vt 0.2978 1.0000
vt 0.3005 1.0000
vt 0.3031 1.0000
vt 0.6539 0.0000
vt 0.6507 0.0000
vt 0.6474 0.0000
vt 0.6442 0.0000
vt 0.6410 0.0000
vt 0.3390 1.0000
vt 0.3005 0.5000
vn 0.0000 -1.0000 0.0000
vn -0.0570 0.9392 0.3385
vn 0.8527 0.5225 0.0000
vn -0.2445 0.3615 0.8997
vn -1.0000 0.0000 0.0000
vn 0.0000 0.0000 -1.0000
vn -0.9169 0.3991 0.0000
vn 0.8115 0.2920 -0.5062
vn -0.0000 0.9989 0.0468
vn 0.1238 -0.8066 0.5780
vn 0.8189 0.2838 0.4989
vn 0.0000 0.9711 -0.2388
vn -0.1498 -0.6218 -0.7687
vn -0.8355 0.2576 -0.4854
vn -0.7082 0.2712 0.6519
vn -0.0000 0.8594 0.5114
vn 0.8529 0.5221 0.0000
vn 0.8905 0.4549 0.0000
vn 0.0000 0.6723 0.7403
vn -0.8411 0.2773 0.4644
vn 0.2123 0.9281 0.3058
vn 0.9148 0.2698 -0.3007
vn 0.1498 -0.6218 -0.7687
vn -0.0764 -0.4982 0.8637
vn 0.2445 0.3615 0.8997
vn 0.0000 0.8612 0.5083
vn 0.0082 0.9991 0.0423
vn 0.9352 0.3542 0.0000
vn -0.0193 0.9994 0.0277
vn -0.8515 0.5244 0.0000
vn 0.0000 -0.7264 0.6873
vn 0.0556 0.9562 -0.2872
vn 0.8950 0.3240 -0.3066
vn 0.0000 0.9224 -0.3862
vn -0.9344 0.3562 0.0000
vn 0.0000 0.9889 -0.1489
vn 1.0000 0.0000 0.0000
vn -0.8894 0.4572 0.0000
vn 0.0000 -0.3841 -0.9233
vn 0.0000 -0.6022 -0.7984
vn 0.7104 0.2703 0.6498
vn -0.8098 0.2932 -0.5082
vn -0.8981 0.2766 0.3419
vn 0.0756 -0.4930 -0.8667
vn -0.8172 0.2850 0.5010
vn -0.0960 -0.6257 0.7742
vn 0.0000 -0.5127 -0.8586
vn 0.0000 0.9711 -0.2387
vn 0.8426 0.2761 0.4624
vn 0.0000 -0.9213 -0.3889
vn -0.1122 -0.4658 0.8777
vn 0.0000 0.7607 -0.6491
vn 0.8371 0.2565 -0.4833
vn 0.2170 -0.9011 0.3754
vn -0.8939 0.3256 -0.3081
vn 0.8630 0.4351 0.2568
vn -0.1625 0.2066 0.9648
vn -0.8783 0.4456 -0.1735
vn 0.8927 0.4501 0.0211
vn 0.0000 -0.4997 0.8662
vn 0.9054 0.2987 0.3016
vn 0.9485 0.3027 -0.0929
vn 0.9518 0.3030 0.0480
vn -0.9019 0.3285 -0.2803
vn -0.8512 0.5243 0.0246
vn -0.2130 0.9280 0.3057
vn 0.9013 0.4114 0.1355
vn 0.2547 0.0000 0.9670
vn -0.8838 0.4543 -0.1117
vn 0.9527 0.3040 0.0000
vn 0.9335 0.2988 0.1983
vn -0.0000 -0.8128 0.5825
vn 0.1839 0.2467 0.9515
vn 0.0654 0.9387 0.3384
vn 0.0192 0.9994 0.0277
vn 0.9393 0.3429 0.0145
vn -0.0082 0.9991 0.0423
vn -0.9003 0.4135 0.1362
vn 0.9182 0.3653 -0.1530
vn -0.0554 0.9563 -0.2872
vn -0.9386 0.3448 0.0146
vn -0.2532 -0.0000 0.9674
vn -0.0920 -0.5996 -0.7950
vn -0.1268 -0.8265 -0.5485
vn 0.0588 -0.3834 -0.9217
vn 0.8527 0.5219 0.0244
vn -0.8916 0.4524 0.0212
vn -0.0756 -0.4930 -0.8667
vn -0.1517 -0.9884 0.0000
vn -0.1498 -0.9765 -0.1547
vn -0.1073 -0.6996 -0.7064
vn -0.1451 -0.9458 0.2904
vn -0.2166 -0.8994 -0.3797
vn 0.9317 0.3025 -0.2012
vn 0.8850 0.4521 -0.1111
vn 0.1225 -0.5088 -0.8521
vn -0.0000 -0.9231 0.3845
vn 0.9030 0.3269 -0.2789
vn 0.0000 -0.4688 0.8833
vn -0.9173 0.3673 -0.1538
vn 0.8817 0.2966 -0.3670
vn -0.1267 -0.8259 0.5494
vn -0.9402 0.3404 0.0159
vn -0.9471 0.3206 0.0150
vn -0.9505 0.3105 0.0145
vn -0.9521 0.3057 0.0000
vn -0.9512 0.3048 0.0483
vn -0.9327 0.3004 0.1994
vn -0.9044 0.3003 0.3032
vn 0.0960 -0.6256 0.7742
vn 0.1267 -0.8259 0.5494
vn 0.1451 -0.9458 0.2904
vn 0.1517 -0.9884 0.0000
vn 0.1498 -0.9765 -0.1547
vn 0.1268 -0.8265 -0.5485
vn 0.1073 -0.6996 -0.7064
vn -0.9138 0.2712 -0.3023
vn -0.9434 0.2750 -0.1853
vn -0.9551 0.2768 -0.1060
vn -0.9597 0.2810 0.0000
vn -0.9566 0.2801 0.0807
vn -0.9521 0.2852 0.1099
vn 0.1588 -0.6594 0.7349
vn 0.1958 -0.8132 0.5481
vn 0.2194 -0.9111 0.3488
vn 0.2341 -0.9722 0.0000
vn 0.2255 -0.9362 -0.2696
vn 0.2192 -0.9104 -0.3509
vn 0.9475 0.3105 -0.0763
vn 0.9538 0.2919 -0.0718
vn 0.9561 0.2846 -0.0700
vn 0.9602 0.2794 0.0000
vn 0.9556 0.2752 -0.1054
vn 0.9441 0.2734 -0.1843
vn -0.1588 -0.6594 0.7348
vn -0.1958 -0.8132 0.5481
vn -0.2194 -0.9111 0.3488
vn -0.2341 -0.9722 0.0000
vn -0.2255 -0.9362 -0.2696
vn -0.2192 -0.9104 -0.3509
vn 0.9345 0.3556 0.0167
vn 0.9537 0.2922 -0.0718
vn -0.9469 0.3122 -0.0767
vn -0.9337 0.3576 0.0167
vn -0.0960 -0.6256 0.7742
vn 0.9448 0.3274 0.0153
vn 0.9510 0.3087 0.0145
vn 0.9523 0.3048 0.0143
vn 0.9528 0.3034 0.0142
vn 0.9495 0.3133 0.0147
vn 0.9477 0.3188 0.0149
vn 0.9408 0.3385 0.0159
vn -0.8805 0.2980 -0.3688
vn -0.9309 0.3041 -0.2023
vn -0.9479 0.3044 -0.0934
vn -0.9522 0.3051 0.0143
vn -0.9517 0.3066 0.0144
vn -0.9490 0.3151 0.0148
vn -0.9441 0.3292 0.0154
vn -0.9531 0.2938 -0.0722
vn -0.9563 0.2839 -0.0698
vn -0.9578 0.2792 -0.0686
vn -0.9582 0.2777 -0.0683
vn -0.9556 0.2863 -0.0704
vn -0.9532 0.2936 -0.0722
vn 0.1588 -0.6594 0.7348
vn 0.8992 0.2752 0.3402
vn 0.9527 0.2836 0.1093
vn 0.9571 0.2785 0.0802
vn 0.9587 0.2761 -0.0679
vn 0.9583 0.2776 -0.0682
vn 0.9568 0.2822 -0.0694
vn -0.1588 -0.6594 0.7349
usemtl Material
s off
f 30/1/1 3/2/1 10/3/1
f 29/4/2 7/5/2 28/6/2
f 9/7/3 6/8/3 2/9/3
f 28/6/4 3/10/4 26/11/4
f 49/12/5 8/13/5 4/14/5
f 27/15/6 4/16/6 8/17/6
f 7/18/7 10/19/7 3/20/7
f 62/21/8 9/7/8 61/22/8
f 65/23/9 29/24/9 63/25/9
f 30/26/10 64/27/10 66/28/10
f 55/29/11 107/30/11 100/31/11
f 32/32/12 132/33/12 138/34/12
f 156/35/13 67/36/13 121/37/13
f 73/38/14 14/39/14 13/40/14
f 58/41/15 19/42/15 57/43/15
f 33/44/1 37/45/1 42/46/1
f 41/47/16 20/48/16 34/49/16
f 39/50/17 18/51/17 17/52/17
f 51/53/18 24/54/18 23/55/18
f 50/56/19 35/57/19 54/58/19
f 36/59/1 49/60/1 53/61/1
f 70/62/20 21/63/20 69/64/20
f 23/65/1 53/61/1 51/66/1
f 54/58/19 24/67/19 52/68/19
f 41/47/21 18/69/21 40/70/21
f 17/71/1 42/46/1 39/72/1
f 132/73/22 15/74/22 126/75/22
f 156/35/23 69/76/23 72/77/23
f 9/78/24 66/28/24 61/79/24
f 63/25/9 11/80/9 62/81/9
f 1/82/6 27/15/6 5/83/6
f 2/84/25 28/6/25 26/11/25
f 29/4/26 6/85/26 11/86/26
f 2/87/1 30/1/1 9/88/1
f 39/72/1 45/89/1 46/90/1
f 48/91/27 40/92/27 47/93/27
f 46/94/28 40/95/28 39/50/28
f 48/91/29 38/96/29 41/97/29
f 42/46/1 43/98/1 45/89/1
f 20/99/30 37/100/30 19/42/30
f 45/89/31 73/101/31 75/102/31
f 78/103/32 44/104/32 48/105/32
f 77/106/33 46/94/33 76/107/33
f 78/103/34 47/108/34 77/109/34
f 46/90/31 75/102/31 76/110/31
f 38/111/35 43/112/35 37/100/35
f 27/113/36 52/114/36 5/115/36
f 51/66/1 25/116/1 1/117/1
f 53/61/1 4/118/1 25/116/1
f 8/119/36 54/120/36 27/113/36
f 5/121/37 51/53/37 1/122/37
f 22/123/38 49/12/38 21/63/38
f 34/124/9 56/125/9 18/126/9
f 55/127/39 33/128/39 17/129/39
f 86/130/9 63/25/9 120/131/9
f 59/132/40 19/133/40 33/128/40
f 20/134/9 60/135/9 34/124/9
f 17/52/41 56/136/41 55/29/41
f 10/19/42 65/137/42 64/138/42
f 150/139/43 69/64/43 144/140/43
f 99/141/44 57/142/44 59/143/44
f 92/144/45 57/43/45 85/145/45
f 63/25/9 113/146/9 120/131/9
f 61/147/46 93/148/46 106/149/46
f 67/150/47 36/151/47 23/152/47
f 35/153/48 68/154/48 24/155/48
f 145/156/12 32/32/12 138/34/12
f 23/55/49 68/157/49 67/158/49
f 22/159/48 71/160/48 35/153/48
f 72/161/50 21/162/50 36/151/50
f 76/163/51 31/164/51 15/165/51
f 32/32/52 77/109/52 16/166/52
f 16/167/53 76/107/53 15/74/53
f 14/168/52 78/103/52 32/32/52
f 75/169/54 13/170/54 31/164/54
f 43/112/55 74/171/55 73/38/55
f 30/1/1 26/172/1 3/2/1
f 29/4/26 12/173/26 7/5/26
f 9/7/56 11/174/56 6/8/56
f 28/6/57 7/5/57 3/10/57
f 49/12/5 50/175/5 8/13/5
f 27/15/6 25/176/6 4/16/6
f 7/18/58 12/177/58 10/19/58
f 62/21/59 11/174/59 9/7/59
f 65/23/9 12/178/9 29/24/9
f 30/26/60 10/179/60 64/27/60
f 100/31/61 108/180/61 101/181/61
f 111/182/62 105/183/62 104/184/62
f 102/185/63 110/186/63 103/187/63
f 73/38/64 74/171/64 14/39/64
f 58/41/65 20/99/65 19/42/65
f 33/44/1 19/188/1 37/45/1
f 41/47/66 38/189/66 20/48/66
f 39/50/67 40/95/67 18/51/67
f 51/53/68 52/190/68 24/54/68
f 50/56/19 22/191/19 35/57/19
f 36/59/1 21/192/1 49/60/1
f 70/62/69 22/123/69 21/63/69
f 23/65/1 36/59/1 53/61/1
f 54/58/19 35/57/19 24/67/19
f 41/47/16 34/49/16 18/69/16
f 17/71/1 33/44/1 42/46/1
f 103/187/70 111/182/70 104/184/70
f 101/181/71 109/193/71 102/185/71
f 9/78/72 30/26/72 66/28/72
f 63/25/9 29/24/9 11/80/9
f 1/82/6 25/176/6 27/15/6
f 2/84/73 6/85/73 28/6/73
f 29/4/74 28/6/74 6/85/74
f 2/87/1 26/172/1 30/1/1
f 39/72/1 42/46/1 45/89/1
f 48/91/75 41/97/75 40/92/75
f 46/94/76 47/194/76 40/95/76
f 48/91/77 44/195/77 38/96/77
f 42/46/1 37/45/1 43/98/1
f 20/99/78 38/111/78 37/100/78
f 45/89/31 43/98/31 73/101/31
f 78/103/34 74/196/34 44/104/34
f 77/106/79 47/194/79 46/94/79
f 78/103/80 48/105/80 47/108/80
f 46/90/31 45/89/31 75/102/31
f 38/111/81 44/197/81 43/112/81
f 27/113/36 54/120/36 52/114/36
f 51/66/1 53/61/1 25/116/1
f 53/61/1 49/60/1 4/118/1
f 8/119/36 50/198/36 54/120/36
f 5/121/37 52/190/37 51/53/37
f 22/123/82 50/175/82 49/12/82
f 34/124/9 60/135/9 56/125/9
f 55/127/83 59/132/83 33/128/83
f 101/199/84 97/200/84 98/201/84
f 59/132/85 57/202/85 19/133/85
f 20/134/9 58/203/9 60/135/9
f 17/52/86 18/51/86 56/136/86
f 10/19/87 12/177/87 65/137/87
f 55/204/88 99/141/88 59/143/88
f 104/205/89 96/206/89 103/207/89
f 102/208/90 96/206/90 97/200/90
f 100/209/91 98/201/91 99/141/91
f 105/210/92 95/211/92 104/205/92
f 67/150/93 72/161/93 36/151/93
f 35/153/48 71/160/48 68/154/48
f 112/212/94 106/213/94 105/183/94
f 23/55/95 24/54/95 68/157/95
f 22/159/48 70/214/48 71/160/48
f 72/161/96 69/215/96 21/162/96
f 76/163/97 75/169/97 31/164/97
f 32/32/52 78/103/52 77/109/52
f 16/167/98 77/106/98 76/107/98
f 14/168/52 74/196/52 78/103/52
f 75/169/99 73/216/99 13/170/99
f 43/112/100 44/197/100 74/171/100
f 113/217/101 61/22/101 106/213/101
f 106/149/102 94/218/102 105/210/102
f 114/219/9 56/125/9 60/135/9
f 115/220/9 107/221/9 114/219/9
f 116/222/9 108/223/9 115/220/9
f 117/224/9 109/225/9 116/222/9
f 118/226/9 110/227/9 117/224/9
f 119/228/9 111/229/9 118/226/9
f 120/131/9 112/230/9 119/228/9
f 86/231/103 64/138/103 65/137/103
f 87/232/104 79/233/104 86/231/104
f 88/234/105 80/235/105 87/232/105
f 88/234/106 82/236/106 81/237/106
f 89/238/107 83/239/107 82/236/107
f 90/240/108 84/241/108 83/239/108
f 91/242/109 85/145/109 84/241/109
f 64/243/110 93/148/110 66/244/110
f 79/245/111 94/218/111 93/148/111
f 80/246/112 95/211/112 94/218/112
f 81/247/113 96/206/113 95/211/113
f 96/206/114 83/248/114 97/200/114
f 97/200/115 84/249/115 98/201/115
f 98/201/116 85/250/116 99/141/116
f 92/251/9 60/135/9 58/203/9
f 91/252/9 114/219/9 92/251/9
f 90/253/9 115/220/9 91/252/9
f 89/254/9 116/222/9 90/253/9
f 89/254/9 118/226/9 117/224/9
f 87/255/9 118/226/9 88/256/9
f 86/130/9 119/228/9 87/255/9
f 150/257/48 71/160/48 70/214/48
f 150/257/48 134/258/48 133/259/48
f 149/260/48 135/261/48 134/258/48
f 148/262/48 136/263/48 135/261/48
f 147/264/48 137/265/48 136/263/48
f 146/266/48 138/34/48 137/265/48
f 13/40/117 145/267/117 139/268/117
f 139/268/118 146/269/118 140/270/118
f 140/270/119 147/271/119 141/272/119
f 141/272/120 148/273/120 142/274/120
f 148/273/121 143/275/121 142/274/121
f 149/276/122 144/140/122 143/275/122
f 13/277/123 151/278/123 31/279/123
f 139/280/124 152/281/124 151/278/124
f 140/282/125 153/283/125 152/281/125
f 141/284/126 154/285/126 153/283/126
f 154/285/127 143/286/127 155/287/127
f 155/287/128 144/288/128 156/35/128
f 127/289/129 67/158/129 68/157/129
f 128/290/130 121/291/130 127/289/130
f 129/292/131 122/293/131 128/290/131
f 129/292/132 124/294/132 123/295/132
f 130/296/133 125/297/133 124/294/133
f 131/298/134 126/75/134 125/297/134
f 15/299/135 151/278/135 126/300/135
f 126/300/136 152/281/136 125/301/136
f 125/301/137 153/283/137 124/302/137
f 153/283/138 123/303/138 124/302/138
f 154/285/139 122/304/139 123/303/139
f 155/287/140 121/37/140 122/304/140
f 133/259/48 68/154/48 71/160/48
f 134/258/48 127/305/48 133/259/48
f 135/261/48 128/306/48 134/258/48
f 136/263/48 129/307/48 135/261/48
f 137/265/48 130/308/48 136/263/48
f 138/34/48 131/309/48 137/265/48
f 55/29/141 56/136/141 107/30/141
f 32/32/12 16/166/12 132/33/12
f 156/35/13 72/77/13 67/36/13
f 132/73/142 16/167/142 15/74/142
f 156/35/23 144/288/23 69/76/23
f 86/130/9 65/23/9 63/25/9
f 150/139/143 70/62/143 69/64/143
f 99/141/44 85/250/44 57/142/44
f 92/144/144 58/41/144 57/43/144
f 63/25/9 62/81/9 113/146/9
f 61/147/145 66/244/145 93/148/145
f 145/156/48 14/168/48 32/32/48
f 100/31/146 107/30/146 108/180/146
f 111/182/147 112/212/147 105/183/147
f 102/185/148 109/193/148 110/186/148
f 103/187/149 110/186/149 111/182/149
f 101/181/150 108/180/150 109/193/150
f 101/199/84 102/208/84 97/200/84
f 55/204/88 100/209/88 99/141/88
f 104/205/89 95/211/89 96/206/89
f 102/208/90 103/207/90 96/206/90
f 100/209/91 101/199/91 98/201/91
f 105/210/92 94/218/92 95/211/92
f 112/212/151 113/217/151 106/213/151
f 113/217/152 62/21/152 61/22/152
f 106/149/102 93/148/102 94/218/102
f 114/219/9 107/221/9 56/125/9
f 115/220/9 108/223/9 107/221/9
f 116/222/9 109/225/9 108/223/9
f 117/224/9 110/227/9 109/225/9
f 118/226/9 111/229/9 110/227/9
f 119/228/9 112/230/9 111/229/9
f 120/131/9 113/146/9 112/230/9
f 86/231/153 79/233/153 64/138/153
f 87/232/154 80/235/154 79/233/154
f 88/234/155 81/237/155 80/235/155
f 88/234/156 89/238/156 82/236/156
f 89/238/157 90/240/157 83/239/157
f 90/240/158 91/242/158 84/241/158
f 91/242/159 92/144/159 85/145/159
f 64/243/110 79/245/110 93/148/110
f 79/245/111 80/246/111 94/218/111
f 80/246/112 81/247/112 95/211/112
f 81/247/113 82/310/113 96/206/113
f 96/206/114 82/310/114 83/248/114
f 97/200/115 83/248/115 84/249/115
f 98/201/116 84/249/116 85/250/116
f 92/251/9 114/219/9 60/135/9
f 91/252/9 115/220/9 114/219/9
f 90/253/9 116/222/9 115/220/9
f 89/254/9 117/224/9 116/222/9
f 89/254/9 88/256/9 118/226/9
f 87/255/9 119/228/9 118/226/9
f 86/130/9 120/131/9 119/228/9
f 150/257/48 133/259/48 71/160/48
f 150/257/12 149/260/12 134/258/12
f 149/260/48 148/262/48 135/261/48
f 148/262/48 147/264/48 136/263/48
f 147/264/48 146/266/48 137/265/48
f 146/266/48 145/156/48 138/34/48
f 13/40/160 14/39/160 145/267/160
f 139/268/161 145/267/161 146/269/161
f 140/270/162 146/269/162 147/271/162
f 141/272/163 147/271/163 148/273/163
f 148/273/164 149/276/164 143/275/164
f 149/276/165 150/139/165 144/140/165
f 13/277/166 139/280/166 151/278/166
f 139/280/124 140/282/124 152/281/124
f 140/282/125 141/284/125 153/283/125
f 141/284/126 142/311/126 154/285/126
f 154/285/127 142/311/127 143/286/127
f 155/287/128 143/286/128 144/288/128
f 127/289/167 121/291/167 67/158/167
f 128/290/168 122/293/168 121/291/168
f 129/292/169 123/295/169 122/293/169
f 129/292/170 130/296/170 124/294/170
f 130/296/171 131/298/171 125/297/171
f 131/298/172 132/73/172 126/75/172
f 15/299/173 31/279/173 151/278/173
f 126/300/136 151/278/136 152/281/136
f 125/301/137 152/281/137 153/283/137
f 153/283/138 154/285/138 123/303/138
f 154/285/139 155/287/139 122/304/139
f 155/287/140 156/35/140 121/37/140
f 133/259/48 127/305/48 68/154/48
f 134/258/48 128/306/48 127/305/48
f 135/261/48 129/307/48 128/306/48
f 136/263/48 130/308/48 129/307/48
f 137/265/48 131/309/48 130/308/48
f 138/34/48 132/33/48 131/309/48
