# Blender v2.78 (sub 0) OBJ File: 'simplebus.blend'
# www.blender.org
mtllib simplebus.mtl
o Car_11
v -0.082895 0.029540 -0.203916
v -0.082976 0.129645 -0.203215
v 0.082274 0.129779 -0.203488
v 0.082354 0.029674 -0.204189
v 0.082874 0.127251 0.157725
v 0.082954 0.027146 0.157024
v 0.083026 -0.008528 0.182853
v 0.082998 0.026963 0.183101
v -0.082252 0.026828 0.183375
v -0.082223 -0.008662 0.183126
v -0.082266 -0.008480 0.157049
v -0.082295 0.027011 0.157297
v -0.082866 -0.005951 -0.204164
v -0.082376 0.127116 0.157998
v 0.082383 -0.005816 -0.204438
v 0.082983 -0.008345 0.156775
v -0.082368 0.127086 0.162237
v 0.082881 0.127221 0.161964
v -0.072300 -0.004492 -0.124566
v -0.072327 -0.004379 -0.140731
v -0.072331 0.003369 -0.139702
v -0.087440 -0.004391 -0.140706
v -0.087445 0.003357 -0.139677
v -0.087413 -0.004504 -0.124541
v -0.072332 0.010169 -0.136847
v -0.087445 0.010157 -0.136822
v -0.072329 0.015200 -0.132511
v -0.087442 0.015188 -0.132486
v -0.072322 0.017857 -0.127217
v -0.087436 0.017844 -0.127192
v -0.072313 0.017817 -0.121602
v -0.087426 0.017805 -0.121577
v -0.072302 0.015087 -0.116345
v -0.087415 0.015075 -0.116320
v -0.072291 0.009996 -0.112080
v -0.087404 0.009983 -0.112055
v -0.072281 0.003156 -0.109321
v -0.087394 0.003144 -0.109296
v -0.072273 -0.004605 -0.108400
v -0.087386 -0.004617 -0.108375
v -0.072268 -0.012353 -0.109429
v -0.087382 -0.012365 -0.109404
v -0.072267 -0.019153 -0.112284
v -0.087381 -0.019165 -0.112259
v -0.072271 -0.024184 -0.116620
v -0.087384 -0.024197 -0.116595
v -0.072277 -0.026841 -0.121915
v -0.087390 -0.026853 -0.121890
v -0.072286 -0.026801 -0.127529
v -0.087400 -0.026814 -0.127504
v -0.072297 -0.024071 -0.132786
v -0.087411 -0.024083 -0.132761
v -0.072309 -0.018979 -0.137051
v -0.087422 -0.018992 -0.137026
v -0.072319 -0.012140 -0.139811
v -0.087432 -0.012153 -0.139786
v 0.089456 -0.004360 -0.124834
v 0.089429 -0.004247 -0.140999
v 0.089425 0.003501 -0.139970
v 0.074316 -0.004259 -0.140974
v 0.074312 0.003489 -0.139945
v 0.074343 -0.004372 -0.124809
v 0.089424 0.010301 -0.137115
v 0.074311 0.010289 -0.137090
v 0.089427 0.015332 -0.132779
v 0.074314 0.015320 -0.132754
v 0.089434 0.017989 -0.127484
v 0.074320 0.017976 -0.127459
v 0.089443 0.017949 -0.121870
v 0.074330 0.017937 -0.121845
v 0.089454 0.015219 -0.116613
v 0.074341 0.015207 -0.116588
v 0.089465 0.010128 -0.112348
v 0.074352 0.010115 -0.112323
v 0.089475 0.003289 -0.109588
v 0.074362 0.003276 -0.109563
v 0.089483 -0.004473 -0.108668
v 0.074370 -0.004485 -0.108643
v 0.089488 -0.012221 -0.109697
v 0.074375 -0.012233 -0.109672
v 0.089489 -0.019021 -0.112552
v 0.074375 -0.019033 -0.112527
v 0.089486 -0.024052 -0.116888
v 0.074372 -0.024065 -0.116863
v 0.089479 -0.026709 -0.122183
v 0.074366 -0.026721 -0.122158
v 0.089470 -0.026669 -0.127797
v 0.074356 -0.026682 -0.127772
v 0.089459 -0.023939 -0.133054
v 0.074345 -0.023951 -0.133029
v 0.089448 -0.018847 -0.137319
v 0.074334 -0.018860 -0.137294
v 0.089437 -0.012008 -0.140079
v 0.074324 -0.012021 -0.140054
v -0.074372 -0.007331 0.114584
v -0.074399 -0.007218 0.098418
v -0.074404 0.000530 0.099447
v -0.089512 -0.007231 0.098443
v -0.089517 0.000517 0.099472
v -0.089486 -0.007344 0.114609
v -0.074405 0.007329 0.102302
v -0.089518 0.007317 0.102327
v -0.074402 0.012361 0.106639
v -0.089515 0.012349 0.106664
v -0.074395 0.015017 0.111933
v -0.089508 0.015005 0.111958
v -0.074386 0.014978 0.117547
v -0.089499 0.014966 0.117572
v -0.074375 0.012248 0.122804
v -0.089488 0.012235 0.122829
v -0.074363 0.007156 0.127070
v -0.089477 0.007144 0.127095
v -0.074353 0.000317 0.129829
v -0.089467 0.000305 0.129854
v -0.074345 -0.007445 0.130750
v -0.089459 -0.007457 0.130775
v -0.074341 -0.015193 0.129720
v -0.089454 -0.015205 0.129745
v -0.074340 -0.021992 0.126866
v -0.089453 -0.022005 0.126891
v -0.074343 -0.027024 0.122529
v -0.089456 -0.027036 0.122554
v -0.074350 -0.029680 0.117235
v -0.089463 -0.029692 0.117260
v -0.074359 -0.029641 0.111620
v -0.089472 -0.029653 0.111646
v -0.074370 -0.026911 0.106364
v -0.089483 -0.026923 0.106389
v -0.074381 -0.021819 0.102098
v -0.089494 -0.021831 0.102123
v -0.074391 -0.014980 0.099339
v -0.089505 -0.014992 0.099364
v 0.087384 -0.007199 0.114316
v 0.087357 -0.007086 0.098151
v 0.087352 0.000662 0.099180
v 0.072244 -0.007099 0.098176
v 0.072239 0.000649 0.099205
v 0.072271 -0.007212 0.114341
v 0.087352 0.007462 0.102035
v 0.072238 0.007449 0.102060
v 0.087355 0.012493 0.106371
v 0.072241 0.012481 0.106396
v 0.087361 0.015149 0.111665
v 0.072248 0.015137 0.111690
v 0.087370 0.015110 0.117280
v 0.072257 0.015098 0.117305
v 0.087381 0.012380 0.122537
v 0.072268 0.012367 0.122562
v 0.087393 0.007288 0.126802
v 0.072279 0.007276 0.126827
v 0.087403 0.000449 0.129561
v 0.072290 0.000437 0.129586
v 0.087411 -0.007313 0.130482
v 0.072297 -0.007325 0.130507
v 0.087415 -0.015060 0.129453
v 0.072302 -0.015073 0.129478
v 0.087416 -0.021860 0.126598
v 0.072303 -0.021873 0.126623
v 0.087413 -0.026892 0.122262
v 0.072300 -0.026904 0.122287
v 0.087406 -0.029548 0.116967
v 0.072293 -0.029560 0.116992
v 0.087397 -0.029509 0.111353
v 0.072284 -0.029521 0.111378
v 0.087386 -0.026779 0.106096
v 0.072273 -0.026791 0.106121
v 0.087375 -0.021687 0.101830
v 0.072262 -0.021699 0.101856
v 0.087365 -0.014848 0.099071
v 0.072252 -0.014860 0.099096
vt 0.8071 0.7469
vt 0.9431 0.9896
vt 0.9431 0.7469
vt 0.0087 0.4666
vt 0.7371 0.3195
vt 0.0087 0.3195
vt 0.7630 0.7281
vt 0.8107 0.4854
vt 0.7630 0.4854
vt 0.0613 0.1016
vt 0.7896 0.0494
vt 0.0613 0.0494
vt 0.0173 0.4854
vt 0.7456 0.7281
vt 0.7456 0.4854
vt 0.0087 0.7469
vt 0.7371 0.9896
vt 0.7371 0.7469
vt 0.7896 0.9896
vt 0.0527 0.2486
vt 0.0087 0.1016
vt 0.0087 0.7281
vt 0.0173 0.7281
vt 0.7896 0.2674
vt 0.7896 0.3195
vt 0.9913 0.9896
vt 0.0613 0.2486
vt 0.7896 0.1016
vt 0.9519 0.7281
vt 0.8107 0.7281
vt 0.7456 0.4666
vt 0.9223 0.3002
vt 0.8897 0.3002
vt 0.8916 0.3116
vt 0.4715 0.0084
vt 0.4608 0.0306
vt 0.4715 0.0306
vt 0.9549 0.2158
vt 0.9223 0.2158
vt 0.9529 0.2272
vt 0.8973 0.3216
vt 0.4608 0.0084
vt 0.4506 0.0306
vt 0.9472 0.2372
vt 0.9060 0.3290
vt 0.4423 0.0084
vt 0.4423 0.0306
vt 0.9386 0.2446
vt 0.9166 0.3330
vt 0.6081 0.0084
vt 0.5982 0.0306
vt 0.6081 0.0306
vt 0.9279 0.2486
vt 0.9279 0.3330
vt 0.5982 0.0084
vt 0.5871 0.0306
vt 0.9166 0.2486
vt 0.9386 0.3290
vt 0.5871 0.0084
vt 0.5760 0.0306
vt 0.9060 0.2446
vt 0.9472 0.3216
vt 0.5760 0.0084
vt 0.5663 0.0306
vt 0.8973 0.2372
vt 0.9529 0.3116
vt 0.4249 0.0084
vt 0.4168 0.0306
vt 0.4249 0.0306
vt 0.8916 0.2272
vt 0.9549 0.3002
vt 0.4168 0.0084
vt 0.4068 0.0306
vt 0.8897 0.2158
vt 0.9529 0.2888
vt 0.4068 0.0084
vt 0.3961 0.0306
vt 0.8916 0.2044
vt 0.9472 0.2788
vt 0.3860 0.0084
vt 0.3860 0.0306
vt 0.8973 0.1944
vt 0.9386 0.2714
vt 0.3776 0.0306
vt 0.9060 0.1869
vt 0.9279 0.2674
vt 0.5489 0.0084
vt 0.5390 0.0306
vt 0.5489 0.0306
vt 0.9166 0.1830
vt 0.9166 0.2674
vt 0.5390 0.0084
vt 0.5278 0.0306
vt 0.9279 0.1830
vt 0.9060 0.2714
vt 0.5278 0.0084
vt 0.5167 0.0306
vt 0.9386 0.1869
vt 0.8973 0.2788
vt 0.5167 0.0084
vt 0.5070 0.0306
vt 0.9472 0.1944
vt 0.8916 0.2888
vt 0.4896 0.0084
vt 0.4815 0.0306
vt 0.4896 0.0306
vt 0.9529 0.2044
vt 0.4815 0.0084
vt 0.8397 0.3002
vt 0.8071 0.3002
vt 0.8090 0.3116
vt 0.9105 0.1420
vt 0.8998 0.1642
vt 0.9105 0.1642
vt 0.8723 0.3846
vt 0.8397 0.3846
vt 0.8703 0.3960
vt 0.8147 0.3216
vt 0.8897 0.1420
vt 0.8897 0.1642
vt 0.8646 0.4060
vt 0.8234 0.3290
vt 0.3602 0.0084
vt 0.3528 0.0306
vt 0.3602 0.0306
vt 0.8560 0.4135
vt 0.8340 0.3330
vt 0.3528 0.0084
vt 0.3430 0.0306
vt 0.8453 0.4174
vt 0.8453 0.3330
vt 0.3430 0.0084
vt 0.3318 0.0306
vt 0.8340 0.4174
vt 0.8560 0.3290
vt 0.3318 0.0084
vt 0.3207 0.0306
vt 0.8234 0.4135
vt 0.8646 0.3216
vt 0.3207 0.0084
vt 0.3110 0.0306
vt 0.8147 0.4060
vt 0.8703 0.3116
vt 0.3110 0.0084
vt 0.3038 0.0306
vt 0.8090 0.3960
vt 0.8723 0.3002
vt 0.7047 0.0084
vt 0.6947 0.0306
vt 0.7047 0.0306
vt 0.8071 0.3846
vt 0.8703 0.2888
vt 0.6947 0.0084
vt 0.6839 0.0306
vt 0.8090 0.3732
vt 0.8646 0.2788
vt 0.6839 0.0084
vt 0.6738 0.0306
vt 0.8147 0.3632
vt 0.8560 0.2714
vt 0.1389 0.0084
vt 0.1315 0.0306
vt 0.1389 0.0306
vt 0.8234 0.3558
vt 0.8453 0.2674
vt 0.1315 0.0084
vt 0.1216 0.0306
vt 0.8340 0.3518
vt 0.8340 0.2674
vt 0.1216 0.0084
vt 0.1104 0.0306
vt 0.8453 0.3518
vt 0.8234 0.2714
vt 0.1104 0.0084
vt 0.0993 0.0306
vt 0.8560 0.3558
vt 0.8147 0.2788
vt 0.0896 0.0084
vt 0.0896 0.0306
vt 0.8646 0.3632
vt 0.8090 0.2888
vt 0.0825 0.0306
vt 0.8703 0.3732
vt 0.9205 0.1642
vt 0.8397 0.0470
vt 0.8071 0.0470
vt 0.8090 0.0583
vt 0.6464 0.0084
vt 0.6357 0.0306
vt 0.6464 0.0306
vt 0.9549 0.3846
vt 0.9223 0.3846
vt 0.9529 0.3960
vt 0.8147 0.0684
vt 0.6357 0.0084
vt 0.6255 0.0306
vt 0.9472 0.4060
vt 0.8234 0.0758
vt 0.0651 0.0084
vt 0.0577 0.0306
vt 0.0651 0.0306
vt 0.9386 0.4135
vt 0.8340 0.0798
vt 0.0577 0.0084
vt 0.0478 0.0306
vt 0.9279 0.4174
vt 0.8453 0.0798
vt 0.0367 0.0084
vt 0.0367 0.0306
vt 0.9166 0.4174
vt 0.8560 0.0758
vt 0.0256 0.0306
vt 0.9060 0.4135
vt 0.8646 0.0684
vt 0.0256 0.0084
vt 0.0159 0.0306
vt 0.8973 0.4060
vt 0.8703 0.0583
vt 0.0159 0.0084
vt 0.0087 0.0306
vt 0.8916 0.3960
vt 0.8723 0.0470
vt 0.9117 0.4362
vt 0.9017 0.4584
vt 0.9117 0.4584
vt 0.8897 0.3846
vt 0.8703 0.0356
vt 0.9017 0.4362
vt 0.8910 0.4584
vt 0.8916 0.3732
vt 0.8646 0.0256
vt 0.8808 0.4362
vt 0.8808 0.4584
vt 0.8973 0.3632
vt 0.8560 0.0181
vt 0.8634 0.4362
vt 0.8560 0.4584
vt 0.8634 0.4584
vt 0.9060 0.3558
vt 0.8453 0.0142
vt 0.8560 0.4362
vt 0.8462 0.4584
vt 0.9166 0.3518
vt 0.8340 0.0142
vt 0.8462 0.4362
vt 0.8350 0.4584
vt 0.9279 0.3518
vt 0.8234 0.0181
vt 0.8239 0.4362
vt 0.8239 0.4584
vt 0.9386 0.3558
vt 0.8147 0.0256
vt 0.8142 0.4362
vt 0.8142 0.4584
vt 0.9472 0.3632
vt 0.8090 0.0356
vt 0.8071 0.4584
vt 0.9529 0.3732
vt 0.6564 0.0084
vt 0.6564 0.0306
vt 0.8397 0.2158
vt 0.8071 0.2158
vt 0.8090 0.2272
vt 0.9105 0.1009
vt 0.8998 0.1231
vt 0.9105 0.1231
vt 0.8723 0.1314
vt 0.8397 0.1314
vt 0.8703 0.1428
vt 0.8147 0.2372
vt 0.8998 0.1009
vt 0.8897 0.1231
vt 0.8646 0.1528
vt 0.8234 0.2446
vt 0.2864 0.0084
vt 0.2790 0.0306
vt 0.2864 0.0306
vt 0.8560 0.1602
vt 0.8340 0.2486
vt 0.2790 0.0084
vt 0.2692 0.0306
vt 0.8453 0.1642
vt 0.8453 0.2486
vt 0.2692 0.0084
vt 0.2580 0.0306
vt 0.8340 0.1642
vt 0.8560 0.2446
vt 0.2580 0.0084
vt 0.2469 0.0306
vt 0.8234 0.1602
vt 0.8646 0.2372
vt 0.2469 0.0084
vt 0.2372 0.0306
vt 0.8147 0.1528
vt 0.8703 0.2272
vt 0.2372 0.0084
vt 0.2301 0.0306
vt 0.8090 0.1428
vt 0.8723 0.2158
vt 0.7529 0.0084
vt 0.7429 0.0306
vt 0.7529 0.0306
vt 0.8071 0.1314
vt 0.8703 0.2044
vt 0.7429 0.0084
vt 0.7322 0.0306
vt 0.8090 0.1200
vt 0.8646 0.1944
vt 0.7322 0.0084
vt 0.7221 0.0306
vt 0.8147 0.1100
vt 0.8560 0.1869
vt 0.2126 0.0084
vt 0.2053 0.0306
vt 0.2126 0.0306
vt 0.8234 0.1025
vt 0.8453 0.1830
vt 0.2053 0.0084
vt 0.1954 0.0306
vt 0.8340 0.0986
vt 0.8340 0.1830
vt 0.1954 0.0084
vt 0.1842 0.0306
vt 0.8453 0.0986
vt 0.8234 0.1869
vt 0.1842 0.0084
vt 0.1731 0.0306
vt 0.8560 0.1025
vt 0.8147 0.1944
vt 0.1634 0.0084
vt 0.1634 0.0306
vt 0.8646 0.1100
vt 0.8090 0.2044
vt 0.1563 0.0306
vt 0.8703 0.1200
vt 0.9205 0.1009
vt 0.9205 0.1231
vt 0.7371 0.2674
vt 0.8071 0.9896
vt 0.7371 0.4666
vt 0.0087 0.9896
vt 0.7896 0.7469
vt 0.0087 0.4854
vt 0.9913 0.7469
vt 0.7896 0.2486
vt 0.9519 0.4854
vt 0.0087 0.0494
vt 0.4506 0.0084
vt 0.5663 0.0084
vt 0.3961 0.0084
vt 0.3776 0.0084
vt 0.5070 0.0084
vt 0.8998 0.1420
vt 0.3038 0.0084
vt 0.6738 0.0084
vt 0.0993 0.0084
vt 0.0825 0.0084
vt 0.9205 0.1420
vt 0.6255 0.0084
vt 0.0478 0.0084
vt 0.0087 0.0084
vt 0.8910 0.4362
vt 0.8350 0.4362
vt 0.8071 0.4362
vt 0.8897 0.1009
vt 0.2301 0.0084
vt 0.7221 0.0084
vt 0.1731 0.0084
vt 0.1563 0.0084
vt 0.0087 0.2674
vn -0.5788 0.5809 -0.5723
vn 0.7059 0.0055 -0.7083
vn -0.7083 0.0044 -0.7059
vn 0.5759 0.5818 -0.5742
vn 1.0000 0.0008 -0.0017
vn 0.5788 -0.5809 0.5723
vn -0.6826 0.0726 0.7272
vn -0.5759 -0.5818 0.5742
vn -1.0000 -0.0008 0.0017
vn -0.5778 -0.5738 -0.5804
vn -0.7065 -0.7077 -0.0038
vn -0.7077 0.7065 0.0061
vn 0.7077 -0.7065 -0.0061
vn -0.5892 0.6251 0.5120
vn 0.5898 0.6260 0.5101
vn 0.7065 0.7077 0.0038
vn 0.6849 0.0737 0.7249
vn 0.5769 -0.5728 -0.5823
vn 0.6789 0.0057 -0.7342
vn 0.6772 0.1928 -0.7101
vn -0.6813 0.0046 -0.7320
vn -0.6798 0.1917 -0.7079
vn 0.6722 0.3897 -0.6295
vn -0.6749 0.3886 -0.6273
vn 0.6643 0.5891 -0.4600
vn -0.6668 0.5880 -0.4578
vn 0.6572 0.7338 -0.1720
vn -0.6590 0.7328 -0.1698
vn 0.6578 0.7314 0.1801
vn -0.6584 0.7303 0.1823
vn 0.6658 0.5827 0.4660
vn -0.6652 0.5816 0.4682
vn 0.6743 0.3808 0.6327
vn -0.6728 0.3797 0.6349
vn 0.6795 0.1829 0.7105
vn -0.6775 0.1817 0.7127
vn 0.6813 -0.0046 0.7320
vn -0.6789 -0.0057 0.7342
vn 0.6798 -0.1917 0.7079
vn -0.6772 -0.1928 0.7101
vn 0.6749 -0.3886 0.6273
vn -0.6722 -0.3897 0.6295
vn 0.6668 -0.5880 0.4578
vn -0.6643 -0.5891 0.4600
vn 0.6590 -0.7328 0.1698
vn -0.6572 -0.7338 0.1720
vn 0.6584 -0.7303 -0.1823
vn -0.6578 -0.7314 -0.1801
vn 0.6652 -0.5816 -0.4682
vn -0.6658 -0.5827 -0.4660
vn 0.6728 -0.3797 -0.6349
vn -0.6743 -0.3808 -0.6327
vn 0.6775 -0.1817 -0.7127
vn -0.6795 -0.1829 -0.7105
vn 0.6658 0.5826 0.4660
usemtl CAR_11
s 1
f 2/1/1 4/2/2 1/3/3
f 3/4/4 6/5/5 4/6/2
f 7/7/6 9/8/7 10/9/8
f 12/10/9 13/11/10 11/12/11
f 14/13/12 3/14/4 2/15/1
f 13/16/10 16/17/13 11/18/11
f 7/19/6 11/18/11 16/17/13
f 17/20/14 12/10/9 9/21/7
f 14/13/12 18/22/15 5/23/16
f 7/24/6 6/5/5 8/25/17
f 15/26/18 1/3/3 4/2/2
f 14/27/12 1/28/3 12/10/9
f 18/29/15 9/8/7 8/30/17
f 11/12/11 9/21/7 12/10/9
f 6/5/5 18/31/15 8/25/17
f 19/32/5 20/33/19 21/34/20
f 22/35/21 21/36/20 20/37/19
f 22/38/21 24/39/9 23/40/22
f 19/32/5 21/34/20 25/41/23
f 23/42/22 25/43/23 21/36/20
f 23/40/22 24/39/9 26/44/24
f 19/32/5 25/41/23 27/45/25
f 25/43/23 28/46/26 27/47/25
f 26/44/24 24/39/9 28/48/26
f 19/32/5 27/45/25 29/49/27
f 28/50/26 29/51/27 27/52/25
f 28/48/26 24/39/9 30/53/28
f 19/32/5 29/49/27 31/54/29
f 30/55/28 31/56/29 29/51/27
f 30/53/28 24/39/9 32/57/30
f 19/32/5 31/54/29 33/58/31
f 32/59/30 33/60/31 31/56/29
f 32/57/30 24/39/9 34/61/32
f 19/32/5 33/58/31 35/62/33
f 34/63/32 35/64/33 33/60/31
f 34/61/32 24/39/9 36/65/34
f 19/32/5 35/62/33 37/66/35
f 36/67/34 37/68/35 35/69/33
f 36/65/34 24/39/9 38/70/36
f 19/32/5 37/66/35 39/71/37
f 38/72/36 39/73/37 37/68/35
f 38/70/36 24/39/9 40/74/38
f 19/32/5 39/71/37 41/75/39
f 40/76/38 41/77/39 39/73/37
f 40/74/38 24/39/9 42/78/40
f 19/32/5 41/75/39 43/79/41
f 41/77/39 44/80/42 43/81/41
f 42/78/40 24/39/9 44/82/42
f 19/32/5 43/79/41 45/83/43
f 44/80/42 45/84/43 43/81/41
f 44/82/42 24/39/9 46/85/44
f 19/32/5 45/83/43 47/86/45
f 46/87/44 47/88/45 45/89/43
f 46/85/44 24/39/9 48/90/46
f 19/32/5 47/86/45 49/91/47
f 48/92/46 49/93/47 47/88/45
f 48/90/46 24/39/9 50/94/48
f 19/32/5 49/91/47 51/95/49
f 50/96/48 51/97/49 49/93/47
f 50/94/48 24/39/9 52/98/50
f 19/32/5 51/95/49 53/99/51
f 52/100/50 53/101/51 51/97/49
f 52/98/50 24/39/9 54/102/52
f 19/32/5 53/99/51 55/103/53
f 54/104/52 55/105/53 53/106/51
f 54/102/52 24/39/9 56/107/54
f 19/32/5 55/103/53 20/33/19
f 56/108/54 20/37/19 55/105/53
f 56/107/54 24/39/9 22/38/21
f 57/109/5 58/110/19 59/111/20
f 60/112/21 59/113/20 58/114/19
f 60/115/21 62/116/9 61/117/22
f 57/109/5 59/111/20 63/118/23
f 59/113/20 64/119/24 63/120/23
f 61/117/22 62/116/9 64/121/24
f 57/109/5 63/118/23 65/122/25
f 64/123/24 65/124/25 63/125/23
f 64/121/24 62/116/9 66/126/26
f 57/109/5 65/122/25 67/127/27
f 66/128/26 67/129/27 65/124/25
f 66/126/26 62/116/9 68/130/28
f 57/109/5 67/127/27 69/131/29
f 68/132/28 69/133/29 67/129/27
f 68/130/28 62/116/9 70/134/30
f 57/109/5 69/131/29 71/135/31
f 70/136/30 71/137/31 69/133/29
f 70/134/30 62/116/9 72/138/32
f 57/109/5 71/135/31 73/139/33
f 72/140/32 73/141/33 71/137/31
f 72/138/32 62/116/9 74/142/34
f 57/109/5 73/139/33 75/143/35
f 74/144/34 75/145/35 73/141/33
f 74/142/34 62/116/9 76/146/36
f 57/109/5 75/143/35 77/147/37
f 76/148/36 77/149/37 75/150/35
f 76/146/36 62/116/9 78/151/38
f 57/109/5 77/147/37 79/152/39
f 78/153/38 79/154/39 77/149/37
f 78/151/38 62/116/9 80/155/40
f 57/109/5 79/152/39 81/156/41
f 80/157/40 81/158/41 79/154/39
f 80/155/40 62/116/9 82/159/42
f 57/109/5 81/156/41 83/160/43
f 82/161/42 83/162/43 81/163/41
f 82/159/42 62/116/9 84/164/44
f 57/109/5 83/160/43 85/165/45
f 84/166/44 85/167/45 83/162/43
f 84/164/44 62/116/9 86/168/46
f 57/109/5 85/165/45 87/169/47
f 86/170/46 87/171/47 85/167/45
f 86/168/46 62/116/9 88/172/48
f 57/109/5 87/169/47 89/173/49
f 88/174/48 89/175/49 87/171/47
f 88/172/48 62/116/9 90/176/50
f 57/109/5 89/173/49 91/177/51
f 89/175/49 92/178/52 91/179/51
f 90/176/50 62/116/9 92/180/52
f 57/109/5 91/177/51 93/181/53
f 92/178/52 93/182/53 91/179/51
f 92/180/52 62/116/9 94/183/54
f 57/109/5 93/181/53 58/110/19
f 93/184/53 60/112/21 58/114/19
f 94/183/54 62/116/9 60/115/21
f 95/185/5 96/186/19 97/187/20
f 98/188/21 97/189/20 96/190/19
f 98/191/21 100/192/9 99/193/22
f 95/185/5 97/187/20 101/194/23
f 99/195/22 101/196/23 97/189/20
f 99/193/22 100/192/9 102/197/24
f 95/185/5 101/194/23 103/198/25
f 102/199/24 103/200/25 101/201/23
f 102/197/24 100/192/9 104/202/26
f 95/185/5 103/198/25 105/203/27
f 104/204/26 105/205/27 103/200/25
f 104/202/26 100/192/9 106/206/28
f 95/185/5 105/203/27 107/207/29
f 105/205/27 108/208/30 107/209/29
f 106/206/28 100/192/9 108/210/30
f 95/185/5 107/207/29 109/211/55
f 108/208/30 109/212/55 107/209/29
f 108/210/30 100/192/9 110/213/32
f 95/185/5 109/211/55 111/214/33
f 110/215/32 111/216/33 109/212/55
f 110/213/32 100/192/9 112/217/34
f 95/185/5 111/214/33 113/218/35
f 112/219/34 113/220/35 111/216/33
f 112/217/34 100/192/9 114/221/36
f 95/185/5 113/218/35 115/222/37
f 114/223/36 115/224/37 113/225/35
f 114/221/36 100/192/9 116/226/38
f 95/185/5 115/222/37 117/227/39
f 116/228/38 117/229/39 115/224/37
f 116/226/38 100/192/9 118/230/40
f 95/185/5 117/227/39 119/231/41
f 117/229/39 120/232/42 119/233/41
f 118/230/40 100/192/9 120/234/42
f 95/185/5 119/231/41 121/235/43
f 120/236/42 121/237/43 119/238/41
f 120/234/42 100/192/9 122/239/44
f 95/185/5 121/235/43 123/240/45
f 122/241/44 123/242/45 121/237/43
f 122/239/44 100/192/9 124/243/46
f 95/185/5 123/240/45 125/244/47
f 124/245/46 125/246/47 123/242/45
f 124/243/46 100/192/9 126/247/48
f 95/185/5 125/244/47 127/248/49
f 125/246/47 128/249/50 127/250/49
f 126/247/48 100/192/9 128/251/50
f 95/185/5 127/248/49 129/252/51
f 127/250/49 130/253/52 129/254/51
f 128/251/50 100/192/9 130/255/52
f 95/185/5 129/252/51 131/256/53
f 130/253/52 131/257/53 129/254/51
f 130/255/52 100/192/9 132/258/54
f 95/185/5 131/256/53 96/186/19
f 132/259/54 96/190/19 131/260/53
f 132/258/54 100/192/9 98/191/21
f 133/261/5 134/262/19 135/263/20
f 136/264/21 135/265/20 134/266/19
f 136/267/21 138/268/9 137/269/22
f 133/261/5 135/263/20 139/270/23
f 137/271/22 139/272/23 135/265/20
f 137/269/22 138/268/9 140/273/24
f 133/261/5 139/270/23 141/274/25
f 140/275/24 141/276/25 139/277/23
f 140/273/24 138/268/9 142/278/26
f 133/261/5 141/274/25 143/279/27
f 142/280/26 143/281/27 141/276/25
f 142/278/26 138/268/9 144/282/28
f 133/261/5 143/279/27 145/283/29
f 144/284/28 145/285/29 143/281/27
f 144/282/28 138/268/9 146/286/30
f 133/261/5 145/283/29 147/287/31
f 146/288/30 147/289/31 145/285/29
f 146/286/30 138/268/9 148/290/32
f 133/261/5 147/287/31 149/291/33
f 148/292/32 149/293/33 147/289/31
f 148/290/32 138/268/9 150/294/34
f 133/261/5 149/291/33 151/295/35
f 150/296/34 151/297/35 149/293/33
f 150/294/34 138/268/9 152/298/36
f 133/261/5 151/295/35 153/299/37
f 152/300/36 153/301/37 151/302/35
f 152/298/36 138/268/9 154/303/38
f 133/261/5 153/299/37 155/304/39
f 154/305/38 155/306/39 153/301/37
f 154/303/38 138/268/9 156/307/40
f 133/261/5 155/304/39 157/308/41
f 156/309/40 157/310/41 155/306/39
f 156/307/40 138/268/9 158/311/42
f 133/261/5 157/308/41 159/312/43
f 158/313/42 159/314/43 157/315/41
f 158/311/42 138/268/9 160/316/44
f 133/261/5 159/312/43 161/317/45
f 160/318/44 161/319/45 159/314/43
f 160/316/44 138/268/9 162/320/46
f 133/261/5 161/317/45 163/321/47
f 162/322/46 163/323/47 161/319/45
f 162/320/46 138/268/9 164/324/48
f 133/261/5 163/321/47 165/325/49
f 164/326/48 165/327/49 163/323/47
f 164/324/48 138/268/9 166/328/50
f 133/261/5 165/325/49 167/329/51
f 165/327/49 168/330/52 167/331/51
f 166/328/50 138/268/9 168/332/52
f 133/261/5 167/329/51 169/333/53
f 168/330/52 169/334/53 167/331/51
f 168/332/52 138/268/9 170/335/54
f 133/261/5 169/333/53 134/262/19
f 170/336/54 134/266/19 169/337/53
f 170/335/54 138/268/9 136/267/21
f 16/338/13 4/6/2 6/5/5
f 2/1/1 3/339/4 4/2/2
f 3/4/4 5/340/16 6/5/5
f 7/7/6 8/30/17 9/8/7
f 12/10/9 1/28/3 13/11/10
f 14/13/12 5/23/16 3/14/4
f 13/16/10 15/341/18 16/17/13
f 7/19/6 10/342/8 11/18/11
f 17/20/14 14/27/12 12/10/9
f 14/13/12 17/343/14 18/22/15
f 7/24/6 16/338/13 6/5/5
f 15/26/18 13/344/10 1/3/3
f 14/27/12 2/345/1 1/28/3
f 18/29/15 17/346/14 9/8/7
f 11/12/11 10/347/8 9/21/7
f 6/5/5 5/340/16 18/31/15
f 22/35/21 23/42/22 21/36/20
f 23/42/22 26/348/24 25/43/23
f 25/43/23 26/348/24 28/46/26
f 28/50/26 30/55/28 29/51/27
f 30/55/28 32/59/30 31/56/29
f 32/59/30 34/63/32 33/60/31
f 34/63/32 36/349/34 35/64/33
f 36/67/34 38/72/36 37/68/35
f 38/72/36 40/76/38 39/73/37
f 40/76/38 42/350/40 41/77/39
f 41/77/39 42/350/40 44/80/42
f 44/80/42 46/351/44 45/84/43
f 46/87/44 48/92/46 47/88/45
f 48/92/46 50/96/48 49/93/47
f 50/96/48 52/100/50 51/97/49
f 52/100/50 54/352/52 53/101/51
f 54/104/52 56/108/54 55/105/53
f 56/108/54 22/35/21 20/37/19
f 60/112/21 61/353/22 59/113/20
f 59/113/20 61/353/22 64/119/24
f 64/123/24 66/128/26 65/124/25
f 66/128/26 68/132/28 67/129/27
f 68/132/28 70/136/30 69/133/29
f 70/136/30 72/140/32 71/137/31
f 72/140/32 74/144/34 73/141/33
f 74/144/34 76/354/36 75/145/35
f 76/148/36 78/153/38 77/149/37
f 78/153/38 80/157/40 79/154/39
f 80/157/40 82/355/42 81/158/41
f 82/161/42 84/166/44 83/162/43
f 84/166/44 86/170/46 85/167/45
f 86/170/46 88/174/48 87/171/47
f 88/174/48 90/356/50 89/175/49
f 89/175/49 90/356/50 92/178/52
f 92/178/52 94/357/54 93/182/53
f 93/184/53 94/358/54 60/112/21
f 98/188/21 99/195/22 97/189/20
f 99/195/22 102/359/24 101/196/23
f 102/199/24 104/204/26 103/200/25
f 104/204/26 106/360/28 105/205/27
f 105/205/27 106/360/28 108/208/30
f 108/208/30 110/215/32 109/212/55
f 110/215/32 112/219/34 111/216/33
f 112/219/34 114/361/36 113/220/35
f 114/223/36 116/228/38 115/224/37
f 116/228/38 118/362/40 117/229/39
f 117/229/39 118/362/40 120/232/42
f 120/236/42 122/241/44 121/237/43
f 122/241/44 124/245/46 123/242/45
f 124/245/46 126/363/48 125/246/47
f 125/246/47 126/363/48 128/249/50
f 127/250/49 128/249/50 130/253/52
f 130/253/52 132/364/54 131/257/53
f 132/259/54 98/188/21 96/190/19
f 136/264/21 137/271/22 135/265/20
f 137/271/22 140/365/24 139/272/23
f 140/275/24 142/280/26 141/276/25
f 142/280/26 144/284/28 143/281/27
f 144/284/28 146/288/30 145/285/29
f 146/288/30 148/292/32 147/289/31
f 148/292/32 150/296/34 149/293/33
f 150/296/34 152/366/36 151/297/35
f 152/300/36 154/305/38 153/301/37
f 154/305/38 156/309/40 155/306/39
f 156/309/40 158/367/42 157/310/41
f 158/313/42 160/318/44 159/314/43
f 160/318/44 162/322/46 161/319/45
f 162/322/46 164/326/48 163/323/47
f 164/326/48 166/368/50 165/327/49
f 165/327/49 166/368/50 168/330/52
f 168/330/52 170/369/54 169/334/53
f 170/336/54 136/264/21 134/266/19
f 16/338/13 15/370/18 4/6/2
