# Blender v2.78 (sub 0) OBJ File: 'simplevan.blend'
# www.blender.org
mtllib simplevan.mtl
o Car_07
v 0.073023 -0.001522 0.107540
v 0.073106 -0.001522 0.129989
v 0.073101 0.006156 0.128635
v 0.086056 -0.001522 0.129941
v 0.086051 0.006156 0.128587
v 0.085973 -0.001522 0.107492
v 0.073086 0.012908 0.124737
v 0.086036 0.012908 0.124689
v 0.073064 0.017920 0.118765
v 0.086014 0.017920 0.118717
v 0.073037 0.020587 0.111438
v 0.085987 0.020587 0.111390
v 0.073008 0.020587 0.103642
v 0.085958 0.020587 0.103594
v 0.072981 0.017920 0.096316
v 0.085931 0.017920 0.096268
v 0.072959 0.012908 0.090343
v 0.085909 0.012908 0.090295
v 0.072945 0.006156 0.086445
v 0.085895 0.006156 0.086397
v 0.072940 -0.001522 0.085091
v 0.085889 -0.001522 0.085043
v 0.072945 -0.009200 0.086445
v 0.085895 -0.009200 0.086397
v 0.072959 -0.015952 0.090343
v 0.085909 -0.015952 0.090295
v 0.072981 -0.020963 0.096316
v 0.085931 -0.020963 0.096268
v 0.073008 -0.023630 0.103642
v 0.085958 -0.023630 0.103594
v 0.073037 -0.023630 0.111438
v 0.085987 -0.023630 0.111390
v 0.073064 -0.020963 0.118765
v 0.086014 -0.020963 0.118717
v 0.073087 -0.015952 0.124737
v 0.086036 -0.015952 0.124689
v 0.073101 -0.009200 0.128635
v 0.086051 -0.009200 0.128587
v -0.086110 -0.001522 0.108130
v -0.086027 -0.001522 0.130579
v -0.086032 0.006156 0.129225
v -0.073077 -0.001522 0.130531
v -0.073082 0.006156 0.129177
v -0.073160 -0.001522 0.108082
v -0.086046 0.012908 0.125327
v -0.073096 0.012908 0.125279
v -0.086068 0.017920 0.119355
v -0.073119 0.017920 0.119307
v -0.086096 0.020587 0.112028
v -0.073146 0.020587 0.111980
v -0.086125 0.020587 0.104232
v -0.073175 0.020587 0.104184
v -0.086152 0.017920 0.096906
v -0.073202 0.017920 0.096858
v -0.086174 0.012908 0.090933
v -0.073224 0.012908 0.090885
v -0.086188 0.006156 0.087035
v -0.073238 0.006156 0.086987
v -0.086193 -0.001522 0.085681
v -0.073243 -0.001522 0.085633
v -0.086188 -0.009200 0.087035
v -0.073238 -0.009200 0.086987
v -0.086174 -0.015952 0.090933
v -0.073224 -0.015952 0.090885
v -0.086152 -0.020963 0.096906
v -0.073202 -0.020963 0.096858
v -0.086125 -0.023630 0.104232
v -0.073175 -0.023630 0.104184
v -0.086096 -0.023630 0.112028
v -0.073146 -0.023630 0.111980
v -0.086068 -0.020963 0.119355
v -0.073119 -0.020963 0.119307
v -0.086046 -0.015952 0.125327
v -0.073096 -0.015952 0.125279
v -0.086032 -0.009200 0.129225
v -0.073082 -0.009200 0.129177
v 0.072118 -0.001522 -0.136611
v 0.072201 -0.001522 -0.114161
v 0.072196 0.006156 -0.115515
v 0.085151 -0.001522 -0.114209
v 0.085146 0.006156 -0.115563
v 0.085068 -0.001522 -0.136659
v 0.072181 0.012908 -0.119414
v 0.085131 0.012908 -0.119462
v 0.072159 0.017920 -0.125386
v 0.085109 0.017920 -0.125434
v 0.072132 0.020587 -0.132712
v 0.085082 0.020587 -0.132760
v 0.072103 0.020587 -0.140509
v 0.085053 0.020587 -0.140557
v 0.072076 0.017920 -0.147835
v 0.085026 0.017920 -0.147883
v 0.072054 0.012908 -0.153808
v 0.085004 0.012908 -0.153856
v 0.072039 0.006156 -0.157706
v 0.084989 0.006156 -0.157754
v 0.072034 -0.001522 -0.159060
v 0.084984 -0.001522 -0.159108
v 0.072039 -0.009200 -0.157706
v 0.084989 -0.009200 -0.157754
v 0.072054 -0.015952 -0.153808
v 0.085004 -0.015952 -0.153856
v 0.072076 -0.020963 -0.147835
v 0.085026 -0.020963 -0.147883
v 0.072103 -0.023630 -0.140509
v 0.085053 -0.023630 -0.140557
v 0.072132 -0.023630 -0.132712
v 0.085082 -0.023630 -0.132760
v 0.072159 -0.020963 -0.125386
v 0.085109 -0.020963 -0.125434
v 0.072181 -0.015952 -0.119414
v 0.085131 -0.015952 -0.119462
v 0.072196 -0.009200 -0.115515
v 0.085146 -0.009200 -0.115563
v -0.087015 -0.001522 -0.136021
v -0.086932 -0.001522 -0.113572
v -0.086937 0.006156 -0.114925
v -0.073982 -0.001522 -0.113620
v -0.073987 0.006156 -0.114973
v -0.074065 -0.001522 -0.136069
v -0.086951 0.012908 -0.118824
v -0.074001 0.012908 -0.118872
v -0.086974 0.017920 -0.124796
v -0.074024 0.017920 -0.124844
v -0.087001 0.020587 -0.132122
v -0.074051 0.020587 -0.132170
v -0.087030 0.020587 -0.139919
v -0.074080 0.020587 -0.139967
v -0.087057 0.017920 -0.147245
v -0.074107 0.017920 -0.147293
v -0.087079 0.012908 -0.153218
v -0.074129 0.012908 -0.153266
v -0.087093 0.006156 -0.157116
v -0.074143 0.006156 -0.157164
v -0.087098 -0.001522 -0.158470
v -0.074148 -0.001522 -0.158518
v -0.087093 -0.009200 -0.157116
v -0.074143 -0.009200 -0.157164
v -0.087079 -0.015952 -0.153218
v -0.074129 -0.015952 -0.153266
v -0.087057 -0.020963 -0.147245
v -0.074107 -0.020963 -0.147293
v -0.087030 -0.023630 -0.139919
v -0.074080 -0.023630 -0.139967
v -0.087001 -0.023630 -0.132122
v -0.074051 -0.023630 -0.132170
v -0.086974 -0.020963 -0.124796
v -0.074024 -0.020963 -0.124844
v -0.086951 -0.015952 -0.118824
v -0.074001 -0.015952 -0.118872
v -0.086937 -0.009200 -0.114925
v -0.073987 -0.009200 -0.114973
v -0.080451 -0.006055 -0.251870
v -0.080451 0.150471 -0.205736
v 0.078539 0.150637 -0.206302
v 0.078539 -0.005888 -0.252435
v 0.079551 0.152659 0.052018
v 0.079551 -0.010523 0.052018
v 0.080024 -0.010523 0.179779
v 0.080024 0.050465 0.179779
v -0.078965 0.050465 0.180369
v -0.078965 -0.010523 0.180369
v -0.079439 0.152659 0.052608
v -0.079439 0.161009 0.052608
v -0.080451 0.158479 -0.203376
v 0.079551 0.161009 0.052018
v 0.078539 0.158646 -0.203941
v -0.079439 -0.010523 0.052608
v 0.079788 -0.010523 0.116071
v -0.079201 -0.010523 0.116660
v -0.079201 0.152659 0.116660
v 0.079788 0.152659 0.116071
vt 0.7880 0.1238
vt 0.7880 0.1559
vt 0.7995 0.1540
vt 0.9663 0.1920
vt 0.9752 0.1735
vt 0.9663 0.1735
vt 0.7036 0.1559
vt 0.7036 0.1238
vt 0.6922 0.1540
vt 0.8096 0.1484
vt 0.5211 0.0741
vt 0.5312 0.0555
vt 0.5211 0.0555
vt 0.6821 0.1484
vt 0.8171 0.1399
vt 0.5312 0.0741
vt 0.5427 0.0555
vt 0.6746 0.1399
vt 0.8211 0.1294
vt 0.5427 0.0741
vt 0.5542 0.0555
vt 0.6706 0.1294
vt 0.8211 0.1182
vt 0.5542 0.0741
vt 0.5643 0.0555
vt 0.6706 0.1182
vt 0.8171 0.1077
vt 0.9238 0.3003
vt 0.9327 0.2817
vt 0.9238 0.2817
vt 0.6746 0.1077
vt 0.8096 0.0992
vt 0.9327 0.3003
vt 0.9437 0.2817
vt 0.6821 0.0992
vt 0.7995 0.0936
vt 0.9437 0.3003
vt 0.9553 0.2817
vt 0.6922 0.0936
vt 0.7880 0.0916
vt 0.9553 0.3003
vt 0.9663 0.2817
vt 0.7036 0.0916
vt 0.7766 0.0936
vt 0.9663 0.3003
vt 0.9752 0.2817
vt 0.7151 0.0936
vt 0.7665 0.0992
vt 0.9238 0.0838
vt 0.9339 0.0652
vt 0.9238 0.0652
vt 0.7252 0.0992
vt 0.7590 0.1077
vt 0.9339 0.0838
vt 0.9454 0.0652
vt 0.7327 0.1077
vt 0.7550 0.1182
vt 0.9454 0.0838
vt 0.9568 0.0652
vt 0.7367 0.1182
vt 0.7550 0.1294
vt 0.9568 0.0838
vt 0.9669 0.0652
vt 0.7367 0.1294
vt 0.7590 0.1399
vt 0.9238 0.1920
vt 0.9327 0.1735
vt 0.9238 0.1735
vt 0.7327 0.1399
vt 0.7665 0.1484
vt 0.9327 0.1920
vt 0.9437 0.1735
vt 0.7252 0.1484
vt 0.7766 0.1540
vt 0.9437 0.1920
vt 0.9553 0.1735
vt 0.7151 0.1540
vt 0.9553 0.1920
vt 0.9568 0.7153
vt 0.9568 0.7475
vt 0.9683 0.7455
vt 0.9663 0.2281
vt 0.9752 0.2096
vt 0.9663 0.2096
vt 0.9568 0.6656
vt 0.9568 0.6334
vt 0.9454 0.6637
vt 0.9784 0.7399
vt 0.6091 0.1559
vt 0.6192 0.1374
vt 0.6091 0.1374
vt 0.9353 0.6581
vt 0.9859 0.7314
vt 0.6192 0.1559
vt 0.6307 0.1374
vt 0.9278 0.6495
vt 0.9899 0.7209
vt 0.6307 0.1559
vt 0.6422 0.1374
vt 0.9238 0.6390
vt 0.9899 0.7097
vt 0.6422 0.1559
vt 0.6523 0.1374
vt 0.9238 0.6279
vt 0.9859 0.6992
vt 0.9238 0.3724
vt 0.9327 0.3539
vt 0.9238 0.3539
vt 0.9278 0.6174
vt 0.9784 0.6907
vt 0.9327 0.3724
vt 0.9437 0.3539
vt 0.9353 0.6088
vt 0.9683 0.6851
vt 0.9437 0.3724
vt 0.9553 0.3539
vt 0.9454 0.6032
vt 0.9568 0.6831
vt 0.9553 0.3724
vt 0.9663 0.3539
vt 0.9568 0.6013
vt 0.9454 0.6851
vt 0.9663 0.3724
vt 0.9752 0.3539
vt 0.9683 0.6032
vt 0.9353 0.6907
vt 0.6091 0.0838
vt 0.6192 0.0652
vt 0.6091 0.0652
vt 0.9784 0.6088
vt 0.9278 0.6992
vt 0.6192 0.0838
vt 0.6307 0.0652
vt 0.9859 0.6174
vt 0.9238 0.7097
vt 0.6307 0.0838
vt 0.6422 0.0652
vt 0.9899 0.6279
vt 0.9238 0.7209
vt 0.6422 0.0838
vt 0.6523 0.0652
vt 0.9899 0.6390
vt 0.9278 0.7314
vt 0.9238 0.2281
vt 0.9327 0.2096
vt 0.9238 0.2096
vt 0.9859 0.6495
vt 0.9353 0.7399
vt 0.9327 0.2281
vt 0.9437 0.2096
vt 0.9784 0.6581
vt 0.9454 0.7455
vt 0.9437 0.2281
vt 0.9553 0.2096
vt 0.9683 0.6637
vt 0.9553 0.2281
vt 0.9568 0.5516
vt 0.9568 0.5838
vt 0.9683 0.5818
vt 0.9663 0.1559
vt 0.9752 0.1374
vt 0.9663 0.1374
vt 0.9568 0.5019
vt 0.9568 0.4698
vt 0.9454 0.5000
vt 0.9784 0.5762
vt 0.7550 0.0741
vt 0.7651 0.0555
vt 0.7550 0.0555
vt 0.9353 0.4944
vt 0.9859 0.5677
vt 0.7651 0.0741
vt 0.7766 0.0555
vt 0.9278 0.4858
vt 0.9899 0.5572
vt 0.7766 0.0741
vt 0.7880 0.0555
vt 0.9238 0.4753
vt 0.9899 0.5460
vt 0.7880 0.0741
vt 0.7981 0.0555
vt 0.9238 0.4642
vt 0.9859 0.5355
vt 0.9238 0.4085
vt 0.9327 0.3900
vt 0.9238 0.3900
vt 0.9278 0.4537
vt 0.9784 0.5270
vt 0.9327 0.4085
vt 0.9437 0.3900
vt 0.9353 0.4451
vt 0.9683 0.5214
vt 0.9437 0.4085
vt 0.9553 0.3900
vt 0.9454 0.4395
vt 0.9568 0.5194
vt 0.9553 0.4085
vt 0.9663 0.3900
vt 0.9568 0.4376
vt 0.9454 0.5214
vt 0.9663 0.4085
vt 0.9752 0.3900
vt 0.9683 0.4395
vt 0.9353 0.5270
vt 0.6935 0.0741
vt 0.7036 0.0555
vt 0.6935 0.0555
vt 0.9784 0.4451
vt 0.9278 0.5355
vt 0.7036 0.0741
vt 0.7151 0.0555
vt 0.9859 0.4537
vt 0.9238 0.5460
vt 0.7151 0.0741
vt 0.7266 0.0555
vt 0.9899 0.4642
vt 0.9238 0.5572
vt 0.7266 0.0741
vt 0.7367 0.0555
vt 0.9899 0.4753
vt 0.9278 0.5677
vt 0.9238 0.1559
vt 0.9327 0.1374
vt 0.9238 0.1374
vt 0.9859 0.4858
vt 0.9353 0.5762
vt 0.9327 0.1559
vt 0.9437 0.1374
vt 0.9784 0.4944
vt 0.9454 0.5818
vt 0.9437 0.1559
vt 0.9553 0.1374
vt 0.9683 0.5000
vt 0.9553 0.1559
vt 0.5542 0.1238
vt 0.5542 0.1559
vt 0.5657 0.1540
vt 0.9663 0.3363
vt 0.9752 0.3178
vt 0.9663 0.3178
vt 0.8724 0.1559
vt 0.8724 0.1238
vt 0.8610 0.1540
vt 0.5758 0.1484
vt 0.9238 0.1199
vt 0.9339 0.1013
vt 0.9238 0.1013
vt 0.8509 0.1484
vt 0.5833 0.1399
vt 0.9339 0.1199
vt 0.9454 0.1013
vt 0.8434 0.1399
vt 0.5872 0.1294
vt 0.9454 0.1199
vt 0.9568 0.1013
vt 0.8394 0.1294
vt 0.5872 0.1182
vt 0.9568 0.1199
vt 0.9669 0.1013
vt 0.8394 0.1182
vt 0.5833 0.1077
vt 0.9238 0.2642
vt 0.9327 0.2456
vt 0.9238 0.2456
vt 0.8434 0.1077
vt 0.5758 0.0992
vt 0.9327 0.2642
vt 0.9437 0.2456
vt 0.8509 0.0992
vt 0.5657 0.0936
vt 0.9437 0.2642
vt 0.9553 0.2456
vt 0.8610 0.0936
vt 0.5542 0.0916
vt 0.9553 0.2642
vt 0.9663 0.2456
vt 0.8724 0.0916
vt 0.5427 0.0936
vt 0.9663 0.2642
vt 0.9752 0.2456
vt 0.8839 0.0936
vt 0.5326 0.0992
vt 0.6091 0.1199
vt 0.6192 0.1013
vt 0.6091 0.1013
vt 0.8940 0.0992
vt 0.5251 0.1077
vt 0.6192 0.1199
vt 0.6307 0.1013
vt 0.9015 0.1077
vt 0.5211 0.1182
vt 0.6307 0.1199
vt 0.6422 0.1013
vt 0.9055 0.1182
vt 0.5211 0.1294
vt 0.6422 0.1199
vt 0.6523 0.1013
vt 0.9055 0.1294
vt 0.5251 0.1399
vt 0.9238 0.3363
vt 0.9327 0.3178
vt 0.9238 0.3178
vt 0.9015 0.1399
vt 0.5326 0.1484
vt 0.9327 0.3363
vt 0.9437 0.3178
vt 0.8940 0.1484
vt 0.5427 0.1540
vt 0.9437 0.3363
vt 0.9553 0.3178
vt 0.8839 0.1540
vt 0.9553 0.3363
vt 0.3322 0.1735
vt 0.5762 0.4012
vt 0.5762 0.1735
vt 0.0762 0.4188
vt 0.3202 0.8097
vt 0.3202 0.4188
vt 0.6447 0.4012
vt 0.7324 0.1735
vt 0.6447 0.1735
vt 0.6495 0.8097
vt 0.5824 0.4188
vt 0.5824 0.8097
vt 0.0091 0.4012
vt 0.2468 0.0103
vt 0.0091 0.0103
vt 0.9055 0.4188
vt 0.6678 0.8097
vt 0.9055 0.8097
vt 0.2651 0.1735
vt 0.3322 0.4012
vt 0.0091 0.4188
vt 0.0762 0.8097
vt 0.9909 0.9927
vt 0.9238 0.7650
vt 0.9238 0.9927
vt 0.3385 0.4188
vt 0.6678 0.9015
vt 0.3385 0.9015
vt 0.3385 0.8097
vt 0.9055 0.4012
vt 0.9055 0.1735
vt 0.2290 0.9927
vt 0.3202 0.9015
vt 0.0762 0.9015
vt 0.6678 0.9927
vt 0.9055 0.9015
vt 0.4297 0.9927
vt 0.5824 0.9015
vt 0.5028 0.0642
vt 0.2651 0.1559
vt 0.5028 0.1559
vt 0.9752 0.1920
vt 0.5643 0.0741
vt 0.9752 0.3003
vt 0.9669 0.0838
vt 0.9752 0.2281
vt 0.6523 0.1559
vt 0.9752 0.3724
vt 0.6523 0.0838
vt 0.9752 0.1559
vt 0.7981 0.0741
vt 0.9752 0.4085
vt 0.7367 0.0741
vt 0.9752 0.3363
vt 0.9669 0.1199
vt 0.9752 0.2642
vt 0.6523 0.1199
vt 0.7324 0.4012
vt 0.6495 0.4188
vt 0.2468 0.4012
vt 0.6678 0.4188
vt 0.2651 0.4012
vt 0.0091 0.8097
vt 0.9909 0.7650
vt 0.3202 0.9927
vt 0.9055 0.9927
vt 0.3385 0.9927
vt 0.2651 0.0642
vn -1.0000 -0.0000 0.0037
vn -0.6673 -0.0000 0.7448
vn -0.6674 0.2539 0.7000
vn 0.6728 -0.0000 0.7398
vn 1.0000 0.0000 -0.0037
vn 0.6726 0.2539 0.6951
vn -0.6679 0.4772 0.5711
vn 0.6721 0.4772 0.5662
vn -0.6686 0.6429 0.3736
vn 0.6714 0.6429 0.3687
vn -0.6695 0.7311 0.1314
vn 0.6705 0.7311 0.1264
vn -0.6705 0.7311 -0.1264
vn 0.6695 0.7311 -0.1314
vn -0.6714 0.6429 -0.3687
vn 0.6687 0.6429 -0.3736
vn -0.6721 0.4772 -0.5662
vn 0.6679 0.4772 -0.5711
vn -0.6726 0.2539 -0.6951
vn 0.6674 0.2539 -0.7000
vn -0.6728 0.0000 -0.7398
vn 0.6673 0.0000 -0.7448
vn -0.6726 -0.2539 -0.6951
vn 0.6674 -0.2539 -0.7000
vn -0.6721 -0.4772 -0.5662
vn 0.6679 -0.4772 -0.5711
vn -0.6714 -0.6429 -0.3687
vn 0.6687 -0.6429 -0.3736
vn -0.6705 -0.7311 -0.1264
vn 0.6695 -0.7311 -0.1314
vn -0.6695 -0.7311 0.1314
vn 0.6705 -0.7311 0.1264
vn -0.6687 -0.6429 0.3736
vn 0.6714 -0.6429 0.3687
vn -0.6679 -0.4772 0.5711
vn 0.6721 -0.4772 0.5662
vn -0.6674 -0.2539 0.7000
vn 0.6726 -0.2539 0.6951
vn -0.6687 0.6429 0.3736
vn -0.6686 -0.6429 0.3736
vn -0.7099 0.1991 -0.6756
vn 0.5626 -0.4887 -0.6668
vn -0.5663 -0.4899 -0.6628
vn 0.7045 0.2005 -0.6808
vn 0.7054 -0.7087 -0.0079
vn 0.5795 -0.5774 0.5752
vn -0.6474 0.2091 0.7329
vn -0.5752 -0.5774 0.5795
vn -0.5747 0.5803 0.5770
vn -0.9034 0.3014 0.3049
vn 0.5921 0.6422 -0.4868
vn -0.5971 0.6409 -0.4825
vn -0.7055 -0.7087 -0.0027
vn 0.9057 0.3015 0.2980
vn 0.5791 0.5802 0.5727
vn 0.7071 -0.7071 -0.0026
vn -0.7071 -0.7071 0.0026
vn 0.6139 0.6912 0.3813
vn -0.6110 0.6912 0.3859
vn 0.6528 0.2091 0.7281
usemtl CAR_05
s 1
f 1/1/1 2/2/2 3/3/3
f 4/4/4 3/5/3 2/6/2
f 4/7/4 6/8/5 5/9/6
f 1/1/1 3/3/3 7/10/7
f 5/11/6 7/12/7 3/13/3
f 5/9/6 6/8/5 8/14/8
f 1/1/1 7/10/7 9/15/9
f 8/16/8 9/17/9 7/12/7
f 8/14/8 6/8/5 10/18/10
f 1/1/1 9/15/9 11/19/11
f 10/20/10 11/21/11 9/17/9
f 10/18/10 6/8/5 12/22/12
f 1/1/1 11/19/11 13/23/13
f 12/24/12 13/25/13 11/21/11
f 12/22/12 6/8/5 14/26/14
f 1/1/1 13/23/13 15/27/15
f 14/28/14 15/29/15 13/30/13
f 14/26/14 6/8/5 16/31/16
f 1/1/1 15/27/15 17/32/17
f 16/33/16 17/34/17 15/29/15
f 16/31/16 6/8/5 18/35/18
f 1/1/1 17/32/17 19/36/19
f 18/37/18 19/38/19 17/34/17
f 18/35/18 6/8/5 20/39/20
f 1/1/1 19/36/19 21/40/21
f 20/41/20 21/42/21 19/38/19
f 20/39/20 6/8/5 22/43/22
f 1/1/1 21/40/21 23/44/23
f 22/45/22 23/46/23 21/42/21
f 22/43/22 6/8/5 24/47/24
f 1/1/1 23/44/23 25/48/25
f 24/49/24 25/50/25 23/51/23
f 24/47/24 6/8/5 26/52/26
f 1/1/1 25/48/25 27/53/27
f 26/54/26 27/55/27 25/50/25
f 26/52/26 6/8/5 28/56/28
f 1/1/1 27/53/27 29/57/29
f 28/58/28 29/59/29 27/55/27
f 28/56/28 6/8/5 30/60/30
f 1/1/1 29/57/29 31/61/31
f 30/62/30 31/63/31 29/59/29
f 30/60/30 6/8/5 32/64/32
f 1/1/1 31/61/31 33/65/33
f 32/66/32 33/67/33 31/68/31
f 32/64/32 6/8/5 34/69/34
f 1/1/1 33/65/33 35/70/35
f 34/71/34 35/72/35 33/67/33
f 34/69/34 6/8/5 36/73/36
f 1/1/1 35/70/35 37/74/37
f 36/75/36 37/76/37 35/72/35
f 36/73/36 6/8/5 38/77/38
f 1/1/1 37/74/37 2/2/2
f 38/78/38 2/6/2 37/76/37
f 38/77/38 6/8/5 4/7/4
f 39/79/1 40/80/2 41/81/3
f 42/82/4 41/83/3 40/84/2
f 42/85/4 44/86/5 43/87/6
f 39/79/1 41/81/3 45/88/7
f 43/89/6 45/90/7 41/91/3
f 43/87/6 44/86/5 46/92/8
f 39/79/1 45/88/7 47/93/39
f 46/94/8 47/95/39 45/90/7
f 46/92/8 44/86/5 48/96/10
f 39/79/1 47/93/39 49/97/11
f 48/98/10 49/99/11 47/95/39
f 48/96/10 44/86/5 50/100/12
f 39/79/1 49/97/11 51/101/13
f 50/102/12 51/103/13 49/99/11
f 50/100/12 44/86/5 52/104/14
f 39/79/1 51/101/13 53/105/15
f 52/106/14 53/107/15 51/108/13
f 52/104/14 44/86/5 54/109/16
f 39/79/1 53/105/15 55/110/17
f 54/111/16 55/112/17 53/107/15
f 54/109/16 44/86/5 56/113/18
f 39/79/1 55/110/17 57/114/19
f 56/115/18 57/116/19 55/112/17
f 56/113/18 44/86/5 58/117/20
f 39/79/1 57/114/19 59/118/21
f 58/119/20 59/120/21 57/116/19
f 58/117/20 44/86/5 60/121/22
f 39/79/1 59/118/21 61/122/23
f 60/123/22 61/124/23 59/120/21
f 60/121/22 44/86/5 62/125/24
f 39/79/1 61/122/23 63/126/25
f 62/127/24 63/128/25 61/129/23
f 62/125/24 44/86/5 64/130/26
f 39/79/1 63/126/25 65/131/27
f 64/132/26 65/133/27 63/128/25
f 64/130/26 44/86/5 66/134/28
f 39/79/1 65/131/27 67/135/29
f 66/136/28 67/137/29 65/133/27
f 66/134/28 44/86/5 68/138/30
f 39/79/1 67/135/29 69/139/31
f 68/140/30 69/141/31 67/137/29
f 68/138/30 44/86/5 70/142/32
f 39/79/1 69/139/31 71/143/33
f 70/144/32 71/145/33 69/146/31
f 70/142/32 44/86/5 72/147/34
f 39/79/1 71/143/33 73/148/35
f 72/149/34 73/150/35 71/145/33
f 72/147/34 44/86/5 74/151/36
f 39/79/1 73/148/35 75/152/37
f 74/153/36 75/154/37 73/150/35
f 74/151/36 44/86/5 76/155/38
f 39/79/1 75/152/37 40/80/2
f 76/156/38 40/84/2 75/154/37
f 76/155/38 44/86/5 42/85/4
f 77/157/1 78/158/2 79/159/3
f 80/160/4 79/161/3 78/162/2
f 80/163/4 82/164/5 81/165/6
f 77/157/1 79/159/3 83/166/7
f 81/167/6 83/168/7 79/169/3
f 81/165/6 82/164/5 84/170/8
f 77/157/1 83/166/7 85/171/39
f 84/172/8 85/173/39 83/168/7
f 84/170/8 82/164/5 86/174/10
f 77/157/1 85/171/39 87/175/11
f 86/176/10 87/177/11 85/173/39
f 86/174/10 82/164/5 88/178/12
f 77/157/1 87/175/11 89/179/13
f 88/180/12 89/181/13 87/177/11
f 88/178/12 82/164/5 90/182/14
f 77/157/1 89/179/13 91/183/15
f 90/184/14 91/185/15 89/186/13
f 90/182/14 82/164/5 92/187/16
f 77/157/1 91/183/15 93/188/17
f 92/189/16 93/190/17 91/185/15
f 92/187/16 82/164/5 94/191/18
f 77/157/1 93/188/17 95/192/19
f 94/193/18 95/194/19 93/190/17
f 94/191/18 82/164/5 96/195/20
f 77/157/1 95/192/19 97/196/21
f 96/197/20 97/198/21 95/194/19
f 96/195/20 82/164/5 98/199/22
f 77/157/1 97/196/21 99/200/23
f 98/201/22 99/202/23 97/198/21
f 98/199/22 82/164/5 100/203/24
f 77/157/1 99/200/23 101/204/25
f 100/205/24 101/206/25 99/207/23
f 100/203/24 82/164/5 102/208/26
f 77/157/1 101/204/25 103/209/27
f 102/210/26 103/211/27 101/206/25
f 102/208/26 82/164/5 104/212/28
f 77/157/1 103/209/27 105/213/29
f 104/214/28 105/215/29 103/211/27
f 104/212/28 82/164/5 106/216/30
f 77/157/1 105/213/29 107/217/31
f 106/218/30 107/219/31 105/215/29
f 106/216/30 82/164/5 108/220/32
f 77/157/1 107/217/31 109/221/40
f 108/222/32 109/223/40 107/224/31
f 108/220/32 82/164/5 110/225/34
f 77/157/1 109/221/40 111/226/35
f 110/227/34 111/228/35 109/223/40
f 110/225/34 82/164/5 112/229/36
f 77/157/1 111/226/35 113/230/37
f 112/231/36 113/232/37 111/228/35
f 112/229/36 82/164/5 114/233/38
f 77/157/1 113/230/37 78/158/2
f 114/234/38 78/162/2 113/232/37
f 114/233/38 82/164/5 80/163/4
f 115/235/1 116/236/2 117/237/3
f 118/238/4 117/239/3 116/240/2
f 118/241/4 120/242/5 119/243/6
f 115/235/1 117/237/3 121/244/7
f 119/245/6 121/246/7 117/247/3
f 119/243/6 120/242/5 122/248/8
f 115/235/1 121/244/7 123/249/39
f 122/250/8 123/251/39 121/246/7
f 122/248/8 120/242/5 124/252/10
f 115/235/1 123/249/39 125/253/11
f 124/254/10 125/255/11 123/251/39
f 124/252/10 120/242/5 126/256/12
f 115/235/1 125/253/11 127/257/13
f 126/258/12 127/259/13 125/255/11
f 126/256/12 120/242/5 128/260/14
f 115/235/1 127/257/13 129/261/15
f 128/262/14 129/263/15 127/264/13
f 128/260/14 120/242/5 130/265/16
f 115/235/1 129/261/15 131/266/17
f 130/267/16 131/268/17 129/263/15
f 130/265/16 120/242/5 132/269/18
f 115/235/1 131/266/17 133/270/19
f 132/271/18 133/272/19 131/268/17
f 132/269/18 120/242/5 134/273/20
f 115/235/1 133/270/19 135/274/21
f 134/275/20 135/276/21 133/272/19
f 134/273/20 120/242/5 136/277/22
f 115/235/1 135/274/21 137/278/23
f 136/279/22 137/280/23 135/276/21
f 136/277/22 120/242/5 138/281/24
f 115/235/1 137/278/23 139/282/25
f 138/283/24 139/284/25 137/285/23
f 138/281/24 120/242/5 140/286/26
f 115/235/1 139/282/25 141/287/27
f 140/288/26 141/289/27 139/284/25
f 140/286/26 120/242/5 142/290/28
f 115/235/1 141/287/27 143/291/29
f 142/292/28 143/293/29 141/289/27
f 142/290/28 120/242/5 144/294/30
f 115/235/1 143/291/29 145/295/31
f 144/296/30 145/297/31 143/293/29
f 144/294/30 120/242/5 146/298/32
f 115/235/1 145/295/31 147/299/33
f 146/300/32 147/301/33 145/302/31
f 146/298/32 120/242/5 148/303/34
f 115/235/1 147/299/33 149/304/35
f 148/305/34 149/306/35 147/301/33
f 148/303/34 120/242/5 150/307/36
f 115/235/1 149/304/35 151/308/37
f 150/309/36 151/310/37 149/306/35
f 150/307/36 120/242/5 152/311/38
f 115/235/1 151/308/37 116/236/2
f 152/312/38 116/240/2 151/310/37
f 152/311/38 120/242/5 118/241/4
f 154/313/41 156/314/42 153/315/43
f 155/316/44 158/317/45 156/318/42
f 159/319/46 161/320/47 162/321/48
f 164/322/49 154/323/41 163/324/50
f 164/325/49 167/326/51 165/327/52
f 153/328/43 158/329/45 168/330/53
f 165/331/52 155/332/44 154/313/41
f 167/333/51 157/334/54 155/316/44
f 166/335/55 163/336/50 157/337/54
f 153/338/43 163/324/50 154/323/41
f 169/339/56 168/330/53 158/329/45
f 170/340/57 163/324/50 168/341/53
f 161/320/47 172/342/58 171/343/59
f 160/344/60 169/345/56 172/346/58
f 159/347/46 170/348/57 169/339/56
f 170/340/57 161/349/47 171/350/59
f 157/351/54 171/352/59 172/353/58
f 158/317/45 172/346/58 169/345/56
f 4/4/4 5/354/6 3/5/3
f 5/11/6 8/16/8 7/12/7
f 8/16/8 10/20/10 9/17/9
f 10/20/10 12/24/12 11/21/11
f 12/24/12 14/355/14 13/25/13
f 14/28/14 16/33/16 15/29/15
f 16/33/16 18/37/18 17/34/17
f 18/37/18 20/41/20 19/38/19
f 20/41/20 22/45/22 21/42/21
f 22/45/22 24/356/24 23/46/23
f 24/49/24 26/54/26 25/50/25
f 26/54/26 28/58/28 27/55/27
f 28/58/28 30/62/30 29/59/29
f 30/62/30 32/357/32 31/63/31
f 32/66/32 34/71/34 33/67/33
f 34/71/34 36/75/36 35/72/35
f 36/75/36 38/78/38 37/76/37
f 38/78/38 4/4/4 2/6/2
f 42/82/4 43/358/6 41/83/3
f 43/89/6 46/94/8 45/90/7
f 46/94/8 48/98/10 47/95/39
f 48/98/10 50/102/12 49/99/11
f 50/102/12 52/359/14 51/103/13
f 52/106/14 54/111/16 53/107/15
f 54/111/16 56/115/18 55/112/17
f 56/115/18 58/119/20 57/116/19
f 58/119/20 60/123/22 59/120/21
f 60/123/22 62/360/24 61/124/23
f 62/127/24 64/132/26 63/128/25
f 64/132/26 66/136/28 65/133/27
f 66/136/28 68/140/30 67/137/29
f 68/140/30 70/361/32 69/141/31
f 70/144/32 72/149/34 71/145/33
f 72/149/34 74/153/36 73/150/35
f 74/153/36 76/156/38 75/154/37
f 76/156/38 42/82/4 40/84/2
f 80/160/4 81/362/6 79/161/3
f 81/167/6 84/172/8 83/168/7
f 84/172/8 86/176/10 85/173/39
f 86/176/10 88/180/12 87/177/11
f 88/180/12 90/363/14 89/181/13
f 90/184/14 92/189/16 91/185/15
f 92/189/16 94/193/18 93/190/17
f 94/193/18 96/197/20 95/194/19
f 96/197/20 98/201/22 97/198/21
f 98/201/22 100/364/24 99/202/23
f 100/205/24 102/210/26 101/206/25
f 102/210/26 104/214/28 103/211/27
f 104/214/28 106/218/30 105/215/29
f 106/218/30 108/365/32 107/219/31
f 108/222/32 110/227/34 109/223/40
f 110/227/34 112/231/36 111/228/35
f 112/231/36 114/234/38 113/232/37
f 114/234/38 80/160/4 78/162/2
f 118/238/4 119/366/6 117/239/3
f 119/245/6 122/250/8 121/246/7
f 122/250/8 124/254/10 123/251/39
f 124/254/10 126/258/12 125/255/11
f 126/258/12 128/367/14 127/259/13
f 128/262/14 130/267/16 129/263/15
f 130/267/16 132/271/18 131/268/17
f 132/271/18 134/275/20 133/272/19
f 134/275/20 136/279/22 135/276/21
f 136/279/22 138/368/24 137/280/23
f 138/283/24 140/288/26 139/284/25
f 140/288/26 142/292/28 141/289/27
f 142/292/28 144/296/30 143/293/29
f 144/296/30 146/369/32 145/297/31
f 146/300/32 148/305/34 147/301/33
f 148/305/34 150/309/36 149/306/35
f 150/309/36 152/312/38 151/310/37
f 152/312/38 118/238/4 116/240/2
f 154/313/41 155/332/44 156/314/42
f 155/316/44 157/334/54 158/317/45
f 159/319/46 160/370/60 161/320/47
f 164/322/49 165/371/52 154/323/41
f 164/325/49 166/372/55 167/326/51
f 153/328/43 156/373/42 158/329/45
f 165/331/52 167/374/51 155/332/44
f 167/333/51 166/375/55 157/334/54
f 166/335/55 164/376/49 163/336/50
f 153/338/43 168/341/53 163/324/50
f 169/339/56 170/348/57 168/330/53
f 170/340/57 171/350/59 163/324/50
f 161/320/47 160/370/60 172/342/58
f 160/344/60 159/377/46 169/345/56
f 159/347/46 162/378/48 170/348/57
f 170/340/57 162/379/48 161/349/47
f 157/351/54 163/380/50 171/352/59
f 158/317/45 157/334/54 172/346/58
