# Blender v2.78 (sub 0) OBJ File: 'simplecar.blend'
# www.blender.org
mtllib simpletire1.mtl
o tire4.001_Cube.000
v 0.089513 -0.000325 0.149984
v 0.089850 -0.012396 0.089278
v 0.089850 -0.012396 0.147582
v 0.113648 -0.028815 0.106355
v 0.113457 -0.021977 0.140741
v 0.113648 -0.028815 0.130505
v 0.112211 0.022628 0.140741
v 0.112497 0.012396 0.147582
v 0.112497 0.012396 0.089278
v 0.113715 -0.031216 0.118429
v 0.112020 0.029466 0.130505
v 0.088699 0.028815 0.130505
v 0.088890 0.021977 0.096118
v 0.112211 0.022628 0.096118
v 0.090136 -0.022629 0.140741
v 0.113171 -0.011744 0.147582
v 0.113457 -0.021977 0.096118
v 0.090136 -0.022629 0.096118
v 0.113171 -0.011744 0.089278
v 0.111953 0.031867 0.118429
v 0.112020 0.029466 0.106355
v 0.089176 0.011744 0.089278
v 0.088890 0.021977 0.140741
v 0.089176 0.011744 0.147582
v 0.088632 0.031216 0.118429
v 0.088699 0.028815 0.106355
v 0.112834 0.000326 0.086876
v 0.089513 -0.000325 0.086876
v 0.090327 -0.029466 0.106355
v 0.090327 -0.029466 0.130505
v 0.090394 -0.031867 0.118429
v 0.112834 0.000326 0.149984
vt 0.9988 0.5040
vt 0.8312 0.3043
vt 0.9988 0.3125
vt 0.7086 0.9628
vt 0.8036 0.8497
vt 0.7780 0.9594
vt 0.7780 0.1432
vt 0.8036 0.3043
vt 0.6360 0.3125
vt 0.7447 0.9991
vt 0.3180 0.1464
vt 0.3180 0.0381
vt 0.6360 0.0381
vt 0.3180 0.8535
vt 0.0000 0.8535
vt 0.0000 0.6913
vt 0.9850 0.1494
vt 0.6360 0.8535
vt 0.3180 0.8535
vt 0.3180 0.6913
vt 0.3180 0.3087
vt 0.0000 0.1465
vt 0.3180 0.1464
vt 0.6753 0.8559
vt 0.6498 0.6948
vt 0.8567 0.1432
vt 0.7086 0.0000
vt 0.7447 0.0363
vt 0.6753 0.0397
vt 0.8174 0.6866
vt 0.9594 0.8559
vt 0.8312 0.8497
vt 0.9850 0.6948
vt 0.3180 0.0000
vt 0.6360 0.0000
vt 0.0000 1.0000
vt 0.3180 0.9619
vt 0.3180 1.0000
vt 0.3180 0.3087
vt 0.6360 0.1465
vt 0.6360 0.3087
vt 0.3180 0.6913
vt 0.0000 0.5000
vt 0.3180 0.5000
vt 0.6360 0.6913
vt 0.8900 0.0363
vt 0.9594 0.0397
vt 0.6360 1.0000
vt 0.3180 0.9619
vt 0.6360 0.9619
vt 0.0000 0.0381
vt 0.3180 0.0000
vt 0.3180 0.0381
vt 0.8174 0.6866
vt 0.9261 0.9628
vt 0.8900 0.9991
vt 0.8567 0.9594
vt 0.0000 0.9619
vt 0.6360 0.5000
vt 0.0000 0.3087
vt 0.9261 0.0000
vt 0.8174 0.4951
vt 0.8174 0.4951
vt 0.6360 0.5040
vt 0.6498 0.1495
vt 0.3180 0.5000
vt 0.3180 1.0000
vt 0.0000 0.0000
vn -0.9996 -0.0279 -0.0000
vn 0.9996 0.0279 0.0000
vn 0.9996 0.0280 0.0000
vn -0.0232 0.8311 0.5556
vn -0.0155 0.5553 -0.8315
vn 0.0155 -0.5554 0.8315
vn 0.0155 -0.5553 -0.8315
vn -0.0274 0.9804 0.1951
vn -0.0274 0.9804 -0.1951
vn -0.0155 0.5554 0.8315
vn -0.0054 0.1950 -0.9808
vn 0.0274 -0.9804 0.1951
vn 0.0273 -0.9804 0.1951
vn 0.0274 -0.9804 -0.1951
vn 0.0273 -0.9804 -0.1951
vn 0.0232 -0.8312 -0.5556
vn 0.0232 -0.8311 -0.5556
vn 0.0232 -0.8312 -0.5555
vn -0.9996 -0.0280 0.0000
vn -0.0054 0.1950 0.9808
vn -0.0055 0.1950 0.9808
vn 0.0054 -0.1950 -0.9808
vn 0.0055 -0.1950 -0.9808
vn -0.0055 0.1950 -0.9808
vn 0.0232 -0.8311 0.5556
vn 0.0054 -0.1950 0.9808
vn 0.0055 -0.1950 0.9808
vn -0.0232 0.8311 -0.5556
usemtl Material.003
s 1
f 1/1/1 2/2/1 3/3/1
f 4/4/2 5/5/2 6/6/2
f 7/7/2 8/8/2 9/9/2
f 10/10/3 4/4/2 6/6/2
f 7/11/4 11/12/4 12/13/4
f 13/14/5 14/15/5 9/16/5
f 15/17/1 3/3/1 2/2/1
f 15/18/6 5/19/6 16/20/6
f 2/21/7 17/22/7 18/23/7
f 5/5/2 17/24/2 19/25/2
f 15/17/1 2/2/1 18/26/1
f 20/27/3 11/28/2 21/29/2
f 22/30/1 23/31/1 13/32/1
f 22/30/1 24/33/1 23/31/1
f 12/13/8 20/34/8 25/35/8
f 20/36/9 26/37/9 25/38/9
f 8/39/10 7/11/10 23/40/10
f 8/39/10 23/40/10 24/41/10
f 22/42/11 27/43/11 28/44/11
f 15/18/6 16/20/6 3/45/6
f 15/17/1 29/46/1 30/47/1
f 31/48/12 6/49/12 30/50/13
f 4/51/14 31/52/14 29/53/15
f 18/23/16 4/51/17 29/53/18
f 5/5/2 19/25/2 16/54/2
f 13/14/5 9/16/5 22/42/5
f 12/55/1 25/56/19 26/57/1
f 20/36/9 21/58/9 26/37/9
f 1/59/20 8/39/20 24/41/21
f 27/43/22 19/60/23 2/21/22
f 31/61/19 30/47/1 29/46/1
f 22/30/1 28/62/1 1/1/1
f 22/42/11 9/16/24 27/43/11
f 32/63/2 19/25/2 27/64/2
f 15/18/25 6/49/25 5/19/25
f 7/7/2 9/9/2 14/65/2
f 15/17/1 18/26/1 29/46/1
f 22/30/1 1/1/1 24/33/1
f 3/45/26 16/20/27 32/66/26
f 32/63/2 16/54/2 19/25/2
f 1/59/20 32/66/20 8/39/20
f 14/65/2 21/29/2 11/28/2
f 13/32/1 23/31/1 12/55/1
f 3/45/26 32/66/26 1/59/26
f 18/23/16 17/22/17 4/51/17
f 26/37/28 14/15/28 13/14/28
f 4/4/2 17/24/2 5/5/2
f 1/1/1 28/62/1 2/2/1
f 14/65/2 11/28/2 7/7/2
f 31/48/12 10/67/12 6/49/12
f 32/63/2 9/9/2 8/8/2
f 26/37/28 21/58/28 14/15/28
f 15/18/25 30/50/25 6/49/25
f 7/11/4 12/13/4 23/40/4
f 2/21/7 19/60/7 17/22/7
f 4/51/14 10/68/14 31/52/14
f 27/43/22 2/21/22 28/44/22
f 32/63/2 27/64/2 9/9/2
f 13/32/1 12/55/1 26/57/1
f 12/13/8 11/12/8 20/34/8
