# Blender v2.78 (sub 0) OBJ File: 'car1.blend'
# www.blender.org
mtllib tire2.mtl
o tire2_Cube.002
v -0.128184 -0.032281 0.147016
v -0.092766 -0.031291 0.147016
v -0.127924 -0.041627 0.147937
v -0.092505 -0.040638 0.147937
v -0.127673 -0.050613 0.150664
v -0.092254 -0.049624 0.150664
v -0.127441 -0.058895 0.155093
v -0.092022 -0.057906 0.155093
v -0.127238 -0.066155 0.161053
v -0.091820 -0.065166 0.161053
v -0.127072 -0.072112 0.168315
v -0.091653 -0.071123 0.168315
v -0.126949 -0.076539 0.176600
v -0.091530 -0.075550 0.176600
v -0.126872 -0.079266 0.185590
v -0.091454 -0.078277 0.185590
v -0.126847 -0.080186 0.194940
v -0.091428 -0.079197 0.194940
v -0.126872 -0.079266 0.204289
v -0.091454 -0.078277 0.204289
v -0.126949 -0.076539 0.213279
v -0.091530 -0.075550 0.213279
v -0.127072 -0.072112 0.221565
v -0.091653 -0.071123 0.221565
v -0.127238 -0.066155 0.228827
v -0.091820 -0.065166 0.228827
v -0.127441 -0.058895 0.234787
v -0.092022 -0.057906 0.234787
v -0.127673 -0.050613 0.239215
v -0.092254 -0.049624 0.239215
v -0.127924 -0.041627 0.241942
v -0.092505 -0.040638 0.241942
v -0.128184 -0.032281 0.242863
v -0.092766 -0.031291 0.242863
v -0.128446 -0.022935 0.241942
v -0.093027 -0.021946 0.241942
v -0.128696 -0.013949 0.239215
v -0.093277 -0.012960 0.239215
v -0.128928 -0.005667 0.234787
v -0.093509 -0.004678 0.234787
v -0.129130 0.001593 0.228827
v -0.093712 0.002582 0.228827
v -0.129297 0.007550 0.221565
v -0.093878 0.008540 0.221565
v -0.129421 0.011978 0.213279
v -0.094002 0.012967 0.213279
v -0.129497 0.014704 0.204289
v -0.094078 0.015693 0.204289
v -0.129523 0.015624 0.194939
v -0.094104 0.016613 0.194939
v -0.129497 0.014704 0.185590
v -0.094078 0.015693 0.185590
v -0.129421 0.011978 0.176600
v -0.094002 0.012967 0.176600
v -0.129297 0.007550 0.168315
v -0.093878 0.008540 0.168315
v -0.129130 0.001593 0.161053
v -0.093712 0.002582 0.161053
v -0.128928 -0.005667 0.155092
v -0.093509 -0.004678 0.155092
v -0.128696 -0.013949 0.150664
v -0.093277 -0.012960 0.150664
v -0.128446 -0.022935 0.147937
v -0.093027 -0.021946 0.147937
vt 1.0000 0.4124
vt 0.6817 0.3480
vt 1.0000 0.3480
vt 1.0000 0.2830
vt 0.6817 0.2830
vt 1.0000 0.2199
vt 0.6817 0.1610
vt 1.0000 0.1610
vt 1.0000 0.1087
vt 0.6817 0.0650
vt 1.0000 0.0650
vt 0.6817 0.0315
vt 1.0000 0.0315
vt 0.6817 0.0096
vt 1.0000 0.0096
vt 1.0000 0.0000
vt 0.3183 0.0000
vt 0.0000 0.0191
vt 0.0000 0.0000
vt 0.3183 0.0191
vt 0.0000 0.0553
vt 0.3183 0.1071
vt 0.0000 0.1071
vt 0.3183 0.1727
vt 0.0000 0.1726
vt 0.3183 0.2493
vt 0.0000 0.2493
vt 0.0000 0.3343
vt 0.3183 0.4241
vt 0.0000 0.4241
vt 0.3183 0.5155
vt 0.0000 0.5155
vt 0.0000 0.6049
vt 0.3183 0.6888
vt 0.0000 0.6888
vt 0.3183 0.7641
vt 0.0000 0.7641
vt 0.3183 0.8277
vt 0.0000 0.8277
vt 0.3183 0.8774
vt 0.0000 0.8774
vt 0.0000 0.9112
vt 0.3183 0.9278
vt 0.0000 0.9278
vt 0.6817 0.8152
vt 1.0000 0.7933
vt 1.0000 0.8152
vt 0.6817 0.7933
vt 1.0000 0.7598
vt 0.6817 0.7598
vt 1.0000 0.7161
vt 0.6817 0.7161
vt 1.0000 0.6638
vt 0.6817 0.6638
vt 1.0000 0.6049
vt 0.6817 0.6049
vt 1.0000 0.5418
vt 0.5329 0.1449
vt 0.6714 0.2240
vt 0.5203 0.2204
vt 0.6817 0.4768
vt 1.0000 0.4768
vt 0.4897 0.7760
vt 0.3286 0.6934
vt 0.4965 0.6893
vt 0.6817 0.4124
vt 0.6817 0.2199
vt 0.6817 0.1087
vt 0.6817 0.0000
vt 0.3183 0.0553
vt 0.3183 0.3343
vt 0.3183 0.6049
vt 0.3183 0.9112
vt 0.6817 0.5418
vt 0.6782 0.3107
vt 0.6817 0.4046
vt 0.5035 0.4003
vt 0.6817 0.5022
vt 0.6782 0.5997
vt 0.5000 0.5954
vt 0.6714 0.6934
vt 0.6614 0.7796
vt 0.5035 0.6893
vt 0.6488 0.8551
vt 0.6339 0.9169
vt 0.5203 0.8520
vt 0.6174 0.9628
vt 0.5998 0.9908
vt 0.5478 0.9611
vt 0.5819 1.0000
vt 0.5644 0.9900
vt 0.5329 0.9145
vt 0.5103 0.7760
vt 0.5000 0.4978
vt 0.5103 0.3066
vt 0.5478 0.0830
vt 0.6614 0.1480
vt 0.5644 0.0372
vt 0.5819 0.0092
vt 0.6339 0.0389
vt 0.5998 0.0000
vt 0.6174 0.0100
vt 0.6488 0.0855
vt 0.3218 0.5997
vt 0.3183 0.5022
vt 0.5000 0.4978
vt 0.3183 0.4046
vt 0.3218 0.3107
vt 0.4965 0.4003
vt 0.3286 0.2240
vt 0.3386 0.1480
vt 0.4671 0.1449
vt 0.3512 0.0855
vt 0.3661 0.0389
vt 0.4522 0.0830
vt 0.3827 0.0100
vt 0.4002 0.0000
vt 0.4181 0.0092
vt 0.4357 0.0372
vt 0.4797 0.2204
vt 0.4897 0.3066
vt 0.5000 0.5954
vt 0.4797 0.8520
vt 0.3512 0.8551
vt 0.4671 0.9145
vt 0.4522 0.9611
vt 0.3661 0.9169
vt 0.4357 0.9900
vt 0.4181 1.0000
vt 0.4002 0.9908
vt 0.3827 0.9628
vt 0.3386 0.7796
vn 0.0027 -0.0980 -0.9952
vn 0.0081 -0.2902 -0.9569
vn 0.0132 -0.4712 -0.8819
vn 0.0177 -0.6341 -0.7731
vn 0.0216 -0.7727 -0.6344
vn 0.0246 -0.8816 -0.4714
vn 0.0267 -0.9565 -0.2904
vn 0.0278 -0.9948 -0.0980
vn 0.0278 -0.9948 0.0980
vn 0.0267 -0.9565 0.2904
vn 0.0246 -0.8816 0.4714
vn 0.0216 -0.7727 0.6344
vn 0.0177 -0.6341 0.7730
vn 0.0132 -0.4712 0.8819
vn 0.0081 -0.2902 0.9569
vn 0.0027 -0.0980 0.9952
vn -0.0027 0.0980 0.9952
vn -0.0081 0.2902 0.9569
vn -0.0132 0.4712 0.8819
vn -0.0177 0.6341 0.7730
vn -0.0216 0.7727 0.6344
vn -0.0246 0.8816 0.4714
vn -0.0267 0.9566 0.2902
vn -0.0278 0.9948 0.0980
vn -0.0278 0.9948 -0.0980
vn -0.0267 0.9566 -0.2902
vn -0.0246 0.8816 -0.4714
vn -0.0216 0.7727 -0.6344
vn -0.0177 0.6341 -0.7730
vn -0.0132 0.4712 -0.8819
vn 0.9996 0.0279 0.0000
vn -0.0081 0.2902 -0.9569
vn -0.0027 0.0980 -0.9952
vn -0.9996 -0.0280 0.0000
vn 0.0177 -0.6341 -0.7730
vn -0.0267 0.9566 0.2903
vn -0.0267 0.9566 -0.2903
vn 0.9996 0.0280 0.0000
vn 0.9996 0.0278 0.0000
vn 0.9996 0.0285 0.0000
vn -0.9996 -0.0279 0.0000
vn -0.9996 -0.0275 0.0000
vn -0.9996 -0.0281 0.0000
vn -0.9996 -0.0278 0.0000
usemtl Material
s off
f 1/1/1 4/2/1 3/3/1
f 4/2/2 5/4/2 3/3/2
f 6/5/3 7/6/3 5/4/3
f 7/6/4 10/7/4 9/8/4
f 10/7/5 11/9/5 9/8/5
f 11/9/6 14/10/6 13/11/6
f 13/11/7 16/12/7 15/13/7
f 15/13/8 18/14/8 17/15/8
f 18/14/9 19/16/9 17/15/9
f 20/17/10 21/18/10 19/19/10
f 22/20/11 23/21/11 21/18/11
f 23/21/12 26/22/12 25/23/12
f 25/23/13 28/24/13 27/25/13
f 27/25/14 30/26/14 29/27/14
f 30/26/15 31/28/15 29/27/15
f 31/28/16 34/29/16 33/30/16
f 33/30/17 36/31/17 35/32/17
f 36/31/18 37/33/18 35/32/18
f 37/33/19 40/34/19 39/35/19
f 39/35/20 42/36/20 41/37/20
f 41/37/21 44/38/21 43/39/21
f 43/39/22 46/40/22 45/41/22
f 46/40/23 47/42/23 45/41/23
f 47/42/24 50/43/24 49/44/24
f 50/45/25 51/46/25 49/47/25
f 52/48/26 53/49/26 51/46/26
f 54/50/27 55/51/27 53/49/27
f 56/52/28 57/53/28 55/51/28
f 58/54/29 59/55/29 57/53/29
f 60/56/30 61/57/30 59/55/30
f 26/58/31 8/59/31 28/60/31
f 61/57/32 64/61/32 63/62/32
f 64/61/33 1/1/33 63/62/33
f 39/63/34 61/64/34 37/65/34
f 1/1/1 2/66/1 4/2/1
f 4/2/2 6/5/2 5/4/2
f 6/5/3 8/67/3 7/6/3
f 7/6/35 8/67/35 10/7/35
f 10/7/5 12/68/5 11/9/5
f 11/9/6 12/68/6 14/10/6
f 13/11/7 14/10/7 16/12/7
f 15/13/8 16/12/8 18/14/8
f 18/14/9 20/69/9 19/16/9
f 20/17/10 22/20/10 21/18/10
f 22/20/11 24/70/11 23/21/11
f 23/21/12 24/70/12 26/22/12
f 25/23/13 26/22/13 28/24/13
f 27/25/14 28/24/14 30/26/14
f 30/26/15 32/71/15 31/28/15
f 31/28/16 32/71/16 34/29/16
f 33/30/17 34/29/17 36/31/17
f 36/31/18 38/72/18 37/33/18
f 37/33/19 38/72/19 40/34/19
f 39/35/20 40/34/20 42/36/20
f 41/37/21 42/36/21 44/38/21
f 43/39/22 44/38/22 46/40/22
f 46/40/36 48/73/36 47/42/36
f 47/42/24 48/73/24 50/43/24
f 50/45/25 52/48/25 51/46/25
f 52/48/37 54/50/37 53/49/37
f 54/50/27 56/52/27 55/51/27
f 56/52/28 58/54/28 57/53/28
f 58/54/29 60/56/29 59/55/29
f 60/56/30 62/74/30 61/57/30
f 6/75/31 4/76/31 32/77/31
f 2/78/31 64/79/31 36/80/31
f 62/81/31 60/82/31 38/83/31
f 58/84/31 56/85/31 42/86/31
f 54/87/38 52/88/38 46/89/38
f 50/90/38 48/91/38 52/88/38
f 46/89/31 44/92/31 54/87/31
f 42/86/38 40/93/38 58/84/38
f 38/83/31 36/80/31 64/79/31
f 34/94/31 32/77/31 4/76/31
f 30/95/31 28/60/31 6/75/31
f 26/58/38 24/96/38 10/97/38
f 22/98/39 20/99/39 14/100/39
f 18/101/40 16/102/40 20/99/40
f 14/100/39 12/103/39 22/98/39
f 10/97/31 8/59/31 26/58/31
f 4/76/31 2/78/31 34/94/31
f 60/82/31 40/93/31 38/83/31
f 52/88/38 48/91/38 46/89/38
f 44/92/31 56/85/31 54/87/31
f 36/80/31 34/94/31 2/78/31
f 28/60/31 8/59/31 6/75/31
f 20/99/39 16/102/39 14/100/39
f 12/103/39 24/96/39 22/98/39
f 64/79/31 62/81/31 38/83/31
f 44/92/31 42/86/31 56/85/31
f 32/77/31 30/95/31 6/75/31
f 12/103/38 10/97/38 24/96/38
f 58/84/38 40/93/38 60/82/38
f 61/57/32 62/74/32 64/61/32
f 64/61/33 2/66/33 1/1/33
f 63/104/41 1/105/41 33/106/41
f 3/107/34 5/108/34 31/109/34
f 7/110/34 9/111/34 25/112/34
f 11/113/41 13/114/41 23/115/41
f 15/116/42 17/117/42 19/118/42
f 19/118/43 21/119/43 15/116/43
f 23/115/44 25/112/44 9/111/44
f 27/120/41 29/121/41 7/110/41
f 31/109/44 33/106/44 1/105/44
f 35/122/41 37/65/41 63/104/41
f 39/63/44 41/123/44 57/124/44
f 43/125/41 45/126/41 55/127/41
f 47/128/34 49/129/34 51/130/34
f 51/130/34 53/131/34 47/128/34
f 55/127/34 57/124/34 41/123/34
f 59/132/34 61/64/34 39/63/34
f 1/105/44 3/107/44 31/109/44
f 9/111/44 11/113/44 23/115/44
f 15/116/43 21/119/43 13/114/43
f 25/112/34 27/120/34 7/110/34
f 33/106/41 35/122/41 63/104/41
f 41/123/34 43/125/34 55/127/34
f 47/128/34 53/131/34 45/126/34
f 57/124/44 59/132/44 39/63/44
f 5/108/34 29/121/34 31/109/34
f 21/119/41 23/115/41 13/114/41
f 37/65/41 61/64/41 63/104/41
f 53/131/41 55/127/41 45/126/41
f 7/110/41 29/121/41 5/108/41
