# Blender v2.78 (sub 0) OBJ File: 'car1.blend'
# www.blender.org
mtllib tire4.mtl
o tire4_Cube.013
v -0.132470 -0.030890 -0.193340
v -0.097051 -0.029900 -0.193340
v -0.132209 -0.040236 -0.192419
v -0.096790 -0.039247 -0.192419
v -0.131958 -0.049222 -0.189692
v -0.096539 -0.048233 -0.189692
v -0.131727 -0.057504 -0.185263
v -0.096308 -0.056515 -0.185263
v -0.131524 -0.064764 -0.179303
v -0.096105 -0.063775 -0.179303
v -0.131358 -0.070721 -0.172041
v -0.095939 -0.069732 -0.172041
v -0.131234 -0.075148 -0.163756
v -0.095815 -0.074159 -0.163756
v -0.131158 -0.077875 -0.154766
v -0.095739 -0.076886 -0.154766
v -0.131133 -0.078795 -0.145416
v -0.095713 -0.077806 -0.145416
v -0.131158 -0.077875 -0.136067
v -0.095739 -0.076886 -0.136067
v -0.131234 -0.075148 -0.127077
v -0.095815 -0.074159 -0.127077
v -0.131358 -0.070721 -0.118791
v -0.095939 -0.069732 -0.118791
v -0.131524 -0.064764 -0.111529
v -0.096105 -0.063775 -0.111529
v -0.131727 -0.057504 -0.105569
v -0.096308 -0.056515 -0.105569
v -0.131958 -0.049222 -0.101141
v -0.096539 -0.048233 -0.101141
v -0.132209 -0.040236 -0.098414
v -0.096790 -0.039247 -0.098414
v -0.132470 -0.030890 -0.097493
v -0.097051 -0.029900 -0.097493
v -0.132731 -0.021544 -0.098414
v -0.097312 -0.020555 -0.098414
v -0.132982 -0.012558 -0.101141
v -0.097563 -0.011569 -0.101141
v -0.133214 -0.004277 -0.105569
v -0.097795 -0.003287 -0.105569
v -0.133416 0.002983 -0.111529
v -0.097997 0.003973 -0.111529
v -0.133583 0.008941 -0.118791
v -0.098164 0.009930 -0.118791
v -0.133706 0.013369 -0.127077
v -0.098288 0.014358 -0.127077
v -0.133782 0.016094 -0.136067
v -0.098364 0.017084 -0.136067
v -0.133809 0.017015 -0.145416
v -0.098389 0.018004 -0.145416
v -0.133782 0.016094 -0.154766
v -0.098364 0.017084 -0.154766
v -0.133706 0.013369 -0.163756
v -0.098288 0.014358 -0.163756
v -0.133583 0.008941 -0.172041
v -0.098164 0.009930 -0.172041
v -0.133416 0.002983 -0.179303
v -0.097997 0.003973 -0.179303
v -0.133214 -0.004277 -0.185263
v -0.097795 -0.003287 -0.185263
v -0.132982 -0.012558 -0.189692
v -0.097563 -0.011569 -0.189692
v -0.132731 -0.021544 -0.192419
v -0.097312 -0.020555 -0.192419
vt 0.6817 0.4124
vt 1.0000 0.3480
vt 1.0000 0.4124
vt 0.6817 0.3480
vt 1.0000 0.2830
vt 0.6817 0.2830
vt 1.0000 0.2199
vt 0.6817 0.1610
vt 1.0000 0.1610
vt 1.0000 0.1087
vt 0.6817 0.0650
vt 1.0000 0.0650
vt 0.6817 0.0315
vt 1.0000 0.0315
vt 0.6817 0.0096
vt 1.0000 0.0096
vt 1.0000 0.0000
vt 0.3183 0.9278
vt 0.0000 0.9087
vt 0.3183 0.9086
vt 0.3183 0.8725
vt 0.0000 0.8206
vt 0.3183 0.8206
vt 0.0000 0.7551
vt 0.3183 0.7551
vt 0.0000 0.6784
vt 0.3183 0.6784
vt 0.0000 0.5935
vt 0.3183 0.5935
vt 0.3183 0.5036
vt 0.0000 0.5036
vt 0.3183 0.4123
vt 0.0000 0.3229
vt 0.3183 0.3229
vt 0.0000 0.2390
vt 0.3183 0.2390
vt 0.3183 0.1637
vt 0.0000 0.1000
vt 0.3183 0.1000
vt 0.0000 0.0503
vt 0.3183 0.0503
vt 0.3183 0.0166
vt 0.0000 0.0166
vt 0.3183 0.0000
vt 0.6817 0.4124
vt 1.0000 0.4343
vt 0.6817 0.4343
vt 1.0000 0.4678
vt 0.6817 0.4678
vt 0.6817 0.5115
vt 1.0000 0.5115
vt 0.6817 0.5638
vt 1.0000 0.5638
vt 0.6817 0.6227
vt 1.0000 0.6227
vt 0.6817 0.6858
vt 0.3512 0.1449
vt 0.4897 0.2240
vt 0.3386 0.2204
vt 1.0000 0.6858
vt 0.6817 0.7508
vt 1.0000 0.7508
vt 0.6817 0.8152
vt 0.5203 0.2204
vt 0.6782 0.3107
vt 0.5103 0.3066
vt 0.6817 0.2199
vt 0.6817 0.1087
vt 0.6817 0.0000
vt 0.0000 0.9278
vt 0.0000 0.8725
vt 0.0000 0.4123
vt 0.0000 0.1637
vt 0.0000 0.0000
vt 1.0000 0.4124
vt 0.4965 0.3107
vt 0.5000 0.4046
vt 0.3218 0.4003
vt 0.5000 0.5022
vt 0.4965 0.5997
vt 0.3183 0.5954
vt 0.4897 0.6934
vt 0.4797 0.7796
vt 0.3218 0.6893
vt 0.4671 0.8551
vt 0.4522 0.9169
vt 0.3386 0.8520
vt 0.4357 0.9628
vt 0.4181 0.9908
vt 0.3661 0.9611
vt 0.4002 1.0000
vt 0.3827 0.9900
vt 0.3512 0.9145
vt 0.3286 0.7759
vt 0.3183 0.4978
vt 0.3286 0.3066
vt 0.3661 0.0830
vt 0.4797 0.1480
vt 0.3827 0.0372
vt 0.4002 0.0092
vt 0.4522 0.0389
vt 0.4181 0.0000
vt 0.4357 0.0100
vt 0.4671 0.0855
vt 1.0000 0.8152
vt 0.6817 0.4046
vt 0.6817 0.5022
vt 0.5000 0.4978
vt 0.6782 0.5997
vt 0.6714 0.6934
vt 0.5000 0.5954
vt 0.6614 0.7796
vt 0.6488 0.8551
vt 0.5203 0.8520
vt 0.6339 0.9169
vt 0.6173 0.9628
vt 0.5329 0.9145
vt 0.5998 0.9908
vt 0.5819 1.0000
vt 0.5643 0.9900
vt 0.5478 0.9611
vt 0.5103 0.7760
vt 0.5035 0.6893
vt 0.5035 0.4003
vt 0.5329 0.1449
vt 0.6614 0.1480
vt 0.5478 0.0830
vt 0.5644 0.0372
vt 0.6488 0.0855
vt 0.5819 0.0092
vt 0.5998 0.0000
vt 0.6174 0.0100
vt 0.6339 0.0389
vt 0.6714 0.2240
vn 0.0027 -0.0980 -0.9952
vn 0.0081 -0.2902 -0.9569
vn 0.0132 -0.4713 -0.8819
vn 0.0177 -0.6341 -0.7731
vn 0.0216 -0.7727 -0.6344
vn 0.0246 -0.8816 -0.4714
vn 0.0267 -0.9565 -0.2904
vn 0.0278 -0.9948 -0.0979
vn 0.0278 -0.9948 0.0979
vn 0.0267 -0.9565 0.2904
vn 0.0246 -0.8816 0.4714
vn 0.0216 -0.7727 0.6344
vn 0.0177 -0.6341 0.7730
vn 0.0132 -0.4713 0.8819
vn 0.0081 -0.2902 0.9569
vn 0.0027 -0.0980 0.9952
vn -0.0027 0.0980 0.9952
vn -0.0081 0.2902 0.9569
vn -0.0132 0.4712 0.8819
vn -0.0177 0.6341 0.7730
vn -0.0216 0.7727 0.6344
vn -0.0246 0.8816 0.4714
vn -0.0267 0.9566 0.2902
vn -0.0278 0.9948 0.0980
vn -0.0278 0.9948 -0.0980
vn -0.0267 0.9566 -0.2902
vn -0.0246 0.8816 -0.4714
vn -0.0216 0.7727 -0.6344
vn -0.0177 0.6341 -0.7730
vn -0.0132 0.4712 -0.8819
vn 0.9996 0.0279 0.0000
vn -0.0081 0.2902 -0.9569
vn -0.0027 0.0980 -0.9952
vn -0.9996 -0.0279 0.0000
vn 0.0132 -0.4712 -0.8819
vn 0.0177 -0.6341 -0.7730
vn 0.0278 -0.9948 -0.0980
vn 0.0278 -0.9948 0.0980
vn 0.0132 -0.4712 0.8819
vn -0.0132 0.4713 0.8819
vn -0.0246 0.8815 0.4715
vn -0.0246 0.8815 -0.4715
vn 0.9996 0.0280 0.0000
vn 0.9996 0.0278 0.0000
vn 0.9996 0.0282 0.0000
vn -0.9996 -0.0275 0.0000
vn -0.9996 -0.0280 0.0000
vn -0.9996 -0.0285 0.0000
usemtl Material
s off
f 2/1/1 3/2/1 1/3/1
f 4/4/2 5/5/2 3/2/2
f 6/6/3 7/7/3 5/5/3
f 7/7/4 10/8/4 9/9/4
f 10/8/5 11/10/5 9/9/5
f 11/10/6 14/11/6 13/12/6
f 13/12/7 16/13/7 15/14/7
f 15/14/8 18/15/8 17/16/8
f 18/15/9 19/17/9 17/16/9
f 19/18/10 22/19/10 21/20/10
f 22/19/11 23/21/11 21/20/11
f 23/21/12 26/22/12 25/23/12
f 25/23/13 28/24/13 27/25/13
f 27/25/14 30/26/14 29/27/14
f 29/27/15 32/28/15 31/29/15
f 32/28/16 33/30/16 31/29/16
f 34/31/17 35/32/17 33/30/17
f 35/32/18 38/33/18 37/34/18
f 37/34/19 40/35/19 39/36/19
f 40/35/20 41/37/20 39/36/20
f 41/37/21 44/38/21 43/39/21
f 43/39/22 46/40/22 45/41/22
f 46/40/23 47/42/23 45/41/23
f 48/43/24 49/44/24 47/42/24
f 49/45/25 52/46/25 51/47/25
f 51/47/26 54/48/26 53/49/26
f 54/48/27 55/50/27 53/49/27
f 56/51/28 57/52/28 55/50/28
f 58/53/29 59/54/29 57/52/29
f 60/55/30 61/56/30 59/54/30
f 26/57/31 8/58/31 28/59/31
f 62/60/32 63/61/32 61/56/32
f 64/62/33 1/63/33 63/61/33
f 39/64/34 61/65/34 37/66/34
f 2/1/1 4/4/1 3/2/1
f 4/4/2 6/6/2 5/5/2
f 6/6/35 8/67/35 7/7/35
f 7/7/36 8/67/36 10/8/36
f 10/8/5 12/68/5 11/10/5
f 11/10/6 12/68/6 14/11/6
f 13/12/7 14/11/7 16/13/7
f 15/14/37 16/13/37 18/15/37
f 18/15/38 20/69/38 19/17/38
f 19/18/10 20/70/10 22/19/10
f 22/19/11 24/71/11 23/21/11
f 23/21/12 24/71/12 26/22/12
f 25/23/13 26/22/13 28/24/13
f 27/25/39 28/24/39 30/26/39
f 29/27/15 30/26/15 32/28/15
f 32/28/16 34/31/16 33/30/16
f 34/31/17 36/72/17 35/32/17
f 35/32/18 36/72/18 38/33/18
f 37/34/40 38/33/40 40/35/40
f 40/35/20 42/73/20 41/37/20
f 41/37/21 42/73/21 44/38/21
f 43/39/41 44/38/41 46/40/41
f 46/40/23 48/43/23 47/42/23
f 48/43/24 50/74/24 49/44/24
f 49/45/25 50/75/25 52/46/25
f 51/47/26 52/46/26 54/48/26
f 54/48/42 56/51/42 55/50/42
f 56/51/28 58/53/28 57/52/28
f 58/53/29 60/55/29 59/54/29
f 60/55/30 62/60/30 61/56/30
f 6/76/31 4/77/31 32/78/31
f 2/79/31 64/80/31 36/81/31
f 62/82/31 60/83/31 38/84/31
f 58/85/31 56/86/31 42/87/31
f 54/88/31 52/89/31 46/90/31
f 50/91/31 48/92/31 52/89/31
f 46/90/43 44/93/43 54/88/43
f 42/87/31 40/94/31 58/85/31
f 38/84/31 36/81/31 64/80/31
f 34/95/31 32/78/31 4/77/31
f 30/96/31 28/59/31 6/76/31
f 26/57/43 24/97/43 10/98/43
f 22/99/44 20/100/44 14/101/44
f 18/102/45 16/103/45 20/100/45
f 14/101/31 12/104/31 22/99/31
f 10/98/31 8/58/31 26/57/31
f 4/77/31 2/79/31 34/95/31
f 60/83/31 40/94/31 38/84/31
f 52/89/31 48/92/31 46/90/31
f 44/93/43 56/86/43 54/88/43
f 36/81/31 34/95/31 2/79/31
f 28/59/31 8/58/31 6/76/31
f 20/100/44 16/103/44 14/101/44
f 12/104/31 24/97/31 22/99/31
f 64/80/31 62/82/31 38/84/31
f 44/93/31 42/87/31 56/86/31
f 32/78/31 30/96/31 6/76/31
f 12/104/43 10/98/43 24/97/43
f 58/85/31 40/94/31 60/83/31
f 62/60/32 64/62/32 63/61/32
f 64/62/33 2/105/33 1/63/33
f 63/106/34 1/107/34 33/108/34
f 3/109/34 5/110/34 31/111/34
f 7/112/34 9/113/34 25/114/34
f 11/115/34 13/116/34 23/117/34
f 15/118/46 17/119/46 19/120/46
f 19/120/47 21/121/47 15/118/47
f 23/117/34 25/114/34 9/113/34
f 27/122/47 29/123/47 7/112/47
f 31/111/34 33/108/34 1/107/34
f 35/124/34 37/66/34 63/106/34
f 39/64/34 41/125/34 57/126/34
f 43/127/34 45/128/34 55/129/34
f 47/130/48 49/131/48 51/132/48
f 51/132/47 53/133/47 47/130/47
f 55/129/34 57/126/34 41/125/34
f 59/134/34 61/65/34 39/64/34
f 1/107/34 3/109/34 31/111/34
f 9/113/34 11/115/34 23/117/34
f 15/118/47 21/121/47 13/116/47
f 25/114/34 27/122/34 7/112/34
f 33/108/34 35/124/34 63/106/34
f 41/125/34 43/127/34 55/129/34
f 47/130/47 53/133/47 45/128/47
f 57/126/34 59/134/34 39/64/34
f 5/110/34 29/123/34 31/111/34
f 21/121/34 23/117/34 13/116/34
f 37/66/34 61/65/34 63/106/34
f 53/133/34 55/129/34 45/128/34
f 7/112/47 29/123/47 5/110/47
